<svg width="24" height="22" viewBox="0 0 24 22" fill="none" xmlns="http://www.w3.org/2000/svg">
<path d="M3.83884 7.00304C3.76589 7.47406 4.02797 7.91964 4.44773 8.09743M3.83884 7.00304L4.0859 7.0413C4.03427 7.37463 4.20496 7.69108 4.48762 7.83985L4.48126 7.8809L4.44773 8.09743M3.83884 7.00304C3.91179 6.53201 4.29636 6.18658 4.75024 6.14407M3.83884 7.00304L9.31596 7.26806M4.44773 8.09743L4.443 8.12795L4.69004 8.16621C4.60481 8.15301 4.52369 8.12961 4.44773 8.09743ZM8.82518 9.23068L8.90422 9.02631L8.9192 8.98758C9.23839 8.99976 9.54426 8.81075 9.66592 8.49615C9.78758 8.18155 9.68845 7.83593 9.44411 7.63019L9.45909 7.59145L9.53812 7.38709M8.82518 9.23068C8.74362 9.22068 8.66195 9.20058 8.5818 9.16968L8.81405 9.25948L8.82518 9.23068ZM8.82518 9.23068C9.27767 9.28616 9.72718 9.03086 9.89909 8.58632C10.071 8.14177 9.91019 7.65047 9.53812 7.38709M9.53812 7.38709L9.54926 7.35828L9.3161 7.26812C9.39655 7.29923 9.47079 7.33943 9.53812 7.38709ZM9.31596 7.26806L9.08292 7.17795L9.08222 7.17974M9.31596 7.26806C9.23827 7.23802 9.16034 7.20858 9.08222 7.17974M9.31596 7.26806L8.99275 7.41111L9.08222 7.17974M9.08222 7.17974C7.7978 6.70546 6.46093 6.39158 5.24888 6.19132M5.24888 6.19132L5.24907 6.19007L5.00202 6.15181M5.24888 6.19132C5.16599 6.17762 5.08368 6.16446 5.00202 6.15181M5.24888 6.19132L4.75024 6.14407M5.00202 6.15181L4.75496 6.11355L4.75024 6.14407M5.00202 6.15181C4.91678 6.13861 4.83237 6.13638 4.75024 6.14407M10.7408 5.09178L10.9445 5.23449L10.9525 5.22299C10.9703 5.23266 10.9881 5.24208 11.0061 5.25124V18.6091C8.83535 17.3868 6.1983 16.8021 4.17732 16.5525L4.17747 16.5512L3.93806 16.5241C3.93506 16.5238 3.93205 16.5234 3.92905 16.5231C3.92906 16.5231 3.92907 16.5231 3.92908 16.5231L10.7408 5.09178ZM10.7408 5.09178C10.7405 5.09153 10.7401 5.09128 10.7397 5.09103L10.7397 5.09102C10.7395 5.09084 10.7392 5.09066 10.7389 5.09048C8.77074 3.71164 5.91932 3.04505 3.70174 2.79431M10.7408 5.09178L3.70174 2.79431M3.70174 2.79431C3.70122 2.79425 3.7007 2.79419 3.70018 2.79413C3.26718 2.7452 2.78842 3.10974 2.78842 3.75455V4.00455V15.0579V15.3079L3.70174 2.79431ZM3.70392 18.549C3.70267 18.5489 3.70143 18.5487 3.70018 18.5486L3.45176 18.5205L3.45282 18.5111C2.0416 18.2422 0.876251 17.0695 0.759598 15.5579H0.75V15.3079V15.0579V4.00455V3.75455V3.50455H0.760131C0.88092 2.01482 2.06976 0.705653 3.67946 0.750932L3.68063 0.740526L3.92877 0.768566C3.92887 0.768577 3.92896 0.768587 3.92905 0.768598L4.17747 0.796668L4.17732 0.797963C6.42024 1.07505 9.422 1.76487 11.703 3.28073L11.7048 3.2782L11.9083 3.42084C11.9087 3.42111 11.9091 3.42138 11.9095 3.42165L3.70392 18.549ZM3.70392 18.549C5.92148 18.8 8.77213 19.4667 10.7397 20.8455L10.9445 20.9889L10.9525 20.9774C11.2114 21.1185 11.4915 21.2044 11.7753 21.2361M3.70392 18.549L11.7753 21.2361M11.7753 21.2361V21.25H12.0253H12.2753V21.2191C12.6373 21.1278 12.9223 20.8428 13.0136 20.4808H13.0445V20.2308V19.9808V5.25124C13.0625 5.24208 13.0803 5.23266 13.0981 5.22299L13.1062 5.23449L13.3109 5.09103L13.3109 5.09102C13.3117 5.09049 13.3124 5.08996 13.3132 5.08943C15.2817 3.71103 18.1329 3.04473 20.3502 2.79416C20.3503 2.79415 20.3504 2.79414 20.3505 2.79413C20.3505 2.79412 20.3506 2.79411 20.3506 2.79411C20.7836 2.7453 21.2622 3.10982 21.2622 3.75455V4.00455V12.8015V13.0515V13.3015H21.2931C21.4046 13.7435 21.8048 14.0707 22.2814 14.0707C22.758 14.0707 23.1583 13.7435 23.2697 13.3015H23.3006V13.0515V12.8015V4.00455V3.75455V3.50455H23.2905C23.1697 2.01482 21.9809 0.705654 20.3712 0.750932L20.37 0.740525L20.1216 0.768598C20.1211 0.768652 20.1207 0.768705 20.1202 0.768759L19.8732 0.796668L19.8733 0.797962C17.6304 1.07505 14.6286 1.76486 12.3476 3.28073L12.3459 3.2782L12.1418 3.42115C12.1416 3.42131 12.1414 3.42148 12.1411 3.42165L11.7753 21.2361ZM12.1411 3.42167C12.1411 3.42167 12.1411 3.42166 12.1411 3.42166L12.1411 3.42167ZM12.1411 3.42167C12.0736 3.46896 11.977 3.46895 11.9095 3.42166L12.1411 3.42167ZM4.75024 10.2465C4.29637 10.289 3.91179 10.6344 3.83884 11.1055L4.75024 10.2465ZM4.75024 10.2465L4.75496 10.2161L5.00142 10.2542M4.75024 10.2465L5.00142 10.2542M5.00142 10.2542C5.00162 10.2542 5.00182 10.2543 5.00202 10.2543M5.00142 10.2542L5.00202 10.2543M5.00202 10.2543C5.00406 10.2546 5.00609 10.2549 5.00812 10.2552L5.24907 10.2925L5.24888 10.2938C5.7827 10.3819 6.33925 10.492 6.90382 10.6275L6.90419 10.626L7.14656 10.6872L7.14663 10.6872L7.38899 10.7484L7.38143 10.7784C7.78274 10.9946 8.0021 11.4626 7.8855 11.9248C7.8855 11.9248 7.8855 11.9248 7.8855 11.9248L7.64309 11.8637L5.00202 10.2543ZM17.1598 16.1283V16.3783V19.9808V20.2308V20.4808H17.1907C17.3021 20.9228 17.7024 21.25 18.179 21.25C18.6556 21.25 19.0558 20.9228 19.1673 20.4808H19.1982V20.2308V19.9808V16.3783V16.1283V15.8783H19.1673C19.0558 15.4363 18.6556 15.1091 18.179 15.1091C17.7024 15.1091 17.3021 15.4363 17.1907 15.8783H17.1598V16.1283ZM4.93711 8.20447L4.97517 7.95876C6.09192 8.14419 7.29773 8.42963 8.43709 8.84798L8.3477 9.07914L8.58087 9.16931C7.31171 8.67853 5.93909 8.35974 4.69159 8.16645L4.93711 8.20447ZM3.83884 11.1055C3.76589 11.5765 4.02798 12.0221 4.44773 12.1999L4.443 12.2304L4.69006 12.2687C5.31783 12.3659 5.9799 12.4953 6.64613 12.6633C6.64673 12.6635 6.64734 12.6636 6.64794 12.6638L6.64795 12.6638L6.89034 12.7249L6.8979 12.695L3.83884 11.1055ZM18.179 14.3271C18.8835 14.3271 19.4546 13.756 19.4546 13.0515C19.4546 12.347 18.8835 11.7759 18.179 11.7759C17.4745 11.7759 16.9034 12.347 16.9034 13.0515C16.9034 13.756 17.4745 14.3271 18.179 14.3271Z" fill="#F98D3C" stroke="#F98D3C" stroke-width="0.5"/>
</svg>
