<svg width="25" height="23" viewBox="0 0 25 23" fill="none" xmlns="http://www.w3.org/2000/svg">
<path d="M12.4848 23C10.4926 23.0007 8.52979 22.558 6.76354 21.7097C6.42712 21.5621 6.04134 21.5413 5.68855 21.6519L3.40028 22.3099C3.03686 22.4145 2.64884 22.4231 2.28039 22.3346C1.91194 22.2462 1.57786 22.0643 1.31617 21.8097C1.05447 21.5551 0.875683 21.2379 0.800144 20.8943C0.724604 20.5508 0.75535 20.1946 0.888882 19.8663L1.60709 18.1042C1.68085 17.935 1.71406 17.7532 1.70443 17.5711C1.6948 17.389 1.64257 17.211 1.55131 17.0493C0.550711 15.3779 0.0177331 13.5036 0.000434946 11.5952C-0.0168632 9.6869 0.482062 7.80461 1.45222 6.11811C2.42238 4.43162 3.83325 2.99394 5.55762 1.93474C7.28199 0.875546 9.26561 0.228133 11.3296 0.0508891C14.5034 -0.224772 17.6717 0.626647 20.186 2.4309C22.7003 4.23516 24.3705 6.85582 24.8549 9.75656C25.3392 12.6573 24.6011 15.6188 22.7915 18.035C20.9819 20.4511 18.2377 22.1393 15.1205 22.7539C14.2533 22.9182 13.3702 23.0007 12.4848 23ZM6.17317 19.9765C6.65828 19.9748 7.13668 20.0808 7.56774 20.2857C9.0515 20.99 10.6931 21.3663 12.3623 21.3848C14.0316 21.4033 15.6825 21.0635 17.1843 20.3924C18.6861 19.7212 19.9973 18.7372 21.0141 17.5183C22.0308 16.2994 22.7251 14.8792 23.0418 13.3703C23.3586 11.8613 23.2891 10.3052 22.8388 8.82535C22.3886 7.34547 21.57 5.98251 20.448 4.84457C19.326 3.70664 17.9314 2.82502 16.3749 2.26964C14.8183 1.71427 13.1426 1.50041 11.4807 1.64502C9.70562 1.79922 8.00009 2.35755 6.51779 3.26971C5.03548 4.18187 3.82296 5.4192 2.98946 6.87022C2.15597 8.32124 1.72769 9.94037 1.74321 11.5817C1.75873 13.2231 2.21756 14.8351 3.07837 16.2725C3.2924 16.6371 3.41781 17.0402 3.4459 17.4538C3.474 17.8674 3.40411 18.2817 3.24107 18.668L2.52054 20.4291C2.50169 20.476 2.49746 20.5269 2.50835 20.5759C2.51923 20.625 2.54478 20.6702 2.58213 20.7066C2.61947 20.743 2.66711 20.769 2.71968 20.7818C2.77225 20.7946 2.82766 20.7936 2.87964 20.7789L5.16907 20.1209C5.49387 20.0261 5.83244 19.9774 6.17317 19.9765Z" fill="#8C5B93"/>
<path d="M12.4918 17.6506C12.2606 17.6506 12.0389 17.566 11.8754 17.4155C11.712 17.2651 11.6201 17.061 11.6201 16.8481V10.6963C11.6201 10.4835 11.712 10.2794 11.8754 10.1289C12.0389 9.9784 12.2606 9.89386 12.4918 9.89386C12.7229 9.89386 12.9446 9.9784 13.1081 10.1289C13.2715 10.2794 13.3634 10.4835 13.3634 10.6963V16.8481C13.3634 17.061 13.2715 17.2651 13.1081 17.4155C12.9446 17.566 12.7229 17.6506 12.4918 17.6506Z" fill="#8C5B93"/>
<path d="M12.4918 8.82397C13.2941 8.82397 13.9444 8.22522 13.9444 7.48661C13.9444 6.74801 13.2941 6.14925 12.4918 6.14925C11.6895 6.14925 11.0391 6.74801 11.0391 7.48661C11.0391 8.22522 11.6895 8.82397 12.4918 8.82397Z" fill="#8C5B93"/>
</svg>
