<?xml version="1.0" encoding="utf-8"?>
<!-- Generator: Adobe Illustrator 26.3.1, SVG Export Plug-In . SVG Version: 6.00 Build 0)  -->
<svg version="1.1" id="Слой_1" xmlns="http://www.w3.org/2000/svg" xmlns:xlink="http://www.w3.org/1999/xlink" x="0px" y="0px"
	 viewBox="0 0 116.06 116.05" style="enable-background:new 0 0 116.06 116.05;" xml:space="preserve">
<style type="text/css">
	.st0{fill:#64C0EE;}
	.st1{fill:#FFFFFF;}
	.st2{fill:#ADDDF7;}
</style>
<g>
	<path class="st0" d="M116.06,57.96c0.02,32.05-25.88,58.13-58.08,58.09C26.21,116.01-0.02,90.62,0,57.98
		C0.02,25.73,25.72-0.01,58.08,0C90.43,0.01,115.97,26.04,116.06,57.96z M58.13,3.96C28.15,3.86,3.95,28.26,3.95,57.95
		c0,29.78,23.74,54.14,54,54.17c30.2,0.03,54.19-24.03,54.18-54.11C112.12,27.69,87.72,4.02,58.13,3.96z"/>
	<path class="st1" d="M58.13,3.96c29.59,0.06,53.99,23.73,54,54.05c0.01,30.09-23.98,54.15-54.18,54.11
		c-30.25-0.03-54-24.4-54-54.17C3.95,28.26,28.15,3.86,58.13,3.96z M84.46,13.99c-0.14-0.19-0.37-0.47-0.52-0.34
		c-0.26,0.23,0.05,0.45,0.21,0.65c0.1,1.38-0.42,2.49-1.49,3.34c-0.28,0.22-0.74,0.55-0.96,0.35c-0.89-0.84-2.64-0.62-2.84-2.31
		c-0.05-0.39-0.22-0.81-0.8-0.6c-0.99,0.36-1.63-0.13-2.07-0.93c-0.46-0.83,0.2-1.34,0.68-1.86c0.91-0.98,0.82-1.81-0.39-2.27
		c-4.8-1.81-9.76-2.88-14.89-3.18c-0.57-0.03-0.96,0.17-1.35,0.58c-1.73,1.81-3.08,1.81-4.87,0.01c-0.36-0.36-0.7-0.64-1.23-0.56
		c-1.42,0.2-2.84,0.39-4.25,0.58c-1.15,0.16-0.67,1.28-1.09,1.88c-0.6,0.86-0.34,1.65,0.3,2.39c0.28,0.33,0.55,0.69,0.77,1.06
		c0.57,1.01,0.37,1.9-0.51,2.66c-1.11,0.96-2.34,0.85-3.6,0.43c-0.61-0.2-1.09-0.35-1.37,0.54c-0.56,1.77-1.56,2.18-3.3,1.53
		c-0.25-0.09-0.55-0.09-0.82-0.07c-1.83,0.12-3.55,0.62-4.94,1.85c-0.99,0.87-1.85,1.86-3.26,2.07c-0.35,0.05-0.61,0.4-0.76,0.73
		c-0.79,1.7-2.2,2.78-3.67,3.83c-0.58,0.41-1.27,0.91-1.13,1.71c0.3,1.7-0.76,2.66-1.78,3.66c-0.81,0.79-1.39,0.73-2.08-0.16
		c-0.78-1-1.11-2.19-1.51-3.36c-0.14-0.41-0.24-1.04-0.93-0.84c-0.61,0.18-1.17,0.03-1.76-0.09c-0.44-0.09-0.98-0.25-1.34,0.22
		c-1.41,1.83-2.69,3.76-3.74,5.83c-0.5,0.99,0.39,2.69,1.25,2.67c1.6-0.03,2.33,0.95,1.88,2.49c-0.26,0.88-0.81,1.64-0.96,2.57
		c-0.09,0.57-0.01,0.98,0.58,1.1c0.78,0.16,1.09,0.74,1.36,1.37c0.4,0.95,0.81,1.91,1.2,2.87c0.42,1.04,1.39,1.59,2.25,2.03
		c0.7,0.36,1.18-0.65,1.61-1.16c1.15-1.39,2.52-1.37,4-0.81c1.24,0.47,2.49,0.82,3.82,0.88c1.93,0.09,3.56,0.85,4.74,2.4
		c0.39,0.51,0.71,0.71,1.38,0.55c1.22-0.29,2.34,0.01,3.39,0.74c2.73,1.89,4.86,4.23,5.9,7.44c0.22,0.69,0.54,1.08,1.38,0.89
		c0.73-0.17,1.32,0.23,1.74,0.82c0.48,0.68,0.98,1.36,1.4,2.08c0.34,0.58,0.67,0.83,1.42,0.69c2.45-0.47,4.31,0.33,5.59,2.6
		c0.7,1.25,1,2.59,1.45,3.91c0.49,1.45,0.09,2.73-0.72,3.95c-0.59,0.89-1.34,1.62-2.25,2.11c-1.6,0.87-2.42,2.23-2.88,3.91
		c-0.12,0.46-0.32,0.9-0.45,1.36c-0.44,1.57-1.54,2.44-3.08,2.61c-1,0.11-1.7,0.57-2.39,1.19c-1.24,1.12-2.49,2.23-3.73,3.36
		c-0.23,0.21-0.53,0.46-0.59,0.73c-0.46,1.98-1.89,3.26-3.17,4.69c-0.91,1.02-1.66,2.21-0.97,3.78c0.49,1.09,0.06,2.12-0.68,2.99
		c-0.52,0.62-0.65,1.2-0.23,1.95c0.3,0.55,0.35,1.16,0.2,1.84c-0.19,0.88,0.06,1.59,1.12,2.01c8.78,3.5,17.82,4.59,27.19,3.19
		c9.59-1.43,18.05-5.34,25.47-11.53c1.02-0.85,2.37-1.55,2.52-3.17c0.11-1.19,0.5-2.33,0.89-3.46c0.12-0.34,0.29-0.73-0.08-0.98
		c-1.62-1.13-0.83-2.45-0.44-3.84c0.65-2.34,2.61-3.86,3.61-6.02c0.51-1.11,0.69-2.04,0.52-3.12c-0.17-1.06-0.39-2.11-0.66-3.15
		c-0.16-0.6-0.12-1.19,0.25-1.59c0.65-0.7,0.84-1.47,0.86-2.38c0.01-0.54,0.11-1.19,0.43-1.6c1.08-1.41,0.57-2.89,0.35-4.36
		c-0.15-0.99-0.6-1.9-1.02-2.8c-0.32-0.69-0.59-1.39-0.53-2.18c0.09-1.21-0.52-1.97-1.64-2.31c-1.12-0.33-2.19-0.73-3.02-1.6
		c-0.13-0.13-0.38-0.3-0.5-0.26c-1.39,0.5-2.86-0.16-4.3,0.46c-1.98,0.86-4.07,1.24-5.93-0.49c-0.21-0.19-0.59-0.2-0.9-0.29
		c-2.93-0.91-4.28-3.21-3.55-6.15c0.34-1.39,0.77-2.76,1.2-4.13c0.18-0.56,0.2-1.05,0-1.62c-1.14-3.3,0.38-7.33,3.42-9.07
		c0.65-0.37,1.09-0.81,1.25-1.6c0.34-1.66,1.36-2.65,3.1-2.83c0.87-0.09,1.73-0.27,2.6-0.33c2.75-0.19,5.51-0.43,8.08,0.93
		c0.95,0.5,1.9,1.01,2.83,1.56c0.35,0.21,0.67,0.31,0.97,0.01c0.34-0.34-0.06-0.58-0.21-0.81c-0.77-1.16-1.57-2.3-2.35-3.46
		c-0.37-0.55-0.74-0.83-1.47-0.54c-1.18,0.47-2.35,0.1-3.48-0.33c-0.73-0.28-1.15-0.77-0.82-1.58c0.23-0.56,0.06-0.93-0.37-1.23
		c-0.54-0.38-0.79,0.14-1.08,0.42c-0.6,0.58-1.22,0.82-1.86,0.15c-0.49-0.52-0.65-0.23-0.94,0.2c-2.33,3.38-4.21,3.59-7.33,1.25
		c-0.06-0.05-0.13-0.09-0.19-0.14c-1.32-1.09-1.59-2.03-0.94-3.19c0.96-1.68,1.96-2.12,3.62-1.56c0.28,0.1,0.63,0.4,0.81-0.05
		c0.45-1.09,1.35-1.08,2.3-1.04c0.36,0.02,0.73,0.01,0.73-0.54c0.01-1.54,0.02-3.03-1.8-3.71C85.65,14.83,85.08,14.36,84.46,13.99z
		 M29.58,100.97c-0.57-2.06-1.03-3.87-2.47-5.22c-0.99-0.91-1.26-2.07-1.1-3.38c0.21-1.73-0.01-3.41-0.67-5.02
		c-0.54-1.32-0.63-2.61,0.17-3.88c0.16-0.25,0.2-0.59,0.26-0.9c0.64-3.31-1.01-6.12-1.97-9.08c-0.04-0.13-0.19-0.27-0.32-0.31
		c-1.53-0.43-2.42-1.78-3.67-2.6c-1.04-0.69-2.2-1.68-2.11-3.02c0.11-1.62-0.25-3.01-0.62-4.55c-0.55-2.25,0.07-4.68,1-6.85
		c0.42-0.97,0.53-1.88,0.52-2.87c-0.01-0.56-0.22-0.9-0.84-0.94c-0.75-0.05-1.66-0.31-1.81-0.97c-0.55-2.44-2.12-4.36-3.11-6.56
		c-0.13-0.29-0.12-0.63-0.25-0.92c-0.29-0.65-0.59-1.3-0.94-1.93c-0.28-0.51-0.74-0.68-1.33-0.55c-0.52,0.12-0.9,0.29-1.1,0.91
		c-2.75,8.51-3.3,17.18-1.53,25.93c2.36,11.68,8.14,21.42,17.16,29.23C26.29,98.73,27.79,99.89,29.58,100.97z"/>
	<path class="st0" d="M84.46,13.99c0.61,0.37,1.19,0.84,1.85,1.08c1.83,0.68,1.81,2.18,1.8,3.71c0,0.55-0.36,0.55-0.73,0.54
		c-0.95-0.04-1.85-0.04-2.3,1.04c-0.19,0.45-0.53,0.15-0.81,0.05c-1.65-0.56-2.66-0.13-3.62,1.56c-0.66,1.15-0.38,2.1,0.94,3.19
		c0.06,0.05,0.13,0.09,0.19,0.14c3.12,2.34,5,2.13,7.33-1.25c0.3-0.43,0.45-0.72,0.94-0.2c0.64,0.67,1.27,0.43,1.86-0.15
		c0.29-0.28,0.53-0.8,1.08-0.42c0.43,0.3,0.6,0.68,0.37,1.23c-0.33,0.8,0.09,1.29,0.82,1.58c1.13,0.44,2.29,0.8,3.48,0.33
		c0.74-0.29,1.11-0.01,1.47,0.54c0.78,1.16,1.58,2.3,2.35,3.46c0.15,0.23,0.55,0.47,0.21,0.81c-0.3,0.3-0.61,0.2-0.97-0.01
		c-0.92-0.55-1.87-1.06-2.83-1.56c-2.57-1.36-5.33-1.12-8.08-0.93c-0.87,0.06-1.73,0.24-2.6,0.33c-1.74,0.18-2.76,1.17-3.1,2.83
		c-0.16,0.79-0.6,1.22-1.25,1.6c-3.03,1.74-4.56,5.77-3.42,9.07c0.2,0.57,0.17,1.06,0,1.62c-0.44,1.36-0.86,2.74-1.2,4.13
		c-0.72,2.94,0.62,5.24,3.55,6.15c0.3,0.09,0.69,0.1,0.9,0.29c1.85,1.73,3.94,1.35,5.93,0.49c1.44-0.62,2.91,0.03,4.3-0.46
		c0.12-0.04,0.38,0.13,0.5,0.26c0.84,0.87,1.9,1.27,3.02,1.6c1.12,0.33,1.73,1.1,1.64,2.31c-0.06,0.79,0.21,1.49,0.53,2.18
		c0.42,0.91,0.87,1.81,1.02,2.8c0.22,1.47,0.73,2.95-0.35,4.36c-0.31,0.41-0.42,1.05-0.43,1.6c-0.02,0.91-0.21,1.68-0.86,2.38
		c-0.37,0.4-0.41,0.99-0.25,1.59c0.27,1.04,0.5,2.09,0.66,3.15c0.17,1.09-0.01,2.01-0.52,3.12c-0.99,2.16-2.95,3.68-3.61,6.02
		c-0.39,1.39-1.19,2.71,0.44,3.84c0.37,0.26,0.2,0.64,0.08,0.98c-0.39,1.13-0.78,2.27-0.89,3.46c-0.15,1.62-1.5,2.32-2.52,3.17
		c-7.42,6.18-15.88,10.09-25.47,11.53c-9.36,1.4-18.4,0.31-27.19-3.19c-1.06-0.42-1.31-1.13-1.12-2.01c0.14-0.68,0.1-1.3-0.2-1.84
		c-0.42-0.75-0.29-1.33,0.23-1.95c0.74-0.87,1.16-1.9,0.68-2.99c-0.7-1.56,0.05-2.76,0.97-3.78c1.28-1.43,2.71-2.7,3.17-4.69
		c0.06-0.28,0.36-0.52,0.59-0.73c1.24-1.13,2.48-2.24,3.73-3.36c0.69-0.62,1.39-1.08,2.39-1.19c1.54-0.17,2.64-1.04,3.08-2.61
		c0.13-0.46,0.32-0.9,0.45-1.36c0.45-1.68,1.28-3.04,2.88-3.91c0.9-0.49,1.65-1.23,2.25-2.11c0.82-1.23,1.21-2.5,0.72-3.95
		c-0.44-1.31-0.75-2.66-1.45-3.91c-1.27-2.27-3.13-3.07-5.59-2.6c-0.75,0.14-1.08-0.11-1.42-0.69c-0.42-0.72-0.91-1.4-1.4-2.08
		c-0.42-0.59-1.01-0.99-1.74-0.82c-0.84,0.19-1.16-0.2-1.38-0.89c-1.04-3.21-3.18-5.55-5.9-7.44c-1.05-0.73-2.18-1.03-3.39-0.74
		c-0.67,0.16-1-0.04-1.38-0.55c-1.18-1.56-2.81-2.31-4.74-2.4c-1.33-0.06-2.58-0.41-3.82-0.88c-1.48-0.56-2.86-0.58-4,0.81
		c-0.42,0.51-0.91,1.52-1.61,1.16c-0.86-0.44-1.83-0.99-2.25-2.03c-0.39-0.96-0.8-1.91-1.2-2.87c-0.27-0.64-0.58-1.21-1.36-1.37
		c-0.59-0.12-0.67-0.53-0.58-1.1c0.15-0.93,0.7-1.69,0.96-2.57c0.45-1.54-0.29-2.52-1.88-2.49c-0.86,0.02-1.75-1.68-1.25-2.67
		c1.04-2.06,2.32-3.99,3.74-5.83c0.36-0.46,0.9-0.31,1.34-0.22c0.59,0.12,1.14,0.27,1.76,0.09c0.69-0.2,0.78,0.43,0.93,0.84
		c0.4,1.17,0.73,2.36,1.51,3.36c0.68,0.88,1.27,0.95,2.08,0.16c1.02-1,2.08-1.96,1.78-3.66c-0.14-0.79,0.55-1.3,1.13-1.71
		c1.48-1.04,2.89-2.13,3.67-3.83c0.15-0.33,0.41-0.67,0.76-0.73c1.41-0.21,2.27-1.2,3.26-2.07c1.39-1.23,3.11-1.73,4.94-1.85
		c0.27-0.02,0.57-0.02,0.82,0.07c1.74,0.65,2.74,0.24,3.3-1.53c0.28-0.89,0.75-0.74,1.37-0.54c1.27,0.42,2.49,0.53,3.6-0.43
		c0.88-0.76,1.08-1.65,0.51-2.66c-0.21-0.38-0.49-0.73-0.77-1.06c-0.63-0.74-0.9-1.53-0.3-2.39c0.42-0.6-0.06-1.72,1.09-1.88
		c1.42-0.2,2.84-0.38,4.25-0.58c0.54-0.08,0.87,0.2,1.23,0.56c1.78,1.8,3.13,1.8,4.87-0.01c0.39-0.41,0.77-0.62,1.35-0.58
		c5.13,0.29,10.09,1.36,14.89,3.18c1.21,0.46,1.3,1.29,0.39,2.27c-0.47,0.51-1.13,1.03-0.68,1.86c0.44,0.8,1.08,1.29,2.07,0.93
		c0.57-0.21,0.75,0.2,0.8,0.6c0.2,1.69,1.95,1.47,2.84,2.31c0.22,0.2,0.67-0.12,0.96-0.35c1.08-0.85,1.59-1.96,1.49-3.34
		C84.26,14.2,84.36,14.09,84.46,13.99z"/>
	<path class="st0" d="M29.58,100.97c-1.79-1.08-3.3-2.24-4.73-3.48c-9.02-7.8-14.8-17.55-17.16-29.23
		c-1.77-8.75-1.23-17.41,1.53-25.93c0.2-0.62,0.57-0.79,1.1-0.91c0.58-0.14,1.04,0.04,1.33,0.55c0.35,0.62,0.65,1.27,0.94,1.93
		c0.13,0.29,0.12,0.63,0.25,0.92c1,2.2,2.56,4.12,3.11,6.56c0.15,0.66,1.06,0.92,1.81,0.97c0.61,0.04,0.83,0.38,0.84,0.94
		c0.01,0.99-0.1,1.9-0.52,2.87c-0.92,2.17-1.55,4.59-1,6.85c0.38,1.54,0.74,2.93,0.62,4.55c-0.09,1.34,1.06,2.33,2.11,3.02
		c1.26,0.83,2.14,2.18,3.67,2.6c0.13,0.04,0.28,0.18,0.32,0.31c0.95,2.96,2.61,5.77,1.97,9.08c-0.06,0.31-0.1,0.65-0.26,0.9
		c-0.8,1.27-0.71,2.56-0.17,3.88c0.66,1.61,0.88,3.3,0.67,5.02c-0.16,1.31,0.11,2.47,1.1,3.38C28.56,97.09,29.01,98.91,29.58,100.97
		z"/>
	<path class="st2" d="M84.46,13.99c-0.1,0.1-0.2,0.21-0.31,0.31c-0.16-0.2-0.47-0.42-0.21-0.65C84.09,13.52,84.33,13.8,84.46,13.99z
		"/>
</g>
</svg>
