<svg width="1500" height="700" xmlns="http://www.w3.org/2000/svg">
                              <defs>
                                  <linearGradient x1="92.827%" y1="0%" x2="53.422%" y2="80.087%" id="hero-shape-aa">
                                      <stop stop-color="#e6e7c4" offset="0%"></stop>
                                      <stop stop-color="#e6e7c4" stop-opacity="1" offset="100%"></stop>
                                  </linearGradient>
                                  <linearGradient x1="92.827%" y1="0%" x2="23.406%" y2="40.12%" id="hero-shape-bb">
                                      <stop stop-color="#E69538" stop-opacity="0" offset="0%"></stop>
                                      <stop stop-color="#F57882" stop-opacity="0.1" offset="80.532%"></stop>
                                      <stop stop-color="#FFC54E" stop-opacity="0.2" offset="100%"></stop>
                                  </linearGradient>
                                  <linearGradient x1="90.483%" y1="5.903%" x2="23.42%" y2="38.124%" id="hero-shape-dd">
                                      <stop stop-color="#FFC54E" stop-opacity="0" offset="0%"></stop>
                                      <stop stop-color="#FFC54E" stop-opacity="0.1" offset="80.532%"></stop>
                                      <stop stop-color="#FFC54E" stop-opacity=".3" offset="100%"></stop>
                                  </linearGradient>
                                  <linearGradient x1="90.037%" y1="16.963%" x2="14.582%" y2="38.557%" id="hero-shape-ee">
                                      <stop stop-color="#F57882" stop-opacity="0" offset="0%"></stop>
                                      <stop stop-color="#FFC54E" stop-opacity=".15" offset="42.952%"></stop>
                                      <stop stop-color="#F57882" stop-opacity=".25" offset="100%"></stop>
                                  </linearGradient>
                              </defs>
                              <g fill="none" fill-rule="evenodd">
                                  <g transform="translate(191 416)">
                                <g class="is-moving-object is-translating" data-translating-factor="50" style="transform: translate(-26.47px, 2.83px); transition: transform 1s ease-out 0s; transform-style: preserve-3d; backface-visibility: hidden;">

                                </g>
                                <g class="is-moving-object is-translating" data-translating-factor="70" style="transform: translate(-18.9071px, 2.02143px); transition: transform 1s ease-out 0s; transform-style: preserve-3d; backface-visibility: hidden;">
                                        <path d="M 129.7445 -6.9011 c 9.0453 -13.3342 17.5075 -25.6582 25.8336 -38.1356 c 4.1101 -6.0822 8.3887 -12.0672 11.793 -18.482 c 1.5078 -2.8707 2.1524 -6.8384 1.6202 -10.0638 c -3.605 -20.7127 -7.7088 -41.3392 -11.547 -62.0369 c -1.806 -9.5727 3.2298 -14.1477 12.5895 -11.4376 c 16.2953 4.6941 32.4934 9.5566 48.7325 14.2184 c 4.9367 1.4285 9.9857 2.9219 15.0543 3.6035 c 2.7631 0.3981 6.0858 -0.3024 8.599 -1.5451 c 18.5774 -9.6266 37.2109 -19.2208 55.3978 -29.5967 c 8.8959 -5.0401 16.1866 0.2167 16.1384 9.2427 c -0.0282 20.7849 0.8113 41.6219 1.7955 62.4676 c 0.1457 3.3764 1.9923 7.4355 4.3771 9.7851 c 14.2997 14.2419 28.5993 28.4838 43.6181 41.8688 c 9.2867 8.2798 8.1919 15.8784 -4.5033 20.3712 c -18.0971 6.462 -36.0196 13.3989 -54.3065 19.1528 c -7.9603 2.5125 -10.6304 8.3037 -13.6807 14.6237 c -8.2349 17.244 -16.3812 34.4643 -24.8406 51.5788 c -3.9013 7.9237 -10.5269 8.5131 -15.9454 1.5687 c -13.1957 -16.6723 -26.3353 -33.3123 -39.3777 -50.1206 c -2.8851 -3.686 -6.2285 -5.5415 -10.8395 -6.1086 c -21.0065 -2.6254 -41.9481 -5.363 -62.9135 -8.1891 C 129.5874 4.9053 126.4484 -1.3217 129.7445 -6.9011 z" fill="url(#hero-shape-bb)"></path>
                                </g>
                                <g class="is-moving-object is-translating" data-translating-factor="80" style="transform: translate(-16.5437px, 1.76875px); transition: transform 1s ease-out 0s; transform-style: preserve-3d; backface-visibility: hidden;">
                                        <path d="M -73.0622 -206.8844 c 0.8541 -11.7688 1.7084 -22.6835 2.4202 -33.6457 c 0.3796 -5.3624 0.9016 -10.7249 0.7118 -16.0398 c -0.095 -2.3728 -1.1389 -5.1251 -2.6575 -6.976 c -9.8706 -11.8163 -20.0262 -23.3953 -30.0391 -35.1168 c -4.6505 -5.4099 -3.1321 -10.1554 3.7964 -11.8638 c 12.0536 -2.9896 24.1072 -5.8369 36.1134 -8.8267 c 3.6541 -0.9016 7.403 -1.8032 10.8672 -3.2269 c 1.8982 -0.7593 3.7489 -2.4202 4.8878 -4.1287 c 8.2572 -12.9079 16.5618 -25.8156 24.2971 -39.0556 c 3.7964 -6.4539 10.3452 -5.7896 13.6197 -0.0475 c 7.5928 13.1925 15.7552 26.1004 24.0124 38.9608 c 1.3287 2.088 3.9862 3.9862 6.359 4.6032 c 14.284 3.7964 28.5681 7.5928 42.9944 10.5824 c 8.9215 1.8507 11.0097 7.0708 4.6032 14.5688 c -9.1115 10.7249 -17.938 21.6871 -27.429 32.0323 c -4.1287 4.5082 -3.7014 9.1588 -3.3219 14.284 c 1.0914 13.9518 2.2305 27.8563 3.1321 41.8081 c 0.4271 6.4539 -3.5591 9.2538 -9.5385 6.8335 c -14.4738 -5.7421 -28.9002 -11.4842 -43.3265 -17.3686 c -3.1796 -1.2814 -5.9794 -1.2339 -9.1115 0.095 c -14.284 6.0269 -28.5681 11.9588 -42.8995 17.8432 C -68.8387 -199.3391 -73.1097 -202.1389 -73.0622 -206.8844 z" fill="url(#hero-shape-dd)"></path>
                                </g>
                                <g class="is-moving-object is-translating" data-translating-factor="100" style="transform: translate(-13.235px, 1.415px); transition: transform 1s ease-out 0s; transform-style: preserve-3d; backface-visibility: hidden;">
                                  <path d="M -536.9909 65.9413 c 13.8393 -20.4013 26.7865 -39.257 39.5254 -58.3475 c 6.2885 -9.3058 12.8347 -18.4628 18.0433 -28.2775 c 2.3069 -4.3922 3.2932 -10.4628 2.4789 -15.3976 c -5.5156 -31.6904 -11.7945 -63.249 -17.6669 -94.9165 c -2.7632 -14.6462 4.9416 -21.646 19.2619 -17.4995 c 24.9318 7.182 49.7149 14.6216 74.5607 21.7542 c 7.5532 2.1856 15.2781 4.4705 23.0331 5.5134 c 4.2275 0.6091 9.3113 -0.4627 13.1565 -2.364 c 28.4234 -14.7287 56.9327 -29.4078 84.7586 -45.283 c 13.6107 -7.7114 24.7655 0.3316 24.6918 14.1413 c -0.0431 31.8009 1.2413 63.6815 2.7471 95.5754 c 0.2229 5.1659 3.0482 11.3763 6.697 14.9712 c 21.8785 21.7901 43.7569 43.5802 66.7357 64.0593 c 14.2087 12.6681 12.5336 24.294 -6.89 31.1679 c -27.6886 9.8869 -55.11 20.5003 -83.0889 29.3038 c -12.1793 3.8441 -16.2645 12.7047 -20.9315 22.3743 c -12.5994 26.3833 -25.0632 52.7304 -38.0061 78.9156 c -5.969 12.1233 -16.1062 13.025 -24.3965 2.4001 c -20.1894 -25.5086 -40.293 -50.9678 -60.2479 -76.6845 c -4.4142 -5.6396 -9.5296 -8.4785 -16.5844 -9.3462 c -32.1399 -4.0169 -64.1806 -8.2054 -96.2577 -12.5293 C -537.2313 84.0051 -542.0339 74.4778 -536.9909 65.9413 z" fill="url(#hero-shape-ee)" transform="matrix(-1 0 0 1 597.61 0)"></path>
                                </g>
                              </g>
                              </g>
                          </svg>