<svg width="24" height="20" viewBox="0 0 24 20" fill="none" xmlns="http://www.w3.org/2000/svg">
<path fill-rule="evenodd" clip-rule="evenodd" d="M10.9985 15.8029C12.226 15.8029 13.2225 16.7432 13.2225 17.9015C13.2225 19.0597 12.226 20 10.9985 20C9.771 20 8.77445 19.0597 8.77445 17.9015C8.77445 16.7432 9.771 15.8029 10.9985 15.8029ZM19.884 15.8029C21.1115 15.8029 22.1081 16.7432 22.1081 17.9015C22.1081 19.0597 21.1115 20 19.884 20C18.6565 20 17.66 19.0597 17.66 17.9015C17.66 16.7432 18.6565 15.8029 19.884 15.8029ZM5.33884 2.80354L8.5424 13.3993C8.87474 14.4984 9.93926 15.2564 11.1506 15.2564H19.0911C20.7804 15.2564 22.2163 14.0922 22.4706 12.5164C22.7137 11.0099 23.0675 8.81727 23.3311 7.1839C23.4757 6.28754 23.1986 5.37624 22.5724 4.68851C21.9461 4.00083 21.033 3.60522 20.0721 3.60522H8.2029L7.76322 2.15092C7.37834 0.877897 6.1454 0 4.74239 0C3.581 0 2.12922 0 2.12922 0C1.43349 0 0.868652 0.532962 0.868652 1.18943C0.868652 1.84591 1.43349 2.37887 2.12922 2.37887H4.74239C5.01941 2.37887 5.2628 2.55219 5.33884 2.80354ZM8.92218 5.98409H20.0721C20.2981 5.98409 20.5129 6.07715 20.6602 6.23887C20.8075 6.40063 20.8726 6.61497 20.8387 6.82583L19.9781 12.1583C19.9114 12.5719 19.5345 12.8775 19.0911 12.8775H11.1506C11.0653 12.8775 10.9902 12.8241 10.9668 12.7466L8.92218 5.98409Z" fill="#F98D3C"/>
</svg>
