<?xml version="1.0" encoding="UTF-8"?><svg id="_лой_2" xmlns="http://www.w3.org/2000/svg" viewBox="0 0 245.76 245.76"><defs><style>.cls-1{fill:#b05476;}.cls-2{fill:#f8f8eb;}.cls-3{fill:#4f729f;}.cls-4{fill:#6994d0;}.cls-5{fill:#f48db2;}</style></defs><g id="_лой_1-2"><g><path class="cls-2" d="M30.27,93.5c.22-3.6,.31-7.19,.71-10.74,.32-2.86,2.08-4.93,4.45-6.48,1.62-1.06,3.43-1.44,5.33-1.46,1.4-.02,2.8,.02,4.2,0,4.15-.07,8.29-.17,12.44-.22,.83-.01,1.12-.31,1.13-1.13,.04-2.63,.03-5.26,.26-7.88,.22-2.56,.57-5.13,1.11-7.64,1.16-5.29,2.75-10.46,5.24-15.3,1.83-3.57,4.66-5.72,8.73-6.2,3.59-.42,7.16-.3,10.7,.28,3.75,.61,7.55,1.15,11.19,2.19,6.3,1.79,12.02,4.85,17.16,8.94,1.68,1.34,3.27,2.78,4.9,4.17,1.13,.97,2.59,.94,3.81,.1,2.55-1.76,5.1-3.54,7.76-5.14,4.66-2.8,9.58-5.1,14.83-6.55,4.12-1.14,8.34-1.97,12.55-2.74,4.66-.86,9.39-1.03,14.14-1,7.1,.04,11.28,3.71,13.72,9.74,1.32,3.27,1.89,6.72,1.94,10.25,.03,1.83,.3,3.66,.2,5.48-.22,4.2-.58,8.39-.92,12.59-.11,1.38-.3,2.76-.48,4.13-.1,.72,.08,1.17,.85,1.44,3.35,1.17,6.68,2.38,10,3.62,4.62,1.73,9.26,3.44,13.84,5.27,3.28,1.32,5.09,3.9,5.78,7.35,.6,3-.28,5.84-.81,8.71-.83,4.5-1.96,8.94-3.8,13.15-.91,2.08-1.92,4.11-3.83,5.53-.32,.24-.58,.7-.65,1.1-.84,4.96-1.61,9.94-2.45,14.9-.71,4.22-1.43,8.44-2.22,12.65-1.22,6.55-2.45,13.1-3.78,19.62-.77,3.77-1.77,7.49-2.66,11.24-.72,3.05-1.35,6.13-2.15,9.16-.73,2.77-1.79,5.44-4.59,6.8-1.42,.69-2.97,1.12-4.47,1.63-7.62,2.58-15.14,5.48-23.02,7.16-3.05,.65-6.18,1.06-9.29,1.33-2.97,.26-5.97,.27-8.96,.26-9.74-.04-19.48-.14-29.22-.23-6.34-.06-12.69-.12-19.03-.25-4.62-.1-9.23-.27-13.85-.48-4.01-.18-8.02-.39-12.02-.73-4.82-.41-9.57-1.31-13.86-3.64-3.69-2.01-6.4-5.04-8.05-8.99-1.67-4.02-2-8.32-2.75-12.53-.66-3.67-1.24-7.35-1.8-11.03-.55-3.56-1.06-7.13-1.56-10.7-.48-3.45-.96-6.91-1.39-10.37-.3-2.48-.53-4.97-.77-7.46-.32-3.32-.63-6.63-.93-9.95-.11-1.23-.21-2.45-.26-3.68-.1-2.51-.18-5.01-.25-7.52-.09-3.19-.14-6.37-.27-9.56-.01-.36-.36-.88-.68-1.02-3.45-1.42-5-4.3-5.47-7.69-.48-3.46-.5-6.98-.72-10.46Zm100.63-38.83v-.02c-.17,.07-.38,.09-.53,.2-2.31,1.68-4.61,3.38-6.94,5.04-.37,.26-.89,.49-1.33,.46-2.32-.14-4.63-.37-7.16-.58-2.41-3.2-5.8-5.86-9.44-8.24-.1-.12-.19-.27-.31-.35-3.88-2.41-7.95-4.4-12.36-5.65-5.56-1.57-11.24-2.16-17-2.12-2.06,.02-3.72,.88-4.44,2.84-1.51,4.05-3.19,8.08-4.19,12.27-1.33,5.54-1.73,11.25-1.48,16.97,.05,1.22,.29,2.42,.44,3.63l.28,2.59c-.44,.02-.88,.04-1.31,.05-7.65,.1-15.31,.19-22.96,.29-.68,0-1.36,.05-2.02,.15-1.27,.2-1.98,.89-2,2.13-.11,5.29-.19,10.58-.22,15.87,0,.81,.3,1.62,.46,2.43,.05,1.84,.78,2.54,2.61,2.55,1.06,0,2.12,.03,3.19,.05,.07,2.59,.14,5.18,.21,7.77,.06,2.11,.07,4.22,.18,6.33,.33,6,.7,12,1.05,18,.14,1.54,.28,3.08,.44,4.62,.33,3.28,.63,6.56,1.03,9.84,.49,4.01,1.05,8.02,1.62,12.02,.27,1.92,.64,3.83,.97,5.74,.02,.36,0,.72,.06,1.07,.85,5.18,1.7,10.36,2.57,15.54,.23,1.37,.47,2.75,.78,4.1,1.22,5.31,4.81,8.14,9.88,9.43,4.83,1.23,9.77,1.34,14.71,1.54,1.38,.12,2.75,.31,4.14,.36,4.9,.19,9.79,.38,14.69,.48,6.02,.13,12.05,.18,18.07,.25,3.2,.03,6.39,.02,9.59,0,.34,0,.68-.12,1.02-.19,2.83,.06,5.65,.13,8.48,.18,3.71,.06,7.42,.16,11.12,.13,2.9-.03,5.79-.24,8.68-.37,2.23-.35,4.53-.47,6.68-1.11,8.17-2.45,16.3-5.05,24.42-7.67,.6-.2,1.32-.93,1.46-1.53,1.15-4.68,2.17-9.39,3.23-14.08,.74-3.14,1.55-6.26,2.2-9.41,.76-3.71,1.39-7.44,2.07-11.17,.06-.15,.15-.28,.18-.44,1.86-10.76,3.71-21.52,5.57-32.28,.36-2.06,.76-4.12,1.15-6.19,1.94,.46,2.44,.21,3.18-1.41,2.97-5.67,4.15-11.84,4.99-18.1,.21-1.54-.42-2.32-1.91-2.89-6.67-2.54-13.34-5.07-20.02-7.59-3.16-1.19-6.34-2.35-9.52-3.52,.35-2.36,.78-4.7,1.05-7.07,.44-3.83,.88-7.66,1.11-11.51,.18-2.93,.05-5.89,.04-8.83-.02-2.73-.48-5.38-1.4-7.95-1.43-3.97-3.51-5.43-7.69-5.48-5.72-.08-11.35,.62-16.95,1.71-7.93,1.54-15.36,4.38-22.15,8.83l-.26,.27Z"/><path class="cls-5" d="M125.17,202.15c-.34,.07-.68,.19-1.02,.19-3.2,.01-6.39,.02-9.59,0-6.03-.06-12.05-.12-18.07-.25-4.9-.1-9.8-.29-14.69-.48-1.38-.05-2.76-.24-4.14-.36,.01-2.23,.01-4.46,.04-6.68,.04-4.13,.1-8.26,.15-12.39,0-3.88,.02-7.76,.03-11.64,.09-.87,.24-1.74,.25-2.61,.1-4.9,.2-9.8,.23-14.7,.04-5.35,.01-10.69,.02-16.04,.07-.46,.21-.91,.21-1.37,.02-10.17,.03-20.35,.04-30.52,.04-.8,.08-1.61,.12-2.41,.04-1.91,.12-3.81,.11-5.72-.03-5.21-.09-10.42-.14-15.63,16.19-.16,32.39-.32,48.58-.47-.06,2.23-.12,4.47-.17,6.7-.16,7.26-.32,14.53-.47,21.79-.1,4.99-.2,9.98-.28,14.96-.08,4.47-.13,8.93-.2,13.4-.16,2.86-.43,5.71-.47,8.57-.13,8.33-.17,16.65-.25,24.98,0,9.26,0,18.52,0,27.77l-.26,2.94Z"/><path class="cls-5" d="M131.16,54.4c6.79-4.44,14.22-7.29,22.15-8.83,5.59-1.08,11.23-1.78,16.95-1.71,4.17,.06,6.26,1.52,7.69,5.48,.93,2.57,1.39,5.22,1.4,7.95,.02,2.94,.14,5.9-.04,8.83-.23,3.84-.68,7.68-1.11,11.51-.27,2.37-.69,4.71-1.05,7.07-1.2-.43-2.42-.81-3.6-1.29-3.98-1.61-8.01-2.6-12.41-2.44-6.62,.23-13.25,.04-19.87,.01-.75,0-1.51-.08-2.26-.12-1.7-.18-3.4-.34-5.09-.54-2.56-.31-5.12-.64-7.68-.97-.76-.1-1.19-.41-1.11-1.32,.27-3.09,.52-6.18,.68-9.28,.1-1.93,.28-3.92-.04-5.8-.18-1.06-.02-1.69,.58-2.39,.18-.21,.4-.39,.57-.61,1.34-1.76,2.67-3.53,4-5.3v.02l.25-.27Z"/><path class="cls-4" d="M139.01,80.86c.75,.04,1.51,.12,2.26,.12,6.62,.03,13.26,.22,19.87-.01,4.4-.16,8.43,.84,12.41,2.44,1.18,.48,2.4,.86,3.6,1.29,3.17,1.17,6.35,2.33,9.52,3.52,6.68,2.52,13.35,5.06,20.02,7.59,1.49,.57,2.11,1.35,1.91,2.89-.84,6.25-2.02,12.43-4.99,18.1-.09-.08-.16-.19-.27-.23-5.36-2.03-10.71-4.07-16.08-6.07-5.12-1.9-10.24-3.78-15.38-5.6-3.11-1.1-6.09-2.26-9.63-2.16-10.9,.29-21.81,.11-32.72,.11-1.63,0-1.57,0-1.52-1.56,.19-5.9,.34-11.79,.49-17.69,.02-.86,0-1.72-.01-2.58,1.56,0,3.11,0,4.67-.03,1.95-.03,3.89-.09,5.84-.14Z"/><path class="cls-3" d="M128.49,81.03c0,.86,.03,1.72,.01,2.58-.16,5.9-.31,11.79-.49,17.69-.05,1.56-.11,1.56,1.52,1.56,10.91,0,21.82,.18,32.72-.11,3.54-.09,6.52,1.07,9.63,2.16,5.15,1.81,10.27,3.7,15.38,5.6,5.37,1.99,10.73,4.04,16.08,6.07,.1,.04,.18,.15,.27,.23-.75,1.63-1.24,1.87-3.18,1.41-.38,2.07-.79,4.12-1.15,6.19-1.86,10.76-3.71,21.52-5.57,32.28-.03,.15-.12,.29-.18,.44,.07-1.11,.06-2.23,.22-3.32,.17-1.16-.38-1.74-1.32-2.21-2.6-1.3-5.13-2.74-7.75-3.97-7.72-3.61-15.88-5.79-24.27-7.18,.08-.87,.15-1.74,.25-2.6,.33-3.12,.66-6.23,1.01-9.34,.37-3.35,.75-6.7,1.15-10.04,.34-2.83,.71-5.66,1.11-8.49,.22-1.52,.53-3.02,.82-4.71-.53,0-.91,0-1.3,0-10.86,0-21.71,0-32.57,0-.24,0-.53-.09-.71,.02-.34,.21-.81,.49-.89,.82-.21,.8-.24,1.64-.32,2.47-.39,4.23-.79,8.45-1.16,12.68-.2,2.29-.31,4.6-.52,6.89-.29,3.24-.63,6.47-.95,9.71-.05,.01-.1,.02-.15,.03,.06-4.47,.12-8.93,.2-13.4,.08-4.99,.18-9.98,.28-14.96,.15-7.26,.31-14.53,.47-21.79,.05-2.23,.11-4.47,.17-6.7,.4,0,.8,0,1.2-.01Z"/><path class="cls-5" d="M66.16,79.13c-.15-1.21-.39-2.42-.44-3.63-.25-5.72,.15-11.43,1.48-16.97,1-4.18,2.69-8.22,4.19-12.27,.73-1.96,2.38-2.83,4.44-2.84,5.76-.04,11.44,.54,17,2.12,4.41,1.25,8.48,3.24,12.36,5.65,.13,.08,.21,.23,.31,.35,.26,.79,.46,1.62,.82,2.37,.19,.4,.65,.7,1.03,.97,.32,.23,.85,.25,1.04,.53,1.29,1.89,2.52,3.83,3.57,5.44-3.11,5.66-4.53,11.39-3.33,17.8-.56,0-1.02,0-1.49,0-3.98,0-7.96-.06-11.94,0-8.97,.13-17.94,.31-26.91,.48-.7,.01-1.41,.01-2.11,.02Zm40.65-23.68l.04-.08h-.06l.02,.08Z"/><path class="cls-4" d="M78.62,105.28c-.01,10.17-.02,20.35-.04,30.52,0,.46-.14,.92-.21,1.37-.14,.01-.29,.02-.43,.03-6.31,.05-12.61,.11-18.92,.14-4.47,.02-8.95,0-13.42,0-.35-6-.72-12-1.05-18-.11-2.11-.13-4.22-.18-6.33-.07-2.59-.14-5.18-.21-7.77,11.49,.01,22.98,.03,34.46,.04Z"/><path class="cls-1" d="M160.4,140.44c8.39,1.39,16.55,3.57,24.27,7.18,2.63,1.23,5.16,2.67,7.75,3.97,.95,.47,1.49,1.05,1.32,2.21-.16,1.09-.15,2.21-.22,3.32-.69,3.72-1.31,7.46-2.07,11.17-.65,3.15-1.46,6.27-2.2,9.41-.3-.11-.6-.22-.9-.32-6.67-2.16-13.45-3.84-20.37-4.91-3.76-.58-7.57-.85-11.35-1.26-.02-.06-.04-.11-.06-.17,.07-.18,.19-.36,.21-.54,.51-4.34,1.01-8.69,1.5-13.04,.64-5.65,1.26-11.3,1.9-16.95,.08-.01,.15-.03,.23-.05Z"/><path class="cls-5" d="M45.6,137.34c4.47,0,8.95,.02,13.42,0,6.31-.03,12.61-.09,18.92-.14-.25,11.01-.51,22.01-.76,33.02-2.07-.08-4.14-.16-6.21-.25h.02l-1.87-.14c-1.39-.1-2.77-.27-4.16-.28-5.1-.03-10.2,0-15.3,0-.33-1.91-.69-3.82-.97-5.74-.57-4-1.13-8.01-1.62-12.02-.4-3.27-.69-6.56-1.03-9.84-.16-1.54-.29-3.08-.44-4.62Z"/><path class="cls-4" d="M156.57,171.03c.02,.05,.05,.11,.06,.17-.13,1.38-.23,2.77-.38,4.15-.36,3.31-.76,6.62-1.12,9.93-.28,2.6-.53,5.21-.79,7.81-.3,3-.59,6-.89,9-2.89,.13-5.79,.34-8.68,.37-3.71,.04-7.41-.07-11.12-.13-2.83-.05-5.65-.12-8.48-.18,.09-.98,.18-1.96,.26-2.94,.06-.14,.17-.28,.18-.43,.25-4.21,.49-8.42,.73-12.62,.24-4.09,.47-8.18,.72-12.27,.1-1.59,.19-1.59,1.8-1.76,1.41-.15,2.8-.44,4.2-.67,1.11-.02,2.23-.05,3.34-.07,6.72-.12,13.44-.24,20.16-.35Z"/><path class="cls-4" d="M78.71,81.51c.05,5.21,.11,10.42,.14,15.63,0,1.91-.07,3.81-.11,5.72-13.46-.08-26.92-.16-40.37-.24-.16-.81-.46-1.62-.46-2.43,.03-5.29,.11-10.58,.22-15.87,.03-1.24,.73-1.93,2-2.13,.67-.1,1.35-.14,2.02-.15,7.65-.1,15.31-.2,22.96-.29,.44,0,.88-.03,1.31-.05,4.09-.07,8.19-.14,12.28-.2Z"/><path class="cls-3" d="M153.46,202.09c.3-3,.59-6,.89-9,.26-2.61,.51-5.21,.79-7.81,.36-3.31,.76-6.62,1.12-9.93,.15-1.38,.25-2.77,.38-4.15,3.79,.41,7.59,.68,11.35,1.26,6.92,1.08,13.71,2.76,20.37,4.91,.3,.1,.6,.21,.9,.32-1.06,4.7-2.08,9.41-3.23,14.08-.15,.61-.86,1.34-1.46,1.53-8.12,2.62-16.25,5.22-24.42,7.67-2.14,.64-4.45,.75-6.68,1.11Z"/><path class="cls-4" d="M49.66,169.56c5.1,0,10.2-.03,15.3,0,1.39,0,2.77,.18,4.16,.28,.62,.05,1.24,.1,1.87,.16h-.02c1.62,.32,3.23,.63,4.85,.98,.56,.12,1.17,.14,1.18,1.03,0,1.55,.09,3.1,.23,4.64,.16,1.85,.41,3.69,.62,5.53-.05,4.13-.11,8.26-.15,12.39-.02,2.23-.02,4.46-.04,6.68-4.94-.19-9.88-.3-14.71-1.54-5.07-1.29-8.67-4.12-9.88-9.43-.31-1.36-.55-2.73-.78-4.1-.87-5.18-1.72-10.36-2.57-15.54-.06-.35-.04-.71-.06-1.07Z"/><path class="cls-1" d="M78.71,81.51c-4.09,.07-8.19,.14-12.28,.2-.09-.86-.18-1.72-.28-2.59,.7,0,1.41,0,2.11-.02,8.97-.16,17.94-.35,26.91-.48,3.98-.06,7.96,0,11.94,0,.47,0,.93,0,1.49,0-1.2-6.41,.22-12.14,3.33-17.8-1.05-1.62-2.28-3.55-3.57-5.44-.19-.28-.72-.31-1.04-.53-.38-.28-.84-.57-1.03-.97-.36-.75-.55-1.57-.82-2.37,3.64,2.38,7.03,5.04,9.44,8.24,2.53,.22,4.84,.44,7.16,.58,.44,.03,.96-.2,1.33-.46,2.33-1.66,4.63-3.36,6.94-5.04,.15-.11,.36-.14,.54-.2-1.33,1.77-2.66,3.54-4,5.3-.17,.22-.39,.4-.57,.61-.6,.7-.76,1.33-.58,2.39,.32,1.88,.14,3.87,.04,5.8-.16,3.1-.41,6.19-.68,9.28-.08,.91,.35,1.22,1.11,1.32,2.56,.33,5.12,.66,7.68,.97,1.69,.2,3.4,.36,5.09,.54-1.95,.05-3.89,.1-5.84,.14-1.56,.03-3.11,.02-4.67,.03-.4,0-.8,0-1.2,.01-16.19,.16-32.39,.32-48.58,.47Zm32.34-7.63c.2,1.33,.32,2.68,.66,3.97,.11,.42,.77,.96,1.21,.99,2.38,.17,4.77,.17,7.16,.3,1.13,.06,1.56-.27,1.49-1.47-.22-4.12,.27-8.18,1.46-12.14,.21-.71,0-1.02-.61-1.28-2.57-1.1-5.24-1.58-8.02-1.16-.48,.07-1.09,.55-1.28,.99-1.32,3.11-1.85,6.4-2.08,9.79Zm-3.75-19.62l-.04,.07h.07l-.03-.07Z"/><path class="cls-3" d="M38.37,102.63c13.46,.08,26.92,.16,40.37,.24-.04,.8-.08,1.61-.12,2.41-11.49-.01-22.98-.03-34.46-.04-1.06-.02-2.12-.04-3.19-.05-1.83-.01-2.55-.72-2.61-2.55Z"/><path class="cls-1" d="M131.16,54.4l-.26,.27,.26-.27Z"/><path class="cls-1" d="M126.17,137.89c.05,0,.1-.02,.15-.03,.25,.07,.49,.14,.74,.22-.07,1.23-.18,2.46-.21,3.69-.11,5.46-.23,10.92-.29,16.38-.05,4.43-.01,8.86-.02,13.29h-1.1c.08-8.33,.12-16.65,.25-24.98,.05-2.86,.31-5.71,.47-8.57Z"/><path class="cls-3" d="M125.45,171.43c.37,0,.73,0,1.1,0,2.17,0,4.35,.01,6.52,.02-1.4,.23-2.79,.53-4.2,.67-1.61,.17-1.71,.18-1.8,1.76-.25,4.09-.48,8.18-.72,12.27-.24,4.21-.48,8.42-.73,12.62,0,.15-.12,.28-.18,.43,0-9.26,0-18.52,0-27.77Z"/><path class="cls-1" d="M77.18,170.22c.25-11.01,.51-22.01,.76-33.02,.14-.01,.29-.02,.43-.03,0,5.35,.02,10.69-.02,16.04-.04,4.9-.13,9.8-.23,14.7-.02,.87-.17,1.74-.25,2.61-.23-.1-.46-.2-.69-.3Z"/><path class="cls-3" d="M77.18,170.22c.23,.1,.46,.2,.69,.3,0,3.88-.02,7.76-.03,11.64-.21-1.84-.46-3.68-.62-5.53-.14-1.54-.22-3.09-.23-4.64,0-.89-.62-.91-1.18-1.03-1.61-.35-3.23-.66-4.85-.99,2.07,.08,4.14,.16,6.21,.25Z"/><path class="cls-4" d="M127.06,138.07c-.25-.07-.49-.14-.74-.22,.32-3.24,.66-6.47,.95-9.71,.21-2.29,.32-4.6,.52-6.89,.37-4.23,.77-8.45,1.16-12.68,.08-.83,.11-1.68,.32-2.47,.09-.33,.55-.61,.89-.82,.17-.11,.47-.02,.71-.02,10.86,0,21.71,0,32.57,0,.39,0,.77,0,1.3,0-.3,1.68-.61,3.19-.82,4.71-.4,2.82-.77,5.65-1.11,8.49-.41,3.34-.78,6.69-1.15,10.04-.35,3.11-.68,6.23-1.01,9.34-.09,.87-.17,1.74-.25,2.6-.08,.02-.15,.04-.23,.05-.27-.07-.53-.18-.81-.21-5.35-.49-10.7-1.06-16.06-1.43-5.41-.37-10.83-.53-16.25-.78Z"/><polygon class="cls-1" points="106.81 55.45 106.79 55.35 106.85 55.36 106.81 55.45"/><path class="cls-5" d="M127.06,138.07c5.42,.25,10.84,.41,16.25,.78,5.36,.37,10.71,.94,16.06,1.43,.27,.03,.54,.14,.81,.21-.63,5.65-1.26,11.3-1.9,16.95-.49,4.35-.99,8.69-1.5,13.04-.02,.19-.14,.36-.21,.54-6.72,.12-13.44,.24-20.16,.36-1.11,.02-2.23,.05-3.34,.07-2.17,0-4.35-.01-6.52-.02,0-4.43-.03-8.86,.01-13.29,.06-5.46,.18-10.92,.29-16.38,.03-1.23,.14-2.46,.21-3.69Z"/><path class="cls-3" d="M70.99,169.99c-.62-.05-1.24-.1-1.87-.16,.62,.05,1.24,.1,1.87,.16Z"/><path class="cls-5" d="M111.05,73.88c.23-3.39,.76-6.68,2.08-9.79,.19-.44,.8-.92,1.28-.99,2.77-.43,5.45,.06,8.02,1.16,.62,.26,.82,.57,.61,1.28-1.19,3.96-1.69,8.01-1.46,12.14,.07,1.2-.36,1.53-1.49,1.47-2.38-.13-4.78-.13-7.16-.3-.44-.03-1.1-.57-1.21-.99-.34-1.29-.46-2.64-.66-3.97Z"/><polygon class="cls-5" points="107.3 54.26 107.33 54.33 107.26 54.32 107.3 54.26"/></g></g></svg>