<svg width="20" height="20" viewBox="0 0 20 20" fill="none" xmlns="http://www.w3.org/2000/svg">
<path d="M10 3.05176e-05C7.34784 3.13812e-05 4.8043 1.0536 2.92893 2.92896C1.05357 4.80433 8.636e-07 7.34787 0 10C7.71071e-07 12.6522 1.05357 15.1957 2.92893 17.0711C4.8043 18.9465 7.34784 20 10 20C12.6522 20 15.1957 18.9465 17.0711 17.0711C18.9464 15.1957 20 12.6522 20 10C20 7.34787 18.9464 4.80433 17.0711 2.92896C15.1957 1.0536 12.6522 3.12886e-05 10 3.05176e-05Z" fill="#37C837"/>
<path d="M10 1.15388C7.65385 1.15388 5.4038 2.08588 3.74482 3.74486C2.08585 5.40383 1.15385 7.65389 1.15385 10C1.15385 12.3462 2.08585 14.5962 3.74482 16.2552C5.4038 17.9142 7.65385 18.8462 10 18.8462C11.1617 18.8462 12.312 18.6174 13.3853 18.1728C14.4585 17.7283 15.4337 17.0767 16.2552 16.2552C17.0766 15.4338 17.7282 14.4586 18.1728 13.3853C18.6173 12.312 18.8462 11.1617 18.8462 10C18.8462 8.83834 18.6173 7.68802 18.1728 6.61475C17.7282 5.54149 17.0766 4.5663 16.2552 3.74486C15.4337 2.92341 14.4585 2.27181 13.3853 1.82725C12.312 1.38269 11.1617 1.15388 10 1.15388Z" fill="#2CA02C"/>
<path d="M1.21685 10L10 5.20922L18.7831 10L10 14.7908L1.21685 10Z" fill="#FFFF00"/>
<path d="M13.6135 10C13.6135 10.9584 13.2327 11.8775 12.5551 12.5551C11.8774 13.2328 10.9583 13.6135 10 13.6135C9.04165 13.6135 8.12256 13.2328 7.4449 12.5551C6.76725 11.8775 6.38655 10.9584 6.38655 10C6.38655 9.04168 6.76725 8.12259 7.4449 7.44493C8.12256 6.76728 9.04165 6.38658 10 6.38658C10.9583 6.38658 11.8774 6.76728 12.5551 7.44493C13.2327 8.12259 13.6135 9.04168 13.6135 10Z" fill="#000080"/>
<path d="M8.58709 8.1832C7.94478 8.17543 7.32814 8.24371 6.77026 8.38438C6.6509 8.62295 6.55832 8.874 6.49423 9.13295C7.48251 8.86208 8.65677 8.82739 9.82066 9.0347C10.5673 9.16795 11.2859 9.39662 11.9252 9.70444C12.5646 10.0123 13.109 10.3917 13.5198 10.8157C13.5793 10.5573 13.6101 10.2932 13.6118 10.0281C13.1977 9.61995 12.6592 9.25591 12.0326 8.96053C11.4061 8.66514 10.706 8.44528 9.97973 8.31576C9.5162 8.23336 9.04764 8.18876 8.58709 8.1832Z" fill="white"/>
<path d="M12.5837 11.8326L12.4855 11.7624L12.387 11.8323L12.4234 11.7172L12.3264 11.6451L12.4473 11.6442L12.4858 11.5297L12.524 11.6443L12.6448 11.6456L12.5476 11.7173L12.5837 11.8326Z" fill="white"/>
<path d="M12.4567 10.9634L12.3584 10.8931L12.26 10.9631L12.2964 10.8479L12.1994 10.7759L12.3203 10.7749L12.3588 10.6604L12.397 10.7751L12.5178 10.7763L12.4206 10.8481L12.4567 10.9634Z" fill="white"/>
<path d="M12.2507 12.3199L12.1524 12.2497L12.0539 12.3197L12.0904 12.2045L11.9934 12.1324L12.1142 12.1315L12.1528 12.017L12.191 12.1316L12.3118 12.1329L12.2146 12.2047L12.2507 12.3199Z" fill="white"/>
<path d="M8.89501 12.3013L8.78997 12.2262L8.68471 12.301L8.72369 12.1778L8.62002 12.1009L8.74915 12.0999L8.79034 11.9775L8.83117 12.1L8.9603 12.1014L8.8564 12.178L8.89501 12.3013Z" fill="white"/>
<path d="M7.62882 11.5956L7.475 11.4856L7.32084 11.5951L7.37793 11.4148L7.22611 11.3021L7.41522 11.3006L7.47555 11.1214L7.53534 11.3008L7.72444 11.3028L7.57228 11.4151L7.62882 11.5956Z" fill="white"/>
<path d="M8.80318 10.5024L8.70345 10.4311L8.6035 10.5021L8.64051 10.3852L8.54208 10.3121L8.66468 10.3112L8.7038 10.195L8.74256 10.3113L8.86516 10.3126L8.76651 10.3854L8.80318 10.5024Z" fill="white"/>
<path d="M7.37966 9.97558L7.22584 9.86557L7.07169 9.97512L7.12878 9.79483L6.97695 9.68207L7.16606 9.68065L7.22639 9.50142L7.28618 9.68083L7.47528 9.68282L7.32312 9.79512L7.37966 9.97558Z" fill="white"/>
<path d="M10.1573 10.9107L10.0889 10.8618L10.0204 10.9105L10.0458 10.8304L9.9783 10.7802L10.0624 10.7796L10.0892 10.6999L10.1157 10.7797L10.1998 10.7806L10.1322 10.8305L10.1573 10.9107Z" fill="white"/>
<path d="M11.8112 12.6014L11.7129 12.5311L11.6145 12.6011L11.6509 12.4859L11.5539 12.4138L11.6748 12.4129L11.7133 12.2984L11.7515 12.4131L11.8723 12.4143L11.7751 12.4861L11.8112 12.6014Z" fill="white"/>
<path d="M11.8161 8.76389L11.7178 8.6936L11.6193 8.76359L11.6558 8.6484L11.5588 8.57636L11.6796 8.57545L11.7181 8.46094L11.7563 8.57557L11.8772 8.57684L11.7799 8.64859L11.8161 8.76389Z" fill="white"/>
<path d="M10.1039 11.4507L10.0056 11.3804L9.90712 11.4504L9.9436 11.3352L9.8466 11.2632L9.96742 11.2623L10.0059 11.1477L10.0442 11.2624L10.165 11.2636L10.0678 11.3354L10.1039 11.4507Z" fill="white"/>
</svg>
