<svg width="40" height="41" viewBox="0 0 40 41" fill="none" xmlns="http://www.w3.org/2000/svg">
<path d="M34.8434 24.7701L35.8147 11.4494C35.8446 11.0384 35.7892 10.6256 35.6519 10.2368C35.5145 9.84806 35.2983 9.49167 35.0166 9.18988C34.7348 8.8881 34.3937 8.6474 34.0145 8.48281C33.6353 8.31821 33.226 8.23325 32.8124 8.23323H24.9354V7.23348C24.9354 5.37743 24.1953 3.5974 22.8781 2.28497C21.5608 0.972543 19.7742 0.235229 17.9113 0.235229C16.0484 0.235229 14.2618 0.972543 12.9445 2.28497C11.6272 3.5974 10.8872 5.37743 10.8872 7.23348V8.23323H3.01018C2.59653 8.23325 2.18731 8.31821 1.80808 8.48281C1.42885 8.6474 1.08773 8.8881 0.806014 9.18988C0.5243 9.49167 0.308035 9.84806 0.170715 10.2368C0.0333941 10.6256 -0.0220353 11.0384 0.00788573 11.4494L1.34146 29.7349C1.47596 31.4964 2.27173 33.1427 3.57017 34.3458C4.86861 35.5488 6.57436 36.2203 8.34749 36.2262H25.0146C25.6556 37.336 26.5546 38.2763 27.6361 38.9679C28.7176 39.6596 29.9499 40.0824 31.2295 40.2009C32.5091 40.3194 33.7986 40.1301 34.9895 39.6489C36.1804 39.1676 37.2379 38.4086 38.0732 37.4355C38.9085 36.4625 39.497 35.3038 39.7894 34.057C40.0818 32.8102 40.0695 31.5117 39.7535 30.2706C39.4375 29.0295 38.8271 27.8821 37.9735 26.925C37.1199 25.9678 36.0482 25.2288 34.8484 24.7701H34.8434ZM12.8941 7.23348C12.8941 5.90773 13.4227 4.63628 14.3636 3.69883C15.3045 2.76138 16.5806 2.23473 17.9113 2.23473C19.2419 2.23473 20.5181 2.76138 21.459 3.69883C22.3999 4.63628 22.9285 5.90773 22.9285 7.23348V8.23323H12.8941V7.23348ZM8.34749 34.2267C7.081 34.2223 5.86267 33.7427 4.93527 32.8833C4.00786 32.024 3.43946 30.8481 3.34333 29.5899L2.00975 11.3055C1.99966 11.1682 2.01815 11.0303 2.06404 10.9004C2.10993 10.7706 2.18224 10.6516 2.27644 10.5509C2.37065 10.4502 2.48471 10.3699 2.61149 10.3152C2.73826 10.2604 2.87502 10.2324 3.01319 10.2327H10.8872V12.2322C10.8872 12.4974 10.9929 12.7517 11.1811 12.9392C11.3693 13.1267 11.6245 13.232 11.8906 13.232C12.1568 13.232 12.412 13.1267 12.6002 12.9392C12.7884 12.7517 12.8941 12.4974 12.8941 12.2322V10.2327H22.9285V12.2322C22.9285 12.4974 23.0342 12.7517 23.2224 12.9392C23.4106 13.1267 23.6658 13.232 23.9319 13.232C24.1981 13.232 24.4533 13.1267 24.6415 12.9392C24.8297 12.7517 24.9354 12.4974 24.9354 12.2322V10.2327H32.8124C32.9506 10.2324 33.0873 10.2604 33.2141 10.3152C33.3409 10.3699 33.4549 10.4502 33.5491 10.5509C33.6433 10.6516 33.7157 10.7706 33.7615 10.9004C33.8074 11.0303 33.8259 11.1682 33.8158 11.3055L32.8626 24.2832C32.5628 24.2487 32.2613 24.2307 31.9595 24.2292C30.7332 24.2251 29.5224 24.5019 28.4206 25.0381C27.3188 25.5744 26.3555 26.3559 25.6051 27.3221C24.8546 28.2884 24.3371 29.4135 24.0926 30.6107C23.8481 31.808 23.8831 33.0451 24.1948 34.2267H8.34749ZM31.9595 38.2257C30.7687 38.2257 29.6047 37.8739 28.6146 37.2148C27.6245 36.5557 26.8528 35.6188 26.3971 34.5228C25.9414 33.4267 25.8222 32.2206 26.0545 31.057C26.2868 29.8934 26.8602 28.8246 27.7022 27.9857C28.5442 27.1467 29.617 26.5754 30.7849 26.344C31.9528 26.1125 33.1633 26.2313 34.2635 26.6853C35.3636 27.1394 36.3039 27.9082 36.9655 28.8947C37.627 29.8811 37.9801 31.0408 37.9801 32.2272C37.9783 33.8176 37.3433 35.3422 36.2146 36.4668C35.086 37.5913 33.5557 38.2239 31.9595 38.2257ZM35.9732 32.2272C35.9732 32.4924 35.8675 32.7467 35.6793 32.9342C35.4911 33.1217 35.2359 33.227 34.9698 33.227H32.9629V35.2265C32.9629 35.4916 32.8572 35.7459 32.669 35.9334C32.4808 36.1209 32.2256 36.2262 31.9595 36.2262C31.6933 36.2262 31.4381 36.1209 31.2499 35.9334C31.0617 35.7459 30.956 35.4916 30.956 35.2265V33.227H28.9491C28.683 33.227 28.4278 33.1217 28.2396 32.9342C28.0514 32.7467 27.9457 32.4924 27.9457 32.2272C27.9457 31.9621 28.0514 31.7078 28.2396 31.5203C28.4278 31.3328 28.683 31.2275 28.9491 31.2275H30.956V29.228C30.956 28.9628 31.0617 28.7085 31.2499 28.5211C31.4381 28.3336 31.6933 28.2282 31.9595 28.2282C32.2256 28.2282 32.4808 28.3336 32.669 28.5211C32.8572 28.7085 32.9629 28.9628 32.9629 29.228V31.2275H34.9698C35.2359 31.2275 35.4911 31.3328 35.6793 31.5203C35.8675 31.7078 35.9732 31.9621 35.9732 32.2272Z" fill="#779942"/>
</svg>
