<svg width="22" height="22" viewBox="0 0 22 22" fill="none" xmlns="http://www.w3.org/2000/svg">
<path d="M2.27774 21.25C1.63711 21.25 1.11865 20.7309 1.11865 20.0909C1.11865 16.4389 3.01937 13.1521 6.07166 11.319C5.24523 10.2154 4.75413 8.84587 4.75413 7.36364C4.75413 3.71659 7.72118 0.75 11.3678 0.75C15.0143 0.75 17.9814 3.71659 17.9814 7.36364C17.9814 8.84969 17.4881 10.2228 16.6577 11.328C17.3688 11.7555 18.0337 12.2619 18.6158 12.8443C20.5518 14.7808 21.6187 17.355 21.6187 20.0909C21.6187 20.7309 21.1002 21.25 20.4596 21.25C19.8189 21.25 19.3005 20.7309 19.3005 20.0909C19.3005 17.9734 18.4755 15.9826 16.9767 14.4834C16.9767 14.4834 16.9767 14.4833 16.9767 14.4833M2.27774 21.25L14.8349 12.6927C15.6943 13.0983 16.4907 13.6442 17.1535 14.3066L16.9767 14.4833M2.27774 21.25C2.91838 21.25 3.43683 20.7309 3.43683 20.0909C3.43683 17.0275 5.17357 14.3103 7.89509 12.9849C8.90494 13.6114 10.0936 13.9773 11.3678 13.9773C12.6465 13.9773 13.8396 13.6091 14.8519 12.9784M2.27774 21.25L14.8519 12.9784M16.9767 14.4833C16.3676 13.8746 15.6398 13.3659 14.8519 12.9784M16.9767 14.4833L14.8519 12.9784M11.3678 3.06818C13.7359 3.06818 15.6632 4.99549 15.6632 7.36364C15.6632 9.73178 13.7359 11.6591 11.3678 11.6591C8.99962 11.6591 7.07231 9.73178 7.07231 7.36364C7.07231 4.99549 8.99962 3.06818 11.3678 3.06818Z" fill="#F98D3C" stroke="#F98D3C" stroke-width="0.5"/>
</svg>
