<svg width="70" height="67" viewBox="0 0 70 67" fill="none" xmlns="http://www.w3.org/2000/svg">
<path d="M70 46.0668V49.2768C69.6333 51.2168 69.0133 53.0102 68.14 54.6568C67.74 55.4102 67.1833 55.6568 66.47 55.3968C66.3665 55.3583 66.2724 55.2982 66.1939 55.2205C66.1154 55.1429 66.0543 55.0494 66.0146 54.9464C65.9749 54.8434 65.9575 54.7331 65.9636 54.6228C65.9697 54.5126 65.9992 54.4049 66.05 54.3068C68.9767 48.4668 68.5067 43.5268 64.64 39.4868C60.9 35.5768 54.95 34.2068 50.19 36.9168C35.09 45.4968 49.05 67.4668 63.43 57.1368C63.95 56.7702 64.3133 56.8868 64.52 57.4868L64.77 58.2168C64.8318 58.3936 64.8295 58.5861 64.7636 58.7601C64.6976 58.9341 64.5723 59.0783 64.41 59.1668C56.09 63.7468 49.1733 62.3768 43.66 55.0568C43.38 54.6902 43.01 54.5068 42.55 54.5068H25.76C25.3933 54.5068 25.0667 54.3902 24.78 54.1568L23.91 53.4668C23.7708 53.3554 23.595 53.3007 23.4184 53.3137C23.2419 53.3267 23.0779 53.4065 22.96 53.5368C19.1733 57.6502 15.4467 61.8102 11.78 66.0168C11.26 66.6102 10.6667 66.8402 10 66.7068C9.84339 66.6759 9.69783 66.6039 9.57824 66.4981C9.45866 66.3924 9.36935 66.2567 9.31948 66.1051C9.26961 65.9534 9.26097 65.7912 9.29445 65.6351C9.32793 65.4791 9.40232 65.3347 9.51 65.2168C13.75 60.5035 18.13 55.7368 22.65 50.9168C23.27 50.2568 23.31 49.2602 22.77 47.9268C22.6567 47.6535 22.5033 47.6268 22.31 47.8468C21.13 49.1735 19.5833 49.4035 17.67 48.5368C17.4842 48.4484 17.3335 48.3003 17.2418 48.1161C17.1501 47.9319 17.1228 47.7223 17.1643 47.5208C17.2058 47.3193 17.3136 47.1375 17.4705 47.0044C17.6274 46.8714 17.8244 46.7948 18.03 46.7868L19.56 46.7468C19.9267 46.7335 20.2733 46.6402 20.6 46.4668C25.2467 43.9402 26.2267 40.3468 23.54 35.6868C23.428 35.4956 23.3551 35.2839 23.3256 35.064C23.2962 34.8441 23.3107 34.6203 23.3683 34.4056C23.4259 34.1909 23.5256 33.9894 23.6614 33.8129C23.7973 33.6363 23.9668 33.4881 24.16 33.3768C27.11 31.6768 33.29 29.2468 31.14 24.9068C30.9733 24.5668 30.7233 24.4902 30.39 24.6768L16.84 32.1968C16.282 32.5096 15.8174 32.9653 15.494 33.5172C15.1706 34.0691 15.0001 34.6972 15 35.3368V43.0268C15 43.3735 14.8833 43.6768 14.65 43.9368L1.61 58.0968C1.49841 58.2176 1.35085 58.2987 1.19003 58.3276C1.02921 58.3566 0.864053 58.3317 0.72 58.2568C0.4 58.0902 0.16 57.8102 0 57.4168V56.7668L12.64 43.0668C12.8667 42.8202 12.9833 42.5302 12.99 42.1968C13.0167 39.5368 13.02 36.8935 13 34.2668C12.97 31.0968 20.12 28.0268 22.61 26.6368C22.87 26.4902 23 26.2702 23 25.9768V13.0068C23 12.5535 23.2267 12.3268 23.68 12.3268H24.32C24.7733 12.3268 25 12.5535 25 13.0068V24.5168C24.9998 24.6328 25.0327 24.7464 25.0948 24.8444C25.1569 24.9423 25.2456 25.0205 25.3505 25.0699C25.4555 25.1192 25.5723 25.1376 25.6873 25.1229C25.8024 25.1082 25.9108 25.061 26 24.9868C29.0667 22.3868 32.6367 21.4368 36.71 22.1368C37.09 22.2035 37.3267 22.4235 37.42 22.7968C37.9333 24.8635 37.93 26.9368 37.41 29.0168C37.3561 29.2304 37.231 29.4195 37.0551 29.5538C36.8791 29.688 36.6624 29.7596 36.44 29.7568C35.6467 29.7502 34.8533 29.7502 34.06 29.7568C33.7133 29.7568 33.3933 29.8568 33.1 30.0568L25.92 34.8168C25.8074 34.8923 25.7287 35.0087 25.7007 35.1413C25.6727 35.274 25.6975 35.4123 25.77 35.5268C27.8033 38.8135 27.6733 42.0035 25.38 45.0968C25.1331 45.4279 24.9998 45.8348 25 46.2568V51.2568C25 51.5884 25.1317 51.9063 25.3661 52.1407C25.6005 52.3751 25.9185 52.5068 26.25 52.5068H41.7C42.0733 52.5068 42.2267 52.3202 42.16 51.9468C40.7133 43.6935 43.33 37.9868 50.01 34.8268C53.77 33.0568 57.8 33.0368 61.52 34.7368C61.5987 34.7716 61.6848 34.7863 61.7706 34.7796C61.8564 34.7728 61.9392 34.7449 62.0115 34.6984C62.0839 34.6518 62.1435 34.588 62.1852 34.5127C62.2268 34.4373 62.2491 34.3529 62.25 34.2668V3.53684C62.25 3.19736 62.1151 2.87179 61.8751 2.63174C61.635 2.39169 61.3095 2.25684 60.97 2.25684H26C25.7348 2.25684 25.4804 2.36219 25.2929 2.54973C25.1054 2.73727 25 2.99162 25 3.25684V8.71684C25 9.15017 24.7867 9.38684 24.36 9.42684L23.83 9.48684C23.7244 9.49662 23.6179 9.48447 23.5174 9.45119C23.4169 9.4179 23.3245 9.36421 23.2464 9.29357C23.1682 9.22292 23.1059 9.13689 23.0634 9.04101C23.021 8.94513 22.9994 8.84151 23 8.73684V3.25684C23 2.46119 23.3161 1.69812 23.8787 1.13552C24.4413 0.572907 25.2044 0.256836 26 0.256836H61.25C62.0456 0.256836 62.8087 0.572907 63.3713 1.13552C63.9339 1.69812 64.25 2.46119 64.25 3.25684V35.6968C64.25 36.0102 64.3667 36.2702 64.6 36.4768C67.5533 39.0635 69.3533 42.2602 70 46.0668ZM33.31 24.3668L33.81 27.6268C33.8149 27.6625 33.8268 27.6967 33.8451 27.7277C33.8634 27.7586 33.8878 27.7856 33.9166 27.807C33.9455 27.8285 33.9784 27.8439 34.0133 27.8525C34.0482 27.861 34.0845 27.8625 34.12 27.8568L34.94 27.7268C35.1966 27.6868 35.4291 27.5621 35.5866 27.3803C35.7441 27.1984 35.8137 26.9742 35.78 26.7568L35.45 24.5968C35.4161 24.3803 35.2825 24.1884 35.0783 24.0628C34.8741 23.9373 34.6159 23.8884 34.36 23.9268L33.54 24.0568C33.5044 24.0617 33.4701 24.0737 33.4391 24.092C33.4082 24.1103 33.3812 24.1346 33.3598 24.1635C33.3384 24.1923 33.3229 24.2252 33.3144 24.2601C33.3058 24.295 33.3043 24.3313 33.31 24.3668Z" fill="#FEFEFE"/>
<path d="M37.7155 14.9845C37.7121 15.4646 37.5182 15.9236 37.1764 16.2607C36.8346 16.5977 36.3729 16.7852 35.8929 16.7818L31.573 16.7516C31.093 16.7483 30.6339 16.5544 30.2969 16.2126C29.9598 15.8708 29.7723 15.4091 29.7757 14.929L29.8045 10.8091C29.8079 10.3291 30.0018 9.87007 30.3436 9.53302C30.6854 9.19596 31.1471 9.00848 31.6271 9.01184L35.947 9.04204C36.427 9.04539 36.8861 9.2393 37.2231 9.5811C37.5602 9.92291 37.7477 10.3846 37.7443 10.8646L37.7155 14.9845ZM35.6551 11.6544C35.653 11.4794 35.5814 11.3124 35.4561 11.1901C35.3308 11.0679 35.1621 11.0004 34.9871 11.0025L32.6272 11.0314C32.4522 11.0336 32.2852 11.1052 32.163 11.2305C32.0407 11.3557 31.9733 11.5244 31.9754 11.6994L32.0049 14.1192C32.007 14.2943 32.0786 14.4613 32.2039 14.5835C32.3292 14.7058 32.4979 14.7733 32.6729 14.7711L35.0328 14.7422C35.2078 14.7401 35.3748 14.6685 35.497 14.5432C35.6193 14.4179 35.6867 14.2492 35.6846 14.0742L35.6551 11.6544Z" fill="#FEFEFE"/>
<path d="M56.3118 14.7873L44.3318 14.7664C43.8237 14.7655 43.4111 15.1767 43.4102 15.6848L43.4099 15.8648C43.409 16.3729 43.8201 16.7855 44.3282 16.7864L56.3082 16.8073C56.8163 16.8082 57.2289 16.397 57.2298 15.8889L57.2301 15.7089C57.231 15.2008 56.8199 14.7882 56.3118 14.7873Z" fill="#FEFEFE"/>
<path d="M56.31 27.7668H44.27C43.7343 27.7668 43.3 28.2011 43.3 28.7368V28.7968C43.3 29.3326 43.7343 29.7668 44.27 29.7668H56.31C56.8457 29.7668 57.28 29.3326 57.28 28.7968V28.7368C57.28 28.2011 56.8457 27.7668 56.31 27.7668Z" fill="#FEFEFE"/>
<path d="M37.7039 41.0151C37.6982 41.4819 37.5073 41.9272 37.1733 42.2533C36.8392 42.5793 36.3893 42.7592 35.9226 42.7535L31.5029 42.6995C31.2718 42.6967 31.0435 42.6484 30.831 42.5574C30.6186 42.4663 30.4262 42.3343 30.2648 42.1689C30.1033 42.0035 29.9761 41.8079 29.8902 41.5933C29.8044 41.3787 29.7617 41.1493 29.7645 40.9181L29.8161 36.6985C29.8218 36.2318 30.0127 35.7864 30.3467 35.4604C30.6808 35.1344 31.1307 34.9545 31.5974 34.9601L36.0171 35.0141C36.2482 35.017 36.4765 35.0653 36.689 35.1563C36.9014 35.2474 37.0938 35.3794 37.2552 35.5448C37.4167 35.7102 37.5439 35.9058 37.6298 36.1204C37.7156 36.335 37.7583 36.5644 37.7555 36.7955L37.7039 41.0151ZM35.6418 37.5512C35.6396 37.3974 35.5765 37.2508 35.4662 37.1436C35.3559 37.0363 35.2076 36.9773 35.0538 36.9794L32.534 37.0146C32.3802 37.0168 32.2336 37.08 32.1263 37.1902C32.0191 37.3005 31.9601 37.4488 31.9622 37.6026L31.9982 40.1824C32.0004 40.3362 32.0635 40.4829 32.1738 40.5901C32.2841 40.6973 32.4324 40.7564 32.5862 40.7542L35.106 40.719C35.2598 40.7169 35.4064 40.6537 35.5137 40.5434C35.6209 40.4332 35.6799 40.2848 35.6778 40.131L35.6418 37.5512Z" fill="#FEFEFE"/>
<path d="M50.88 50.2768L49.96 53.7268C49.8882 53.9752 49.7231 54.1861 49.4992 54.3153C49.2753 54.4446 49.0101 54.4821 48.7591 54.42C48.5082 54.3579 48.291 54.201 48.1532 53.9823C48.0154 53.7636 47.9677 53.5 48.02 53.2468C48.76 50.0735 49.5167 46.9135 50.29 43.7668C50.68 42.2068 51.29 40.9068 53.12 40.9368C54.1867 40.9568 54.8533 41.4535 55.12 42.4268C56.08 45.9468 56.95 49.4268 57.73 52.8668C57.7849 53.1124 57.7624 53.3687 57.6656 53.5999C57.5688 53.8311 57.4025 54.0258 57.19 54.1568C56.81 54.3968 56.4567 54.3702 56.13 54.0768C55.93 53.8968 55.7867 53.6002 55.7 53.1868C55.5 52.2468 55.2667 51.2935 55 50.3268C54.9 49.9468 54.65 49.7568 54.25 49.7568H51.56C51.4051 49.7561 51.2543 49.8067 51.1312 49.9008C51.0082 49.9949 50.9198 50.1271 50.88 50.2768ZM51.53 47.2268C51.5149 47.2867 51.5136 47.3492 51.526 47.4096C51.5385 47.4701 51.5644 47.5269 51.6019 47.576C51.6394 47.625 51.6875 47.6649 51.7426 47.6928C51.7976 47.7206 51.8583 47.7357 51.92 47.7368L53.86 47.7668C53.9215 47.7668 53.9822 47.753 54.0376 47.7264C54.093 47.6997 54.1417 47.661 54.1802 47.613C54.2186 47.5649 54.2457 47.5089 54.2595 47.449C54.2733 47.3891 54.2735 47.3268 54.26 47.2668L53.35 43.5268C53.3271 43.4402 53.2765 43.3635 53.2058 43.3083C53.1352 43.2532 53.0484 43.2228 52.9588 43.2216C52.8692 43.2205 52.7817 43.2487 52.7097 43.3021C52.6377 43.3554 52.5851 43.4308 52.56 43.5168L51.53 47.2268Z" fill="#FEFEFE"/>
<path d="M63.08 43.8468L64.85 44.2168C65.0103 44.2444 65.1558 44.3278 65.2606 44.4522C65.3655 44.5767 65.423 44.7341 65.423 44.8968C65.423 45.0595 65.3655 45.217 65.2606 45.3414C65.1558 45.4659 65.0103 45.5492 64.85 45.5768L63.08 45.9468C62.95 45.9747 62.8308 46.0396 62.7368 46.1336C62.6427 46.2276 62.5779 46.3468 62.55 46.4768L62.18 48.2468C62.1524 48.4072 62.069 48.5526 61.9446 48.6575C61.8202 48.7623 61.6627 48.8198 61.5 48.8198C61.3373 48.8198 61.1798 48.7623 61.0554 48.6575C60.931 48.5526 60.8476 48.4072 60.82 48.2468L60.45 46.4768C60.4221 46.3468 60.3573 46.2276 60.2632 46.1336C60.1692 46.0396 60.05 45.9747 59.92 45.9468L58.15 45.5768C57.9897 45.5492 57.8442 45.4659 57.7394 45.3414C57.6345 45.217 57.577 45.0595 57.577 44.8968C57.577 44.7341 57.6345 44.5767 57.7394 44.4522C57.8442 44.3278 57.9897 44.2444 58.15 44.2168L59.92 43.8468C60.05 43.819 60.1692 43.7541 60.2632 43.6601C60.3573 43.566 60.4221 43.4469 60.45 43.3168L60.82 41.5468C60.8476 41.3865 60.931 41.2411 61.0554 41.1362C61.1798 41.0314 61.3373 40.9739 61.5 40.9739C61.6627 40.9739 61.8202 41.0314 61.9446 41.1362C62.069 41.2411 62.1524 41.3865 62.18 41.5468L62.55 43.3168C62.5779 43.4469 62.6427 43.566 62.7368 43.6601C62.8308 43.7541 62.95 43.819 63.08 43.8468Z" fill="#FEFEFE"/>
</svg>
