<svg width="46" height="64" viewBox="0 0 46 64" fill="none" xmlns="http://www.w3.org/2000/svg">
<path d="M12.0886 1.53567C12.0687 1.5029 12.0555 1.4665 12.0497 1.42859C12.044 1.39068 12.0458 1.352 12.0551 1.3148C12.0644 1.27761 12.081 1.24262 12.1039 1.21187C12.1268 1.18112 12.1556 1.15522 12.1886 1.13567L12.3586 1.03567C12.719 0.822608 13.1584 0.776654 13.5802 0.907902C14.0021 1.03915 14.372 1.33687 14.6086 1.73567L17.1386 6.00567C17.3755 6.40395 17.46 6.87081 17.3738 7.30386C17.2876 7.73691 17.0376 8.10078 16.6786 8.31567L16.5086 8.40567C16.4433 8.44274 16.3661 8.45303 16.2934 8.43438C16.2207 8.41573 16.158 8.36959 16.1186 8.30567L12.0886 1.53567Z" fill="#23315E"/>
<path d="M23.2074 0.887393L22.9074 0.884252C22.4324 0.879278 22.0434 1.26026 22.0384 1.7352L21.9988 5.51499C21.9939 5.98993 22.3748 6.37898 22.8498 6.38395L23.1498 6.38709C23.6247 6.39207 24.0138 6.01108 24.0187 5.53614L24.0583 1.75635C24.0633 1.28141 23.6823 0.892367 23.2074 0.887393Z" fill="#23315E"/>
<path d="M29.9186 8.35567C29.902 8.38513 29.8797 8.41093 29.853 8.43152C29.8262 8.4521 29.7955 8.46706 29.7628 8.47547C29.7301 8.48388 29.696 8.48557 29.6626 8.48045C29.6293 8.47533 29.5973 8.4635 29.5686 8.44567L29.4386 8.36567C29.0601 8.14105 28.7917 7.76628 28.6923 7.32373C28.5929 6.88119 28.6707 6.40709 28.9086 6.00567L31.4386 1.73567C31.6761 1.33519 32.0536 1.03982 32.4884 0.914244C32.9233 0.788668 33.38 0.843118 33.7586 1.06567L33.8886 1.14567C33.9453 1.17907 33.9866 1.23351 34.0035 1.29717C34.0203 1.36083 34.0114 1.42857 33.9786 1.48567L29.9186 8.35567Z" fill="#23315E"/>
<path d="M27.3153 4.13543C28.0055 4.14989 28.5755 3.66475 28.5883 3.05185C28.6011 2.43895 28.052 1.93037 27.3618 1.91592C26.6716 1.90146 26.1017 2.38659 26.0889 2.99949C26.076 3.6124 26.6251 4.12097 27.3153 4.13543Z" fill="#23315E"/>
<path d="M9.82758 6.24561C10.5124 6.25279 11.0724 5.78852 11.0785 5.20866C11.0846 4.62879 10.5344 4.1529 9.84957 4.14573C9.16478 4.13856 8.60472 4.60282 8.59865 5.18269C8.59257 5.76255 9.14279 6.23844 9.82758 6.24561Z" fill="#23315E"/>
<path d="M38.3608 6.22382C39.0555 6.18255 39.5908 5.67982 39.5564 5.10095C39.522 4.52207 38.931 4.08625 38.2363 4.12752C37.5417 4.16879 37.0064 4.67152 37.0408 5.2504C37.0752 5.82928 37.6662 6.26509 38.3608 6.22382Z" fill="#23315E"/>
<path d="M12.3604 10.9783L2.45055 5.30283C2.00484 5.04757 1.4366 5.20196 1.18134 5.64767L1.09189 5.80386C0.836628 6.24957 0.991017 6.81781 1.43672 7.07307L11.3466 12.7485C11.7923 13.0038 12.3606 12.8494 12.6158 12.4037L12.7053 12.2475C12.9605 11.8018 12.8061 11.2335 12.3604 10.9783Z" fill="#23315E"/>
<path d="M43.5872 5.30099L33.6799 11.021C33.2638 11.2612 33.1212 11.7933 33.3615 12.2094L33.5015 12.4519C33.7417 12.868 34.2738 13.0106 34.6899 12.7704L44.5972 7.05036C45.0134 6.81011 45.1559 6.27803 44.9157 5.86191L44.7757 5.61943C44.5354 5.20331 44.0034 5.06074 43.5872 5.30099Z" fill="#23315E"/>
<path d="M40.3286 63.1657H5.67858L5.56858 57.5157C5.56573 57.3862 5.59118 57.2576 5.64316 57.139C5.69514 57.0203 5.77239 56.9144 5.86952 56.8287C5.96665 56.743 6.08131 56.6796 6.20551 56.6428C6.32971 56.606 6.46044 56.5967 6.58858 56.6157L8.14858 56.8457C8.22568 56.8587 8.30469 56.8545 8.38015 56.8334C8.45561 56.8123 8.52571 56.7748 8.58562 56.7235C8.64553 56.6721 8.69381 56.6082 8.72712 56.536C8.76044 56.4639 8.77799 56.3853 8.77858 56.3057V53.1757C8.77858 52.6823 9.02524 52.4323 9.51858 52.4257L11.6986 52.3957C11.7757 52.3946 11.8517 52.3776 11.922 52.3458C11.9922 52.314 12.0551 52.268 12.1067 52.2107C12.1584 52.1535 12.1976 52.0861 12.222 52.013C12.2464 51.9399 12.2555 51.8625 12.2486 51.7857C12.1086 50.1923 12.7186 49.0023 14.0786 48.2157C14.3986 48.029 14.5819 47.7523 14.6286 47.3857C15.3586 41.5057 17.0286 34.7957 16.4486 28.9557C16.4086 28.5823 16.2552 28.2657 15.9886 28.0057L6.42858 18.4457C6.09721 18.1109 5.85497 17.6985 5.72396 17.2461C5.59295 16.7937 5.57735 16.3157 5.67858 15.8557C7.32858 8.29567 14.8586 17.5757 16.6986 19.3657C17.0252 19.6857 17.0286 20.0057 16.7086 20.3257L16.1886 20.8457C15.9019 21.1323 15.6152 21.1323 15.3286 20.8457L12.0286 17.5457C11.9634 17.4792 11.8856 17.4263 11.7998 17.3902C11.7139 17.3542 11.6217 17.3356 11.5286 17.3356C11.4354 17.3356 11.3433 17.3542 11.2574 17.3902C11.1715 17.4263 11.0938 17.4792 11.0286 17.5457L10.2086 18.3557C10.0603 18.507 9.97806 18.7109 9.97993 18.9227C9.98181 19.1346 10.0676 19.337 10.2186 19.4857L18.1686 27.4057C18.4086 27.639 18.5286 27.9223 18.5286 28.2557V32.0357C18.5286 32.4557 18.7386 32.6657 19.1586 32.6657H27.0286C27.3619 32.6657 27.5286 32.499 27.5286 32.1657V28.4157C27.5286 28.0023 27.6752 27.6457 27.9686 27.3457L35.7886 19.5257C35.9273 19.3907 36.0094 19.2077 36.0187 19.0131C36.028 18.8185 35.9637 18.6266 35.8386 18.4757L35.0786 17.5557C35.0173 17.4828 34.9415 17.4236 34.8557 17.3818C34.77 17.34 34.6763 17.3165 34.5805 17.3127C34.4847 17.309 34.3889 17.3251 34.2991 17.36C34.2093 17.3949 34.1274 17.4479 34.0586 17.5157L30.7386 20.8257C30.6707 20.8954 30.5885 20.9496 30.4977 20.9843C30.4068 21.0191 30.3094 21.0337 30.2124 21.027C30.1153 21.0204 30.0208 20.9926 29.9356 20.9458C29.8503 20.8989 29.7762 20.834 29.7186 20.7557L29.2386 20.1157C29.0186 19.8157 29.0452 19.539 29.3186 19.2857C31.0486 17.7057 34.5186 13.4957 36.5886 13.0057C39.6586 12.2757 41.7786 16.2257 39.3086 18.7357C36.0686 22.0157 32.8086 25.279 29.5286 28.5257C29.2552 28.799 29.1419 29.1257 29.1886 29.5057L31.3686 47.3457C31.3932 47.5256 31.4605 47.6973 31.5647 47.8468C31.669 47.9963 31.8074 48.1192 31.9686 48.2057C34.4086 49.4757 33.0686 51.0357 34.2486 52.2057C34.6619 52.6123 35.2152 52.6457 35.9086 52.3057C36.0395 52.2431 36.1841 52.2143 36.329 52.2219C36.4738 52.2295 36.6142 52.2732 36.737 52.3491C36.8598 52.425 36.961 52.5305 37.0312 52.6558C37.1015 52.7811 37.1384 52.9221 37.1386 53.0657L37.1486 56.1357C37.1486 56.489 37.3286 56.6657 37.6886 56.6657H39.7986C40.2586 56.6657 40.4819 56.8957 40.4686 57.3557L40.3286 63.1657ZM9.52858 15.1057C8.26191 14.8123 7.68191 15.3023 7.78858 16.5757C7.88191 17.649 8.26524 17.7657 8.93858 16.9257L9.79858 15.8757C9.84987 15.8121 9.88408 15.7364 9.89796 15.6559C9.91184 15.5754 9.90494 15.4926 9.8779 15.4155C9.85086 15.3384 9.80459 15.2695 9.74345 15.2153C9.68232 15.161 9.60836 15.1233 9.52858 15.1057ZM36.2686 15.9857L37.2786 17.0557C37.4108 17.2 37.592 17.2902 37.7869 17.3086C37.9818 17.327 38.1766 17.2723 38.3335 17.1553C38.4904 17.0382 38.5983 16.867 38.6362 16.6749C38.6741 16.4829 38.6393 16.2836 38.5386 16.1157C38.0786 15.309 37.4086 14.9957 36.5286 15.1757C36.4427 15.1936 36.3628 15.234 36.2975 15.2926C36.2321 15.3511 36.1836 15.4258 36.157 15.5086C36.1304 15.5914 36.1267 15.6794 36.1464 15.7633C36.166 15.8473 36.2082 15.9241 36.2686 15.9857ZM21.9386 38.7057C21.9921 38.4577 22.129 38.2355 22.3264 38.0762C22.5238 37.9168 22.7699 37.8299 23.0236 37.8299C23.2773 37.8299 23.5233 37.9168 23.7207 38.0762C23.9182 38.2355 24.055 38.4577 24.1086 38.7057L25.9686 47.6557C26.0352 47.9757 26.2352 48.119 26.5686 48.0857L28.8286 47.8557C29.2686 47.809 29.4552 47.569 29.3886 47.1357L27.7086 35.2457C27.6825 35.0843 27.6009 34.9374 27.4782 34.8312C27.3555 34.725 27.1997 34.6663 27.0386 34.6657H19.1086C18.6486 34.6657 18.3886 34.8923 18.3286 35.3457L16.6186 47.3857C16.5786 47.6723 16.7019 47.829 16.9886 47.8557L19.4986 48.0757C19.6309 48.086 19.7624 48.0482 19.869 47.9692C19.9756 47.8901 20.05 47.7752 20.0786 47.6457L21.9386 38.7057ZM22.1486 52.3557H23.9086C23.9722 52.3557 24.0333 52.3304 24.0783 52.2854C24.1233 52.2404 24.1486 52.1793 24.1486 52.1157V51.9657C24.1486 49.9739 24.0453 48.0637 23.8615 46.6553C23.6778 45.2469 23.4285 44.4557 23.1686 44.4557H22.8886C22.6287 44.4557 22.3794 45.2469 22.1956 46.6553C22.0118 48.0637 21.9086 49.9739 21.9086 51.9657V52.1157C21.9086 52.1793 21.9339 52.2404 21.9789 52.2854C22.0239 52.3304 22.0849 52.3557 22.1486 52.3557ZM20.0137 51.0179C20.0088 50.8696 19.9747 50.7237 19.9134 50.5885C19.8521 50.4534 19.7647 50.3316 19.6564 50.2302C19.548 50.1288 19.4207 50.0498 19.2818 49.9976C19.1429 49.9454 18.9951 49.921 18.8468 49.926L15.2088 50.0467C15.0605 50.0516 14.9146 50.0857 14.7794 50.147C14.6443 50.2083 14.5225 50.2956 14.4211 50.404C14.3198 50.5123 14.2407 50.6396 14.1885 50.7785C14.1363 50.9174 14.112 51.0653 14.1169 51.2136L14.1235 51.4135C14.1284 51.5618 14.1625 51.7077 14.2238 51.8428C14.2851 51.978 14.3724 52.0997 14.4808 52.2011C14.5891 52.3025 14.7164 52.3815 14.8553 52.4338C14.9942 52.486 15.1421 52.5103 15.2904 52.5054L18.9284 52.3847C19.0767 52.3797 19.2226 52.3457 19.3577 52.2844C19.4929 52.223 19.6146 52.1357 19.716 52.0274C19.8174 51.919 19.8965 51.7917 19.9487 51.6528C20.0009 51.5139 20.0252 51.3661 20.0203 51.2178L20.0137 51.0179ZM31.9698 51.1622C31.9744 50.8652 31.8609 50.5785 31.6542 50.3652C31.4475 50.1519 31.1645 50.0294 30.8675 50.0248L27.188 49.9669C27.0409 49.9646 26.8948 49.9912 26.7581 50.0454C26.6213 50.0995 26.4966 50.1801 26.3909 50.2824C26.2853 50.3848 26.2009 50.5069 26.1424 50.6419C26.084 50.7769 26.0528 50.9221 26.0505 51.0692L26.0474 51.2692C26.0427 51.5662 26.1562 51.8529 26.363 52.0662C26.5697 52.2795 26.8527 52.4019 27.1497 52.4066L30.8292 52.4645C30.9762 52.4668 31.1223 52.4401 31.2591 52.386C31.3958 52.3318 31.5206 52.2513 31.6262 52.1489C31.7319 52.0466 31.8163 51.9244 31.8747 51.7894C31.9331 51.6544 31.9644 51.5092 31.9667 51.3622L31.9698 51.1622ZM35.1886 55.2257C35.1886 55.0108 35.1032 54.8048 34.9513 54.6529C34.7994 54.501 34.5934 54.4157 34.3786 54.4157H11.6586C11.4438 54.4157 11.2377 54.501 11.0858 54.6529C10.9339 54.8048 10.8486 55.0108 10.8486 55.2257V55.8857C10.8486 55.992 10.8695 56.0974 10.9102 56.1956C10.9509 56.2939 11.0106 56.3832 11.0858 56.4584C11.161 56.5336 11.2503 56.5933 11.3486 56.634C11.4469 56.6747 11.5522 56.6957 11.6586 56.6957H34.3786C34.4849 56.6957 34.5903 56.6747 34.6885 56.634C34.7868 56.5933 34.8761 56.5336 34.9513 56.4584C35.0265 56.3832 35.0862 56.2939 35.1269 56.1956C35.1676 56.0974 35.1886 55.992 35.1886 55.8857V55.2257ZM38.4993 59.5827C38.4995 59.4763 38.4787 59.3709 38.4382 59.2726C38.3976 59.1742 38.3381 59.0848 38.263 59.0095C38.1879 58.9342 38.0987 58.8743 38.0005 58.8335C37.9023 58.7926 37.797 58.7715 37.6907 58.7713L8.35068 58.7201C8.24431 58.7199 8.13894 58.7407 8.0406 58.7812C7.94225 58.8217 7.85286 58.8812 7.77751 58.9563C7.70216 59.0314 7.64235 59.1206 7.60147 59.2188C7.56059 59.317 7.53946 59.4223 7.53928 59.5287L7.53788 60.3287C7.53769 60.435 7.55846 60.5404 7.599 60.6388C7.63953 60.7371 7.69904 60.8265 7.77413 60.9018C7.84922 60.9772 7.93841 61.037 8.03661 61.0779C8.13481 61.1188 8.24011 61.1399 8.34648 61.1401L37.6865 61.1913C37.7928 61.1914 37.8982 61.1707 37.9966 61.1301C38.0949 61.0896 38.1843 61.0301 38.2596 60.955C38.335 60.8799 38.3948 60.7907 38.4357 60.6925C38.4766 60.5943 38.4977 60.489 38.4979 60.3827L38.4993 59.5827Z" fill="#23315E"/>
<path d="M28.3786 18.3257C28.3786 19.7419 27.816 21.1002 26.8145 22.1016C25.8131 23.1031 24.4548 23.6657 23.0386 23.6657C21.6223 23.6657 20.2641 23.1031 19.2626 22.1016C18.2612 21.1002 17.6986 19.7419 17.6986 18.3257C17.6986 16.9094 18.2612 15.5512 19.2626 14.5497C20.2641 13.5483 21.6223 12.9857 23.0386 12.9857C24.4548 12.9857 25.8131 13.5483 26.8145 14.5497C27.816 15.5512 28.3786 16.9094 28.3786 18.3257ZM26.3486 18.3557C26.3486 17.4752 25.9988 16.6307 25.3762 16.0081C24.7536 15.3855 23.9091 15.0357 23.0286 15.0357C22.1481 15.0357 21.3036 15.3855 20.681 16.0081C20.0584 16.6307 19.7086 17.4752 19.7086 18.3557C19.7086 19.2362 20.0584 20.0806 20.681 20.7033C21.3036 21.3259 22.1481 21.6757 23.0286 21.6757C23.9091 21.6757 24.7536 21.3259 25.3762 20.7033C25.9988 20.0806 26.3486 19.2362 26.3486 18.3557Z" fill="#23315E"/>
<path d="M25.8798 27.9502C26.3883 27.5251 26.473 26.7889 26.0692 26.3059C25.6653 25.8229 24.9258 25.776 24.4173 26.2011C23.9089 26.6262 23.8241 27.3624 24.228 27.8454C24.6318 28.3284 25.3714 28.3754 25.8798 27.9502Z" fill="#23315E"/>
</svg>
