<svg width="62" height="70" viewBox="0 0 62 70" fill="none" xmlns="http://www.w3.org/2000/svg">
<path d="M14.8773 0H15.6473L17.6473 1.56C17.9739 1.81333 18.2639 1.77333 18.5173 1.44L19.6173 0H20.4373C21.0439 0.38 21.0539 1.13333 20.4673 2.26C20.2406 2.68667 20.3673 2.88333 20.8473 2.85C24.5606 2.57667 28.2606 2.64667 31.9473 3.06C35.3973 3.44 38.6673 5.52 42.2773 6.42C42.6106 6.50667 42.8473 6.39 42.9873 6.07C43.9806 3.75 45.3839 1.72667 47.1973 0H48.1473C50.1273 1.66 51.6173 3.71 52.6173 6.15C52.7706 6.51 53.0273 6.61333 53.3873 6.46C55.6406 5.50667 58.0106 5.10667 60.4973 5.26C60.7838 5.27806 61.0518 5.40739 61.2443 5.62038C61.4367 5.83337 61.5383 6.11316 61.5273 6.4C61.1473 15.6533 56.3206 20.17 47.0473 19.95C46.7406 19.9433 46.5906 20.0933 46.5973 20.4C46.6239 25.0667 46.6206 29.7767 46.5873 34.53C46.5573 37.83 45.0673 39.79 41.6173 39.21C41.2973 39.1567 41.0739 39.2767 40.9473 39.57C39.1939 43.69 36.3273 46.74 32.3473 48.72C31.9473 48.9133 31.9606 49.0767 32.3873 49.21C37.5073 50.7633 40.1473 54.28 40.3073 59.76C40.3973 62.99 41.1973 69.14 38.5373 70H31.8773C31.1506 67.8667 32.8773 67.2233 37.0573 68.07C37.1824 68.0949 37.3114 68.0921 37.4353 68.0616C37.5591 68.0311 37.6748 67.9738 37.774 67.8936C37.8733 67.8135 37.9537 67.7125 38.0095 67.5978C38.0654 67.4831 38.0953 67.3575 38.0973 67.23C38.1773 60.06 39.3573 50.61 28.8473 50.97C28.4873 50.9833 28.3239 51.17 28.3573 51.53C28.6273 54.66 26.5073 57.44 23.2373 56.87C21.0239 56.4767 19.4539 54.5433 18.5273 51.07C18.5166 51.033 18.4943 51.0004 18.4637 50.977C18.4331 50.9536 18.3958 50.9406 18.3573 50.94C7.97727 50.85 9.29727 60.05 9.36727 67.15C9.37394 67.57 9.58727 67.78 10.0073 67.78L28.4273 67.75C28.6229 67.7514 28.8144 67.8076 28.9799 67.9121C29.1453 68.0165 29.278 68.1651 29.3626 68.3406C29.4473 68.5161 29.4804 68.7114 29.4582 68.9042C29.436 69.0969 29.3594 69.2792 29.2373 69.43L28.7873 70H8.78727C7.57394 69.4267 7.00394 68.3633 7.07727 66.81C7.40727 59.2 5.91727 52.32 14.5573 49.33C14.6388 49.3002 14.7103 49.2476 14.7633 49.1787C14.8163 49.1098 14.8485 49.0275 14.8559 48.9418C14.8633 48.8561 14.8456 48.7706 14.8051 48.6958C14.7645 48.6209 14.7027 48.5599 14.6273 48.52C10.9139 46.4867 8.19394 43.5367 6.46727 39.67C6.3406 39.3767 6.11727 39.2433 5.79727 39.27C2.44394 39.5433 0.727269 37.9533 0.647269 34.5C0.477269 27.54 -0.0127316 19.99 2.12727 13.3C2.24727 12.9333 2.5006 12.75 2.88727 12.75H3.57727C3.67098 12.7493 3.76355 12.7705 3.84758 12.812C3.9316 12.8535 4.00473 12.9141 4.06111 12.989C4.1175 13.0638 4.15556 13.1509 4.17226 13.2431C4.18896 13.3353 4.18382 13.4301 4.15727 13.52C2.13727 20.56 2.84727 27.86 2.85727 35.13C2.85727 35.8767 3.03394 36.3967 3.38727 36.69C3.75394 36.99 4.21727 37.09 4.77727 36.99C4.9906 36.9567 5.09394 36.8333 5.08727 36.62L4.76727 22.66C4.76173 22.4733 4.79442 22.2875 4.86332 22.1139C4.93222 21.9404 5.03588 21.7827 5.16793 21.6507C5.29998 21.5186 5.45763 21.415 5.63121 21.3461C5.80478 21.2772 5.9906 21.2445 6.17727 21.25C14.0306 21.4767 21.3706 19.71 28.1973 15.95C28.4724 15.7982 28.7934 15.7511 29.1018 15.8172C29.4102 15.8833 29.6854 16.0582 29.8773 16.31C32.9673 20.41 37.0873 20.67 41.8073 21.43C41.9867 21.4583 42.1503 21.5491 42.2692 21.6863C42.3882 21.8235 42.4548 21.9984 42.4573 22.18L42.5973 27.37C42.5836 27.6344 42.4715 27.8841 42.2831 28.07C42.0946 28.2559 41.8434 28.3645 41.5788 28.3746C41.3143 28.3846 41.0556 28.2953 40.8536 28.1242C40.6516 27.9531 40.5209 27.7126 40.4873 27.45L40.2973 23.65C40.2773 23.2767 40.0806 23.0867 39.7073 23.08C35.4606 23.04 31.8673 21.5167 28.9273 18.51C28.6473 18.2233 28.3306 18.1767 27.9773 18.37C21.7373 21.77 15.0339 23.38 7.86727 23.2C7.73642 23.1974 7.60635 23.2207 7.48458 23.2686C7.3628 23.3165 7.25174 23.3882 7.15782 23.4793C7.06389 23.5704 6.98897 23.6793 6.93738 23.7996C6.88579 23.9198 6.85856 24.0491 6.85727 24.18C6.82727 33.96 6.77727 42.79 16.7773 47.24C28.2973 52.36 40.7573 44.02 40.3873 31.53C40.3789 31.3082 40.4453 31.0899 40.5759 30.9104C40.7065 30.7308 40.8936 30.6004 41.1073 30.54C42.0206 30.28 42.4606 30.6833 42.4273 31.75C42.3673 33.29 42.2173 34.8233 41.9773 36.35C41.9239 36.6967 42.0673 36.9033 42.4073 36.97C43.7773 37.25 44.5873 36.53 44.5873 35.14C44.6006 30.2467 44.6073 25.3533 44.6073 20.46C44.6073 20.1067 44.4373 19.8867 44.0973 19.8C37.2506 18 33.9106 13.4767 34.0773 6.23C34.0839 5.90333 33.9339 5.68333 33.6273 5.57C32.1739 5.03 30.6673 4.75667 29.1073 4.75C20.8373 4.71 12.1973 3.31 6.25727 10.52C6.10821 10.6989 5.90811 10.8276 5.68435 10.8884C5.4606 10.9493 5.22411 10.9394 5.00727 10.86C4.16727 10.5533 4.09727 9.98667 4.79727 9.16C7.49727 5.95333 10.8973 3.91 14.9973 3.03C15.3906 2.95 15.4639 2.75 15.2173 2.43C14.3506 1.32333 14.2373 0.513333 14.8773 0ZM46.7573 3.57C43.4106 8.31667 43.6306 12.8533 47.4173 17.18C47.4694 17.2397 47.534 17.2871 47.6066 17.319C47.6791 17.3509 47.7577 17.3665 47.837 17.3646C47.9162 17.3627 47.994 17.3434 48.0649 17.308C48.1358 17.2726 48.1981 17.2221 48.2473 17.16C51.6939 12.7667 51.9006 8.24667 48.8673 3.6C48.1806 2.56 47.4773 2.55 46.7573 3.57ZM36.1373 7.75C36.2373 12.39 39.5673 16.91 44.3673 17.69C44.9073 17.7767 45.0239 17.5967 44.7173 17.15C43.1173 14.8167 42.3273 12.2167 42.3473 9.35C42.3539 8.89667 42.1406 8.61 41.7073 8.49L36.8973 7.16C36.8072 7.13506 36.7126 7.13151 36.6209 7.14961C36.5292 7.16772 36.443 7.20699 36.3692 7.26429C36.2954 7.3216 36.236 7.39535 36.1957 7.47968C36.1555 7.564 36.1354 7.65657 36.1373 7.75ZM50.6473 17.21C50.5957 17.2674 50.5644 17.3395 50.558 17.416C50.5516 17.4924 50.5704 17.5692 50.6117 17.635C50.653 17.7009 50.7146 17.7524 50.7876 17.782C50.8605 17.8117 50.941 17.818 51.0173 17.8C56.1439 16.4733 58.9306 13.15 59.3773 7.83C59.4173 7.40333 59.2206 7.20333 58.7873 7.23C56.8939 7.34333 55.1373 7.90667 53.5173 8.92C53.3753 9.00767 53.2596 9.13192 53.1822 9.27971C53.1048 9.4275 53.0685 9.59339 53.0773 9.76C53.2706 12.6133 52.4606 15.0967 50.6473 17.21ZM25.9673 50.88L21.3673 50.9C21.2585 50.9 21.1542 50.9432 21.0774 51.0201C21.0005 51.097 20.9573 51.2013 20.9573 51.31L20.9673 52.05C20.9702 52.7738 21.2246 53.467 21.6747 53.9771C22.1248 54.4871 22.7336 54.7724 23.3673 54.77H24.0073C24.3212 54.7688 24.6318 54.697 24.9214 54.5587C25.2109 54.4204 25.4737 54.2182 25.6947 53.9637C25.9157 53.7093 26.0906 53.4075 26.2095 53.0757C26.3283 52.744 26.3887 52.3886 26.3873 52.03L26.3773 51.29C26.3773 51.1813 26.3341 51.077 26.2572 51.0001C26.1803 50.9232 26.076 50.88 25.9673 50.88Z" fill="white"/>
<path d="M17.7573 29.46L18.4473 27.93C18.5275 27.7597 18.6607 27.62 18.8271 27.5319C18.9934 27.4438 19.1838 27.412 19.3698 27.4413C19.5557 27.4706 19.7271 27.5594 19.8583 27.6944C19.9895 27.8294 20.0733 28.0033 20.0973 28.19C20.6573 33.05 13.4373 33.07 13.5873 28.32C13.5975 28.0861 13.693 27.8631 13.8557 27.6934C14.0183 27.5237 14.2369 27.4191 14.47 27.3994C14.703 27.3797 14.9343 27.4462 15.1199 27.5864C15.3056 27.7266 15.4327 27.9307 15.4773 28.16C15.6506 29.02 16.1406 29.5733 16.9473 29.82C17.1044 29.8694 17.2739 29.86 17.4233 29.7936C17.5727 29.7272 17.6916 29.6084 17.7573 29.46Z" fill="white"/>
<path d="M33.8173 28.14C34.5273 32.47 27.3273 33.55 27.1373 28.47C27.1332 28.3769 27.1481 28.2839 27.1809 28.1967C27.2138 28.1095 27.264 28.0299 27.3284 27.9626C27.3929 27.8953 27.4704 27.8418 27.5561 27.8052C27.6418 27.7687 27.7341 27.7499 27.8273 27.75H28.3873C28.8739 27.75 29.1506 27.9933 29.2173 28.48C29.3439 29.4533 29.9306 29.8767 30.9773 29.75C31.1341 29.7314 31.2793 29.6579 31.3872 29.5427C31.4952 29.4274 31.5589 29.2777 31.5673 29.12C31.6206 28.2133 32.0939 27.6867 32.9873 27.54C33.1784 27.5108 33.3731 27.5576 33.5287 27.6701C33.6843 27.7826 33.7881 27.9516 33.8173 28.14Z" fill="white"/>
<path d="M28.3873 39.91C28.5539 39.39 28.8473 38.9467 29.2673 38.58C29.4836 38.3764 29.7704 38.2644 30.0675 38.2676C30.3646 38.2707 30.649 38.3887 30.861 38.5969C31.073 38.805 31.1962 39.0871 31.2049 39.3841C31.2135 39.6811 31.1068 39.9699 30.9073 40.19C26.6939 45.29 22.2706 45.7367 17.6373 41.53C16.9273 40.87 16.3873 39.63 16.6473 38.75C16.6962 38.5867 16.7919 38.4414 16.9227 38.3321C17.0535 38.2227 17.2135 38.1543 17.3828 38.1351C17.5522 38.1159 17.7235 38.1469 17.8754 38.2242C18.0273 38.3015 18.1531 38.4218 18.2373 38.57C20.5506 42.6567 23.7373 43.3633 27.7973 40.69C28.0817 40.5029 28.2904 40.227 28.3873 39.91Z" fill="white"/>
</svg>
