<svg width="70" height="71" viewBox="0 0 70 71" fill="none" xmlns="http://www.w3.org/2000/svg">
<path d="M20.82 0.5H44.57C46.31 8.49333 44.1933 14.76 38.22 19.3C37.9067 19.54 37.75 19.8533 37.75 20.24V26.97C37.75 27.3833 37.9533 27.54 38.36 27.44C44.07 26.01 44.21 35.28 37.86 37.01C37.7271 37.0469 37.605 37.1152 37.5041 37.2092C37.4031 37.3032 37.3263 37.4201 37.28 37.55C35.7 41.73 32.7733 44.44 28.5 45.68C28.2 45.7667 27.8967 45.7833 27.59 45.73C27.0567 45.6367 26.6 45.7667 26.22 46.12C26.156 46.1794 26.1093 46.2551 26.0852 46.3391C26.061 46.423 26.0602 46.512 26.0828 46.5963C26.1054 46.6807 26.1507 46.7573 26.2136 46.8178C26.2765 46.8784 26.3548 46.9206 26.44 46.94C29.3067 47.6067 31.9667 48.73 34.42 50.31C38.08 52.66 37.75 67.43 37.54 70.5H5.06C4.86 64.7067 5.31 58.9033 6.41 53.09C7.06 49.67 13.39 47.61 16.26 46.91C16.3769 46.8874 16.4815 46.8231 16.5544 46.729C16.6273 46.6349 16.6635 46.5174 16.6561 46.3986C16.6488 46.2798 16.5984 46.1678 16.5145 46.0834C16.4306 45.999 16.3188 45.948 16.2 45.94C10.9667 45.3267 7.40667 42.5633 5.52 37.65C5.38667 37.3167 5.14333 37.1033 4.79 37.01C2.36333 36.37 0.766667 34.8367 0 32.41V30.23C0.54 28.41 2.16667 27.3867 4.88 27.16C4.96667 27.1533 5.00667 27.11 5 27.03L4.67 23.15C4.64333 22.8233 4.47667 22.5967 4.17 22.47C1.32 21.29 2.3 12.44 2.84 9.78C2.86802 9.63084 2.94735 9.49618 3.06425 9.39937C3.18114 9.30257 3.32823 9.24973 3.48 9.25H3.92C4.36667 9.25 4.58667 9.47333 4.58 9.92L4.46 19.91C4.46 20.35 4.67 20.6233 5.09 20.73C8.69 21.6633 11.8767 21.0667 14.65 18.94C14.9633 18.7 15.0567 18.3933 14.93 18.02C13.9033 14.9267 13.64 11.7367 14.14 8.45C14.2267 7.87667 13.98 7.60333 13.4 7.63L5.95 8.05C5.85227 8.05511 5.75583 8.02594 5.67732 7.96751C5.59881 7.90909 5.54317 7.82508 5.52 7.73C5.28 6.67 6.15 5.98 7.15 5.9C9.35667 5.71333 11.57 5.67667 13.79 5.79C13.9507 5.79575 14.1099 5.75787 14.2507 5.6804C14.3916 5.60293 14.5088 5.48875 14.59 5.35C16.03 2.84333 18.1067 1.22667 20.82 0.5ZM16.61 16.32C18.95 20.8 24.13 19.73 28.02 19.75C38.04 19.83 43.93 13.54 42.92 3.12C42.8867 2.78667 42.7033 2.61667 42.37 2.61C31.4567 2.35 24.44 2.33667 21.32 2.57C15.49 3 14.66 12.58 16.61 16.32ZM7.52 22.99C7.42483 22.9765 7.32785 22.9844 7.23606 23.0129C7.14427 23.0414 7.05995 23.0899 6.98917 23.155C6.9184 23.22 6.86293 23.2999 6.82676 23.389C6.79058 23.4781 6.77462 23.574 6.78 23.67C7.3 33.56 4.9 43.63 18.84 44.01C24.96 44.18 31.05 44.49 34.26 39.21C36.78 35.07 35.81 26.29 35.77 21.33C35.7633 20.9833 35.59 20.8433 35.25 20.91C30.13 21.95 21.24 22.98 17.01 19.99C16.75 19.8033 16.5067 19.8233 16.28 20.05C13.88 22.51 10.96 23.49 7.52 22.99ZM2.38 29.79L2.06 30.11C1.95524 30.2042 1.89217 30.3361 1.88467 30.4767C1.87717 30.6174 1.92585 30.7552 2.02 30.86C2.11415 30.9648 2.24606 31.0278 2.38672 31.0353C2.52737 31.0428 2.66524 30.9942 2.77 30.9C3.19667 30.5533 3.68 30.4233 4.22 30.51C4.37913 30.5418 4.54439 30.5091 4.67941 30.4191C4.81444 30.3291 4.90817 30.1891 4.94 30.03C4.97183 29.8709 4.93913 29.7056 4.84912 29.5706C4.7591 29.4356 4.61913 29.3418 4.46 29.31C4.09333 29.2167 3.71333 29.2067 3.32 29.28C2.95333 29.3533 2.64 29.5233 2.38 29.79ZM39.3 30.52L40.09 30.93C40.1782 30.9723 40.2775 30.9854 40.3736 30.9674C40.4697 30.9494 40.5576 30.9012 40.6245 30.8298C40.6914 30.7585 40.7338 30.6677 40.7456 30.5706C40.7573 30.4736 40.7379 30.3753 40.69 30.29C40.1633 29.4367 39.4367 29.1733 38.51 29.5C38.4396 29.5263 38.3767 29.5694 38.3268 29.6255C38.2769 29.6817 38.2415 29.7493 38.2238 29.8223C38.206 29.8953 38.2064 29.9715 38.2249 30.0443C38.2435 30.1172 38.2795 30.1843 38.33 30.24C38.5367 30.4733 38.7733 30.5567 39.04 30.49C39.1333 30.4633 39.22 30.4733 39.3 30.52ZM37.65 33.63C37.5747 33.8008 37.5628 33.9937 37.6166 34.1733C37.6704 34.3529 37.7862 34.5073 37.9429 34.6081C38.0996 34.7089 38.2866 34.7494 38.4697 34.7222C38.6528 34.695 38.8198 34.6019 38.94 34.46L40.45 32.72C40.7767 32.34 40.69 32.15 40.19 32.15C38.9433 32.15 38.0967 32.6433 37.65 33.63ZM2.97 32.27C2.17 32.31 2.04333 32.6233 2.59 33.21L4 34.71C4.07562 34.7932 4.17377 34.8521 4.28259 34.8796C4.3914 34.9071 4.50619 34.902 4.61307 34.865C4.71995 34.828 4.81433 34.7605 4.88478 34.6709C4.95523 34.5813 4.99872 34.4733 5.01 34.36C5.15667 32.8867 4.47667 32.19 2.97 32.27ZM23.47 46.02L19.21 45.98C19.1291 45.9787 19.0487 45.9935 18.9735 46.0235C18.8983 46.0536 18.8299 46.0983 18.7722 46.1551C18.7145 46.2119 18.6686 46.2796 18.6374 46.3542C18.6061 46.4289 18.59 46.509 18.59 46.59V46.78C18.5827 47.6334 18.8293 48.454 19.2756 49.0615C19.7218 49.669 20.3313 50.0138 20.97 50.02H21.63C21.9467 50.0231 22.2611 49.9428 22.5552 49.7836C22.8493 49.6244 23.1173 49.3895 23.3439 49.0923C23.5705 48.7951 23.7513 48.4415 23.8759 48.0516C24.0004 47.6617 24.0664 47.2432 24.07 46.82V46.63C24.07 46.4699 24.0071 46.3163 23.8949 46.2022C23.7826 46.088 23.63 46.0226 23.47 46.02ZM17.3 53.41L18.78 52.61C18.8789 52.5551 18.9523 52.4635 18.9841 52.3549C19.0159 52.2463 19.0037 52.1296 18.95 52.03L18.89 51.91C18.367 50.9387 17.7476 50.0707 17.1681 49.4969C16.5887 48.9231 16.0965 48.6904 15.8 48.85C15.5047 49.0118 15.4294 49.5525 15.5907 50.3532C15.7519 51.154 16.1366 52.1492 16.66 53.12L16.72 53.23C16.7732 53.3307 16.8641 53.4061 16.9728 53.4399C17.0815 53.4736 17.1992 53.4629 17.3 53.41ZM23.73 52.44L25.61 53.54C25.6619 53.5696 25.7233 53.5777 25.7812 53.5628C25.8391 53.5479 25.8888 53.511 25.92 53.46L26.02 53.29C26.5685 52.3469 26.9818 51.3772 27.1693 50.5936C27.3567 49.81 27.3031 49.2764 27.02 49.11L26.88 49.03C26.5961 48.8648 26.1061 49.0805 25.5174 49.6299C24.9287 50.1792 24.2895 51.0172 23.74 51.96L23.64 52.13C23.6113 52.1831 23.6046 52.2454 23.6215 52.3034C23.6383 52.3614 23.6773 52.4105 23.73 52.44ZM14.31 60.52L12.96 67.79C12.8733 68.2633 13.07 68.5 13.55 68.5H17.99C18.37 68.5 18.4933 68.32 18.36 67.96C17.1533 64.8267 17.19 61.6567 18.47 58.45C18.5804 58.1843 18.598 57.8884 18.52 57.61C18.2 56.4367 17.5233 56.1533 16.49 56.76C16.0433 57.02 15.7367 56.9033 15.57 56.41L13.57 50.57C13.5408 50.4849 13.4937 50.4071 13.432 50.3419C13.3703 50.2766 13.2955 50.2256 13.2127 50.1923C13.13 50.159 13.0412 50.1442 12.9527 50.149C12.8641 50.1538 12.7779 50.178 12.7 50.22L8.88 52.24C8.69549 52.3383 8.53794 52.48 8.42114 52.6526C8.30434 52.8252 8.23184 53.0234 8.21 53.23L6.78 67.85C6.73333 68.2833 6.93 68.5 7.37 68.5H10.23C10.6167 68.5 10.84 68.3067 10.9 67.92C11.3 65.3733 11.7967 62.8433 12.39 60.33C12.57 59.5433 13.0267 59.2833 13.76 59.55C13.9506 59.6195 14.1103 59.755 14.211 59.9325C14.3116 60.11 14.3467 60.3181 14.31 60.52ZM26.41 56.78L25.47 56.54C25.2672 56.4874 25.0537 56.4923 24.8535 56.5541C24.6533 56.6159 24.4741 56.7321 24.3362 56.8898C24.1982 57.0475 24.1068 57.2404 24.0721 57.4471C24.0375 57.6537 24.061 57.8659 24.14 58.06C25.5 61.3667 25.5967 64.6667 24.43 67.96C24.2967 68.32 24.4233 68.5 24.81 68.5H29.2C29.6733 68.5 29.8667 68.2667 29.78 67.8L28.36 60.34C28.28 59.9267 28.4467 59.69 28.86 59.63L29.68 59.5C29.8322 59.4767 29.9875 59.5139 30.1127 59.6036C30.2379 59.6933 30.3231 59.8284 30.35 59.98L31.88 68.09C31.9267 68.3633 32.09 68.5 32.37 68.5H35.41C35.85 68.5 36.0467 68.28 36 67.84L34.47 53.22C34.4233 52.78 34.2067 52.4567 33.82 52.25L29.89 50.17C29.59 50.01 29.3833 50.09 29.27 50.41L27.1 56.42C26.98 56.7533 26.75 56.8733 26.41 56.78ZM23.24 54.45L21.83 52.92C21.5639 52.6368 21.2323 52.4966 20.8899 52.5227C20.5476 52.5488 20.215 52.7395 19.9471 53.0634C19.6791 53.3873 19.4917 53.825 19.4159 54.3044C19.3401 54.7837 19.3803 55.276 19.53 55.7C19.75 56.32 20.8167 56.4333 22.73 56.04C22.8961 56.0053 23.0501 55.9272 23.1762 55.8136C23.3023 55.7001 23.3961 55.5551 23.4479 55.3935C23.4997 55.2319 23.5078 55.0594 23.4713 54.8937C23.4348 54.7279 23.355 54.5749 23.24 54.45ZM20.25 58.86C19.53 60.8 19.45 64.1 19.68 66.39C19.7076 66.6789 19.8183 66.9536 19.9989 67.1808C20.1794 67.408 20.422 67.5779 20.6972 67.67C20.9724 67.7621 21.2685 67.7724 21.5494 67.6996C21.8303 67.6268 22.0841 67.4741 22.28 67.26C23.96 65.43 22.92 61.21 22.49 59.04C22.4391 58.7918 22.3089 58.5668 22.1191 58.3989C21.9294 58.231 21.6902 58.1292 21.4376 58.1089C21.185 58.0886 20.9326 58.1509 20.7185 58.2863C20.5043 58.4218 20.3399 58.6231 20.25 58.86Z" fill="currentColor"/>
<path d="M70 15.59V20.01C69.43 21.11 68.69 21.72 67.35 21.73C60.9367 21.7567 54.4967 21.76 48.03 21.74C47.4916 21.74 46.9753 21.5251 46.5946 21.1425C46.2139 20.7599 46 20.241 46 19.7V15.55C46 15.0107 46.2135 14.4933 46.594 14.111C46.9744 13.7287 47.4907 13.5126 48.03 13.51C54.49 13.4833 61.1467 13.4833 68 13.51C68.96 13.5167 69.6267 14.21 70 15.59ZM61.68 16.07C61.68 15.9188 61.6199 15.7738 61.5131 15.6669C61.4062 15.5601 61.2612 15.5 61.11 15.5H48.57C48.4188 15.5 48.2738 15.5601 48.167 15.6669C48.0601 15.7738 48 15.9188 48 16.07V19.17C48 19.3212 48.0601 19.4662 48.167 19.5731C48.2738 19.6799 48.4188 19.74 48.57 19.74H61.11C61.2612 19.74 61.4062 19.6799 61.5131 19.5731C61.6199 19.4662 61.68 19.3212 61.68 19.17V16.07ZM67.9773 16.1507C67.9765 16.0627 67.9584 15.9757 67.924 15.8947C67.8897 15.8138 67.8397 15.7403 67.7769 15.6787C67.7141 15.617 67.6398 15.5683 67.5583 15.5353C67.4767 15.5024 67.3894 15.4858 67.3014 15.4866L64.2016 15.5136C64.1136 15.5144 64.0266 15.5324 63.9456 15.5668C63.8646 15.6012 63.7912 15.6512 63.7295 15.7139C63.6679 15.7767 63.6191 15.851 63.5862 15.9326C63.5532 16.0141 63.5366 16.1014 63.5374 16.1894L63.5627 19.0893C63.5635 19.1773 63.5816 19.2643 63.616 19.3453C63.6503 19.4262 63.7003 19.4997 63.7631 19.5613C63.8259 19.623 63.9002 19.6717 63.9818 19.7047C64.0633 19.7376 64.1506 19.7542 64.2386 19.7534L67.3384 19.7264C67.4264 19.7256 67.5134 19.7076 67.5944 19.6732C67.6754 19.6388 67.7488 19.5888 67.8105 19.5261C67.8721 19.4633 67.9209 19.389 67.9538 19.3074C67.9868 19.2259 68.0034 19.1386 68.0026 19.0506L67.9773 16.1507Z" fill="currentColor"/>
<path d="M70 27.32V32C69.2867 33.16 68.4533 33.74 67.5 33.74C61.1533 33.7533 54.77 33.7533 48.35 33.74C47.737 33.7402 47.1482 33.5009 46.7092 33.073C46.2701 32.6452 46.0157 32.0628 46 31.45C45.94 29.39 45.16 25.44 48.56 25.37C54.7067 25.25 60.8533 25.2233 67 25.29C68.5467 25.31 69.5467 25.9867 70 27.32ZM56.9883 28.0335C56.9891 27.8823 56.9298 27.7371 56.8234 27.6296C56.7171 27.5222 56.5725 27.4614 56.4213 27.4606L48.5814 27.4195C48.5065 27.4191 48.4323 27.4335 48.363 27.4617C48.2937 27.49 48.2307 27.5317 48.1775 27.5843C48.1243 27.637 48.0819 27.6996 48.0529 27.7686C48.0239 27.8376 48.0088 27.9116 48.0084 27.9865L47.9917 31.1665C47.9909 31.3177 48.0502 31.4629 48.1566 31.5704C48.2629 31.6778 48.4075 31.7386 48.5587 31.7394L56.3986 31.7805C56.4735 31.7809 56.5477 31.7665 56.617 31.7383C56.6863 31.71 56.7493 31.6683 56.8025 31.6157C56.8557 31.563 56.8981 31.5004 56.9271 31.4314C56.9561 31.3624 56.9712 31.2884 56.9716 31.2135L56.9883 28.0335ZM67.99 28.07C67.99 27.9188 67.9299 27.7738 67.8231 27.6669C67.7162 27.5601 67.5712 27.5 67.42 27.5H59.56C59.4088 27.5 59.2638 27.5601 59.1569 27.6669C59.0501 27.7738 58.99 27.9188 58.99 28.07V31.17C58.99 31.3212 59.0501 31.4662 59.1569 31.5731C59.2638 31.6799 59.4088 31.74 59.56 31.74H67.42C67.5712 31.74 67.7162 31.6799 67.8231 31.5731C67.9299 31.4662 67.99 31.3212 67.99 31.17V28.07Z" fill="currentColor"/>
<path d="M12.69 28.5599C12.6993 29.8854 13.3425 30.9554 14.1268 30.9499C14.911 30.9445 15.5392 29.8655 15.53 28.5401C15.5207 27.2146 14.8775 26.1446 14.0932 26.1501C13.309 26.1555 12.6808 27.2345 12.69 28.5599Z" fill="currentColor"/>
<path d="M27.18 28.5125C27.1731 29.8324 27.8122 30.9058 28.6075 30.91C29.4028 30.9141 30.0531 29.8475 30.06 28.5275C30.0669 27.2076 29.4278 26.1342 28.6325 26.13C27.8372 26.1259 27.1869 27.1925 27.18 28.5125Z" fill="currentColor"/>
<path d="M18.47 36.21L18.92 35.91C19.08 35.81 19.24 35.8067 19.4 35.9C20.6733 36.68 21.9533 36.69 23.24 35.93C23.4148 35.8228 23.6226 35.7824 23.8248 35.8163C24.0271 35.8502 24.2103 35.9561 24.3407 36.1144C24.471 36.2728 24.5397 36.4729 24.5341 36.6779C24.5284 36.883 24.4488 37.079 24.31 37.23C22.49 39.23 20.5533 39.2933 18.5 37.42C18.34 37.2733 18.25 37.12 18.23 36.96C18.2233 36.8533 18.2367 36.7567 18.27 36.67C18.3833 36.37 18.45 36.2167 18.47 36.21Z" fill="currentColor"/>
<path d="M70 39.34V43.56C69.6533 44.9533 68.7133 45.6633 67.18 45.69C59.8467 45.81 53.7233 45.81 48.81 45.69C45.21 45.6 45.95 41.76 46.01 39.49C46.0256 38.8931 46.2738 38.3259 46.7016 37.9094C47.1294 37.4928 47.7029 37.2598 48.3 37.26C54.7733 37.24 61.2567 37.24 67.75 37.26C68.7567 37.26 69.5067 37.9533 70 39.34ZM63.9329 39.7139C63.933 39.6561 63.9217 39.5989 63.8997 39.5455C63.8777 39.492 63.8454 39.4435 63.8046 39.4025C63.7638 39.3616 63.7154 39.3291 63.662 39.3069C63.6087 39.2847 63.5515 39.2732 63.4937 39.2731L48.4737 39.2469C48.357 39.2467 48.245 39.2929 48.1624 39.3752C48.0798 39.4576 48.0332 39.5694 48.033 39.6861L48.0271 43.0661C48.027 43.1239 48.0383 43.1811 48.0603 43.2345C48.0823 43.288 48.1146 43.3365 48.1554 43.3775C48.1962 43.4184 48.2446 43.4509 48.298 43.4731C48.3513 43.4953 48.4085 43.5068 48.4663 43.5069L63.4863 43.5331C63.603 43.5333 63.7149 43.4871 63.7976 43.4048C63.8802 43.3224 63.9268 43.2106 63.927 43.0939L63.9329 39.7139ZM68.0049 40.2363C68.0033 40.1037 67.9756 39.9727 67.9233 39.8507C67.871 39.7288 67.7953 39.6184 67.7004 39.5258C67.6054 39.4331 67.4932 39.3601 67.37 39.3108C67.2469 39.2616 67.1152 39.2371 66.9826 39.2387L66.7426 39.2416C66.4748 39.2449 66.2192 39.3545 66.0321 39.5462C65.8451 39.7379 65.7418 39.9961 65.7451 40.2639L65.7751 42.7237C65.7767 42.8563 65.8044 42.9873 65.8567 43.1093C65.9089 43.2312 65.9847 43.3416 66.0796 43.4342C66.1746 43.5269 66.2868 43.5999 66.41 43.6492C66.5331 43.6984 66.6648 43.7229 66.7974 43.7213L67.0374 43.7184C67.3052 43.7151 67.5608 43.6056 67.7479 43.4138C67.9349 43.2221 68.0382 42.9639 68.0349 42.6961L68.0049 40.2363Z" fill="currentColor"/>
<path d="M70 51.36V55.53C69.5467 56.8967 68.5467 57.5733 67 57.56C60.7333 57.5267 54.4467 57.5033 48.14 57.49C47.5715 57.4874 47.0272 57.2597 46.6262 56.8568C46.2251 56.4538 46 55.9085 46 55.34V51.25C46 50.7196 46.2107 50.2109 46.5858 49.8358C46.9609 49.4607 47.4696 49.25 48 49.25H60.76C60.9279 49.2496 61.0911 49.3055 61.2235 49.4089C61.3559 49.5122 61.4497 49.657 61.49 49.82C61.6033 50.32 61.51 50.7067 61.21 50.98C60.9967 51.1667 60.6667 51.2533 60.22 51.24C58.7267 51.2 57.2333 51.2167 55.74 51.29C55.4133 51.31 55.25 51.4833 55.25 51.81V55C55.25 55.3333 55.4167 55.5 55.75 55.5H67.25C67.75 55.5 68 55.25 68 54.75V51.92C68 51.7476 67.9326 51.5823 67.8125 51.4604C67.6925 51.3385 67.5297 51.27 67.36 51.27L64.65 51.24C64.1433 51.2333 63.8667 50.98 63.82 50.48L63.77 50.04C63.7233 49.5667 63.9367 49.3167 64.41 49.29C66.8 49.16 69.31 48.65 70 51.36ZM53.2439 51.8325C53.2422 51.6708 53.1763 51.5163 53.0607 51.4031C52.9451 51.29 52.7894 51.2273 52.6276 51.229L48.5878 51.2713C48.426 51.273 48.2716 51.3389 48.1584 51.4544C48.0452 51.57 47.9825 51.7258 47.9842 51.8876L48.0161 54.9275C48.0178 55.0893 48.0837 55.2437 48.1993 55.3569C48.3149 55.47 48.4707 55.5327 48.6324 55.531L52.6722 55.4887C52.834 55.487 52.9884 55.4211 53.1016 55.3056C53.2148 55.19 53.2775 55.0342 53.2758 54.8724L53.2439 51.8325Z" fill="currentColor"/>
</svg>
