<svg width="21" height="21" viewBox="0 0 21 21" fill="none" xmlns="http://www.w3.org/2000/svg">
<path d="M20.8203 10.4065C20.8203 15.9203 16.3341 20.4065 10.8203 20.4065C5.30652 20.4065 0.820312 15.9203 0.820312 10.4065C0.820312 4.8927 5.30652 0.406494 10.8203 0.406494C16.3341 0.406494 20.8203 4.8927 20.8203 10.4065Z" fill="#E6BF8D"/>
<path d="M9.73411 7.26856V13.5444C9.73411 13.7341 9.58238 13.8893 9.38928 13.8893H8.56859C8.37893 13.8893 8.22376 13.7341 8.22376 13.5444V9.30914C8.22376 9.00116 7.89473 8.80494 7.62376 8.95132C7.53066 9.00305 7.41686 9.00649 7.32031 8.96511C7.22376 8.92029 7.15135 8.83753 7.12376 8.73408L6.96169 8.0858C6.92376 7.93408 6.99273 7.77201 7.13411 7.69615L8.50307 6.96512C8.5548 6.93753 8.60997 6.92374 8.66514 6.92374H9.38928C9.58238 6.92374 9.73411 7.07891 9.73411 7.26856Z" fill="#F2F2F2"/>
<path d="M14.6893 7.26856V13.5444C14.6893 13.7341 14.5341 13.8893 14.3445 13.8893H13.5238C13.3341 13.8893 13.1789 13.7341 13.1789 13.5444V9.31218C13.1789 9.00241 12.8484 8.80474 12.5755 8.95132C12.4824 9.00305 12.372 9.00649 12.2755 8.96511C12.1755 8.92029 12.1031 8.83753 12.0789 8.73408L11.9134 8.0858C11.8755 7.93408 11.9445 7.77201 12.0858 7.69615L13.4582 6.96512C13.5065 6.93753 13.5617 6.92374 13.6203 6.92374H14.3445C14.5341 6.92374 14.6893 7.07891 14.6893 7.26856Z" fill="#F2F2F2"/>
</svg>
