<svg width="21" height="21" viewBox="0 0 21 21" fill="none" xmlns="http://www.w3.org/2000/svg">
<path d="M20.8203 10.3658C20.8203 15.8796 16.3341 20.3658 10.8203 20.3658C5.30652 20.3658 0.820312 15.8796 0.820312 10.3658C0.820312 4.85205 5.30652 0.365845 10.8203 0.365845C16.3341 0.365845 20.8203 4.85205 20.8203 10.3658Z" fill="#E6BF8D"/>
<path d="M8.98066 7.22791V13.5038C8.98066 13.6934 8.82893 13.8486 8.63583 13.8486H7.81514C7.62548 13.8486 7.47031 13.6934 7.47031 13.5038V9.26849C7.47031 8.96051 7.14128 8.76429 6.87031 8.91067C6.77721 8.96205 6.66342 8.96585 6.56686 8.92447C6.47031 8.87964 6.3979 8.79688 6.37031 8.69343L6.20824 8.04516C6.17031 7.89343 6.23928 7.73136 6.38066 7.65516L7.74962 6.92447C7.80135 6.89688 7.85686 6.88309 7.91169 6.88309H8.63617C8.82893 6.88309 8.98066 7.0386 8.98066 7.22791Z" fill="#F2F2F2"/>
<path d="M13.022 6.77619C11.4841 6.77619 10.4945 8.19343 10.4945 10.3869C10.5155 12.5869 11.4427 13.9558 12.9155 13.9558C14.5186 13.9558 15.4431 12.6214 15.4431 10.2972C15.4427 8.09343 14.5358 6.77619 13.022 6.77619ZM12.9634 12.6072C12.3979 12.6072 12.0324 11.7383 12.0324 10.3934C12.0324 9.03481 12.412 8.12102 12.9738 8.12102C13.8117 8.12102 13.901 9.66929 13.901 10.3348C13.9013 11.021 13.8082 12.6072 12.9634 12.6072Z" fill="#F2F2F2"/>
</svg>
