<svg width="21" height="21" viewBox="0 0 21 21" fill="none" xmlns="http://www.w3.org/2000/svg">
<path d="M20.8203 10.1626C20.8203 15.6764 16.3341 20.1626 10.8203 20.1626C5.30652 20.1626 0.820312 15.6764 0.820312 10.1626C0.820312 4.6488 5.30652 0.162598 10.8203 0.162598C16.3341 0.162598 20.8203 4.6488 20.8203 10.1626Z" fill="#E6BF8D"/>
<path d="M13.1165 11.2091C13.1165 12.6264 11.9613 13.6988 10.4341 13.6988C9.6479 13.6988 9.01342 13.4712 8.68238 13.2574C8.55135 13.1712 8.49273 13.0091 8.541 12.8574L8.7548 12.2126C8.78583 12.1126 8.86169 12.0333 8.96169 11.9954C9.05824 11.9609 9.16893 11.9712 9.25824 12.0229C9.44445 12.1333 9.90307 12.3229 10.4238 12.3229C10.9755 12.3229 11.5651 12.0057 11.5651 11.3057C11.5582 10.6126 11.0689 10.2609 10.1069 10.2609C9.79652 10.2609 9.54824 10.2919 9.331 10.3195L9.27928 10.3264C9.17583 10.3367 9.06928 10.3023 8.99307 10.2264C8.91721 10.1505 8.88307 10.0436 8.89686 9.93674L9.30031 6.92639C9.32411 6.75398 9.46928 6.62639 9.64169 6.62639H12.6451C12.8382 6.62639 12.99 6.78156 12.99 6.97122V7.68501C12.99 7.87467 12.8382 8.02984 12.6451 8.02984H10.9294C10.7104 8.02984 10.5243 8.1898 10.4913 8.4063L10.4299 8.80996C10.4214 8.86577 10.4645 8.9126 10.521 8.9126C11.1003 8.9126 11.6279 9.04708 12.0517 9.30225C12.7238 9.68501 13.1165 10.3816 13.1165 11.2091Z" fill="#F2F2F2"/>
</svg>
