<svg width="21" height="21" viewBox="0 0 21 21" fill="none" xmlns="http://www.w3.org/2000/svg">
<path d="M20.8203 10.2032C20.8203 15.717 16.3341 20.2032 10.8203 20.2032C5.30652 20.2032 0.820312 15.717 0.820312 10.2032C0.820312 4.68945 5.30652 0.203247 10.8203 0.203247C16.3341 0.203247 20.8203 4.68945 20.8203 10.2032Z" fill="#E6BF8D"/>
<path d="M11.0807 8.8567C10.8054 8.8567 10.606 8.54761 10.8356 8.39581C11.1041 8.21835 11.4197 8.09532 11.7738 8.03601C11.9703 8.00497 12.1776 7.99463 12.3362 8.00152C12.4293 8.00497 12.5224 7.97394 12.591 7.90807C12.66 7.8429 12.7013 7.7529 12.7013 7.6567V6.96359C12.7013 6.77359 12.5462 6.61876 12.3565 6.61876C12.1358 6.61876 11.9082 6.63601 11.6945 6.67014C10.8251 6.77359 10.06 7.12876 9.48411 7.69428C8.73583 8.44256 8.32204 9.53601 8.32204 10.7667C8.32204 12.5736 9.35307 13.7874 10.8876 13.7874C12.4669 13.7874 13.3186 12.4705 13.3186 11.2288C13.3186 9.83256 12.3979 8.8567 11.0807 8.8567ZM10.8876 12.4395C9.95307 12.4395 9.85652 11.3257 9.85307 10.9877C9.85307 10.9084 9.86686 10.8429 9.91169 10.7701C10.0876 10.4184 10.4531 10.1843 10.8186 10.1843C11.422 10.1843 11.7703 10.5843 11.7703 11.2774C11.7703 11.9843 11.422 12.4395 10.8876 12.4395Z" fill="#F2F2F2"/>
</svg>
