<svg width="21" height="21" viewBox="0 0 21 21" fill="none" xmlns="http://www.w3.org/2000/svg">
<path d="M20.8203 10.2439C20.8203 15.7577 16.3341 20.2439 10.8203 20.2439C5.30652 20.2439 0.820312 15.7577 0.820312 10.2439C0.820312 4.7301 5.30652 0.243896 10.8203 0.243896C16.3341 0.243896 20.8203 4.7301 20.8203 10.2439Z" fill="#E6BF8D"/>
<path d="M13.1445 7.10597V7.66459C13.1445 7.71631 13.1341 7.76803 13.1131 7.81286L10.3786 13.5301C10.3234 13.6508 10.2027 13.7267 10.0686 13.7267H9.18928C9.07204 13.7267 8.96169 13.6646 8.89617 13.5646C8.83411 13.4611 8.82721 13.337 8.87893 13.2301L10.2555 10.4236C10.769 9.37674 10.007 8.15424 8.841 8.15424C8.65135 8.15424 8.49617 7.99907 8.49617 7.80941V7.10597C8.49617 6.91631 8.65135 6.76114 8.841 6.76114H12.7996C12.9927 6.76114 13.1445 6.91631 13.1445 7.10597Z" fill="#F2F2F2"/>
</svg>
