<svg width="21" height="20" viewBox="0 0 21 20" fill="none" xmlns="http://www.w3.org/2000/svg">
<path d="M20.8203 10C20.8203 15.5138 16.3341 20 10.8203 20C5.30652 20 0.820312 15.5138 0.820312 10C0.820312 4.48621 5.30652 0 10.8203 0C16.3341 0 20.8203 4.48621 20.8203 10Z" fill="#E6BF8D"/>
<path d="M12.2134 6.86207V13.1379C12.2134 13.3276 12.0582 13.4828 11.8686 13.4828H11.0479C10.8548 13.4828 10.7031 13.3276 10.7031 13.1379V8.90568C10.7031 8.59592 10.3725 8.39825 10.0996 8.54483C10.0065 8.59655 9.89618 8.6 9.79618 8.55862C9.69962 8.51379 9.62721 8.43103 9.60307 8.32759L9.43755 7.67931C9.39962 7.52759 9.46859 7.36552 9.60997 7.28966L10.9789 6.55862C11.0307 6.53103 11.0858 6.51724 11.1445 6.51724H11.8686C12.0582 6.51724 12.2134 6.67241 12.2134 6.86207Z" fill="#F2F2F2"/>
</svg>
