<svg width="21" height="21" viewBox="0 0 21 21" fill="none" xmlns="http://www.w3.org/2000/svg">
<path d="M20.8203 10.1219C20.8203 15.6357 16.3341 20.1219 10.8203 20.1219C5.30652 20.1219 0.820312 15.6357 0.820312 10.1219C0.820312 4.60816 5.30652 0.121948 10.8203 0.121948C16.3341 0.121948 20.8203 4.60816 20.8203 10.1219Z" fill="#E6BF8D"/>
<path d="M13.1186 10.5392C12.8232 10.5392 12.5838 10.2997 12.5838 10.0044V6.98402C12.5838 6.79436 12.4289 6.63919 12.2389 6.63919H11.322C11.2082 6.63919 11.1048 6.69436 11.0393 6.78747L8.23928 10.7909C8.1979 10.8495 8.17721 10.9185 8.17721 10.9909V11.5495C8.17721 11.7392 8.33238 11.8944 8.52204 11.8944H9.72548C10.4796 11.8944 11.091 12.5057 11.091 13.2599C11.091 13.4495 11.2458 13.6047 11.4358 13.6047H12.2389C12.4289 13.6047 12.5838 13.4495 12.5838 13.2599V12.4292C12.5838 12.1338 12.8232 11.8944 13.1186 11.8944C13.3082 11.8944 13.4634 11.7392 13.4634 11.5495V10.884C13.4634 10.6944 13.3082 10.5392 13.1186 10.5392ZM11.091 10.1824C11.091 10.3795 10.9313 10.5392 10.7342 10.5392C10.4437 10.5392 10.275 10.2104 10.4444 9.97436C10.6466 9.69277 11.091 9.83577 11.091 10.1824Z" fill="#F2F2F2"/>
</svg>
