<svg width="21" height="21" viewBox="0 0 21 21" fill="none" xmlns="http://www.w3.org/2000/svg">
<path d="M20.8203 10.0406C20.8203 15.5544 16.3341 20.0406 10.8203 20.0406C5.30652 20.0406 0.820312 15.5544 0.820312 10.0406C0.820312 4.52686 5.30652 0.0406494 10.8203 0.0406494C16.3341 0.0406494 20.8203 4.52686 20.8203 10.0406Z" fill="#E6BF8D"/>
<path d="M13.1686 12.5251V13.232C13.1686 13.4217 13.0134 13.5769 12.8238 13.5769H8.81686C8.62721 13.5769 8.47204 13.4217 8.47204 13.232V12.7113C8.47204 12.6179 8.50997 12.5286 8.57548 12.4631L9.241 11.8144C10.81 10.3213 11.4651 9.57306 11.4755 8.77651C11.4755 8.18686 11.1789 7.8972 10.572 7.8972C10.0755 7.8972 9.66514 8.17962 9.46169 8.34893C9.37893 8.41789 9.26859 8.44548 9.16514 8.42134C9.05824 8.39755 8.97204 8.32513 8.92721 8.22824L8.65824 7.62824C8.59273 7.48686 8.63066 7.32134 8.7479 7.22134C9.29618 6.75927 10.0065 6.5041 10.7479 6.5041C12.3134 6.5041 13.0134 7.59375 13.0134 8.67306C13.0134 9.42168 12.7002 10.084 12.1955 10.7416C11.7606 11.3083 12.1093 12.18 12.8238 12.18C13.0134 12.1803 13.1686 12.3355 13.1686 12.5251Z" fill="#F2F2F2"/>
</svg>
