<svg width="21" height="21" viewBox="0 0 21 21" fill="none" xmlns="http://www.w3.org/2000/svg">
<path d="M20.8203 10.3252C20.8203 15.839 16.3341 20.3252 10.8203 20.3252C5.30652 20.3252 0.820312 15.839 0.820312 10.3252C0.820312 4.8114 5.30652 0.325195 10.8203 0.325195C16.3341 0.325195 20.8203 4.8114 20.8203 10.3252Z" fill="#E6BF8D"/>
<path d="M10.8531 6.73899C9.45997 6.73899 8.36686 7.87002 8.36686 9.31485C8.36686 10.6286 9.29135 11.5804 10.5634 11.5804C10.6251 11.5804 10.6861 11.5782 10.7462 11.574C10.9894 11.5569 11.1843 11.8153 11.0048 11.9804C10.7082 12.2562 10.322 12.4355 9.891 12.4942C9.62549 12.5217 9.43617 12.5424 9.27755 12.5252C9.181 12.5149 9.08411 12.5459 9.01169 12.6114C8.93928 12.6769 8.8979 12.77 8.8979 12.8666V13.5631C8.8979 13.7459 9.04273 13.8976 9.22548 13.908C9.27721 13.908 9.32893 13.9114 9.38755 13.9114C9.60859 13.9114 9.83962 13.8907 10.0634 13.8562C10.8465 13.7666 11.5638 13.4355 12.0876 12.9217C12.6289 12.3976 13.2738 11.4183 13.2738 9.72864C13.2738 7.9114 12.3255 6.73899 10.8531 6.73899ZM10.7565 10.2424C10.2255 10.2424 9.89445 9.86657 9.89445 9.25623C9.89445 8.55968 10.26 8.07692 10.7876 8.07692C11.6324 8.07692 11.7255 9.15968 11.7255 9.62175C11.7255 9.71542 11.6735 9.79915 11.6143 9.87168C11.4215 10.1076 11.1123 10.2424 10.7565 10.2424Z" fill="#F2F2F2"/>
</svg>
