<svg width="21" height="21" viewBox="0 0 21 21" fill="none" xmlns="http://www.w3.org/2000/svg">
<path d="M20.8203 10.2845C20.8203 15.7983 16.3341 20.2845 10.8203 20.2845C5.30652 20.2845 0.820312 15.7983 0.820312 10.2845C0.820312 4.77075 5.30652 0.284546 10.8203 0.284546C16.3341 0.284546 20.8203 4.77075 20.8203 10.2845Z" fill="#E6BF8D"/>
<path d="M13.2608 11.3809C13.1301 10.5634 13.0513 9.4124 13.0513 8.58455C13.0513 7.64662 12.3065 6.69489 10.8824 6.69489C9.55824 6.69489 8.59617 7.54317 8.59617 8.70868C8.59617 9.51961 8.54991 10.623 8.39385 11.4188C8.36795 11.5508 8.3548 11.688 8.3548 11.8297C8.3548 12.8432 9.19617 13.8745 10.8065 13.8745C12.241 13.8745 13.2858 12.9608 13.2858 11.7021C13.2858 11.5921 13.2774 11.4849 13.2608 11.3809ZM10.8341 7.99179C11.4824 7.99179 11.5513 8.46765 11.5513 8.6711C11.5513 9.35983 10.2885 9.50331 10.111 8.83784C10.0941 8.77449 10.0889 8.71253 10.0889 8.65386C10.0893 8.33282 10.2858 7.99179 10.8341 7.99179ZM10.8238 12.5639C10.5307 12.5639 10.2893 12.4742 10.1238 12.298C9.97893 12.1466 9.90307 11.9463 9.91376 11.7118C9.91376 10.8589 11.4925 10.7096 11.7054 11.5356C11.7264 11.617 11.7345 11.7023 11.7345 11.7914C11.7341 12.2604 11.3789 12.5639 10.8238 12.5639Z" fill="#F2F2F2"/>
</svg>
