<svg width="21" height="21" viewBox="0 0 21 21" fill="none" xmlns="http://www.w3.org/2000/svg">
<path d="M20.8203 10.0813C20.8203 15.5951 16.3341 20.0813 10.8203 20.0813C5.30652 20.0813 0.820312 15.5951 0.820312 10.0813C0.820312 4.56751 5.30652 0.0812988 10.8203 0.0812988C16.3341 0.0812988 20.8203 4.56751 20.8203 10.0813Z" fill="#E6BF8D"/>
<path d="M13.1248 11.4434C13.1248 12.5158 12.3003 13.671 10.4938 13.671C9.69031 13.671 9.011 13.4089 8.67307 13.1882C8.53859 13.102 8.48342 12.9368 8.53514 12.7847L8.76617 12.1299C8.80411 12.0299 8.87997 11.9503 8.97997 11.9161C9.07997 11.8813 9.19031 11.8951 9.27997 11.9537C9.49376 12.0916 9.99031 12.2951 10.4834 12.2951C10.8627 12.2951 11.1489 12.1985 11.3348 12.0089C11.5417 11.7989 11.5589 11.533 11.5555 11.4296C11.5486 10.5572 10.4903 10.5123 10.28 10.5123H9.80755C9.6179 10.5123 9.46273 10.3572 9.46273 10.1675V9.52957C9.46273 9.33992 9.6179 9.18475 9.80755 9.18475H10.28C10.5731 9.18475 11.3351 9.05716 11.3351 8.46751C11.3351 7.97095 10.9251 7.86751 10.5803 7.86751C10.1631 7.86751 9.75273 8.05716 9.52514 8.21957C9.43893 8.28164 9.32514 8.29854 9.22169 8.26785C9.11824 8.23302 9.03549 8.15406 9.001 8.05406L8.77686 7.43682C8.72514 7.29199 8.77686 7.13337 8.89755 7.04026C9.24238 6.78889 9.93204 6.49199 10.7424 6.49199C12.2217 6.49199 12.8834 7.41647 12.8834 8.33337C12.8834 9.1323 12.9538 10.3027 13.0938 11.0893C13.1142 11.2039 13.1248 11.3222 13.1248 11.4434Z" fill="#F2F2F2"/>
</svg>
