<svg width="20" height="20" viewBox="0 0 20 20" fill="none" xmlns="http://www.w3.org/2000/svg">
<path d="M20 10.208C19.964 14.5455 17.2688 18.4286 13.3272 19.7921C12.2309 20.1709 11.343 19.7921 11.0094 18.8057C10.6947 17.8753 11.1582 17.07 12.2638 16.6271C15.4131 15.3623 17.1764 12.3142 16.6362 9.07333C16.0896 5.80286 13.3788 3.40516 10.1137 3.30471C6.93462 3.2059 3.95447 5.69582 3.38757 8.92019C2.80814 12.2121 4.60751 15.4414 7.67379 16.6073C7.8946 16.6913 8.12167 16.7571 8.33309 16.8609C9.02997 17.2018 9.38702 17.9313 9.23668 18.6723C9.07225 19.4809 8.4709 20.0161 7.67379 19.9996C7.34336 19.993 7.00196 19.9041 6.68562 19.7921C2.4918 18.3117 -0.341146 13.9099 0.0331351 9.47515C0.43717 4.69129 3.8746 0.832914 8.35971 0.128098C13.963 -0.754569 19.0103 3.01159 19.8794 8.7341C19.953 9.2199 19.9608 9.71557 20 10.2063V10.208Z" fill="#F98D3C"/>
<path d="M9.56606 13.6958C8.45575 13.6398 7.59756 13.0815 7.11836 11.9947C6.61096 10.8469 6.74251 9.71224 7.54275 8.76699C8.80184 7.27832 10.4446 6.36436 12.1813 5.6546C12.9236 5.3516 13.5673 5.90985 13.4874 6.75794C13.3104 8.65172 12.9362 10.4994 12.0373 12.1807C11.5079 13.1721 10.6873 13.6727 9.56763 13.6958H9.56606Z" fill="#F98D3C"/>
<path d="M11.2462 18.7256L11.2463 18.7256C11.3936 19.1615 11.6543 19.442 11.9802 19.5809C12.3101 19.7213 12.74 19.7305 13.2455 19.5558C17.0785 18.2299 19.7109 14.4495 19.7499 10.2153C19.7368 10.0494 19.7274 9.88833 19.7181 9.73024C19.6989 9.40354 19.6804 9.08953 19.6322 8.77164C18.7832 3.18169 13.8605 -0.485348 8.39861 0.375052L8.39852 0.375067C4.03621 1.06059 0.677381 4.81773 0.282248 9.49619C-0.0825061 13.8181 2.68276 18.114 6.76884 19.5564L6.76905 19.5565C7.07419 19.6645 7.38673 19.7439 7.67877 19.7497L7.67895 19.7497C8.34006 19.7633 8.84818 19.3283 8.9917 18.6225C9.11912 17.9942 8.81887 17.3768 8.22324 17.0855L8.22295 17.0853C8.09209 17.0211 7.96392 16.9762 7.82095 16.9262L11.2462 18.7256ZM11.2462 18.7256C11.1093 18.321 11.1455 17.9626 11.3206 17.6583C11.4993 17.3479 11.8389 17.0666 12.3568 16.8591L12.357 16.859C15.6101 15.5526 17.4432 12.3942 16.8828 9.03222L16.8827 9.03213C16.317 5.64667 13.5084 3.15907 10.1214 3.05483C6.81249 2.95199 3.72878 5.53575 3.14135 8.87689C2.54176 12.2834 4.4033 15.6312 7.58491 16.841L11.2462 18.7256ZM7.34711 11.8938L7.34701 11.8936C6.87569 10.8274 6.99929 9.79585 7.73356 8.92853L7.73363 8.92844C8.95532 7.48398 10.5557 6.58905 12.2758 5.88606C12.5676 5.76696 12.8136 5.82265 12.9805 5.96489C13.1521 6.11113 13.2721 6.37739 13.2385 6.7345L13.2385 6.73468C13.063 8.61278 12.6934 10.4231 11.8168 12.0629L11.8167 12.063C11.5695 12.5259 11.2608 12.863 10.8932 13.0882C10.5275 13.3122 10.0898 13.4338 9.57027 13.4456C8.55713 13.392 7.78643 12.8902 7.34711 11.8938Z" stroke="white" stroke-width="0.5"/>
</svg>
