<svg width="27" height="24" viewBox="0 0 27 24" fill="none" xmlns="http://www.w3.org/2000/svg">
<path d="M15.9736 12.0002L26.4869 2.65458C27.171 2.04669 27.171 1.06381 26.4869 0.455919C25.803 -0.151973 24.6973 -0.151973 24.0134 0.455919L13.4998 9.80152L2.98658 0.455919C2.3024 -0.151973 1.197 -0.151973 0.513139 0.455919C-0.171046 1.06381 -0.171046 2.04669 0.513139 2.65458L11.0264 12.0002L0.513139 21.3458C-0.171046 21.9537 -0.171046 22.9365 0.513139 23.5444C0.85395 23.8477 1.30207 24 1.74986 24C2.19766 24 2.64545 23.8477 2.98658 23.5444L13.4998 14.1988L24.0134 23.5444C24.3545 23.8477 24.8023 24 25.2501 24C25.6979 24 26.1457 23.8477 26.4869 23.5444C27.171 22.9365 27.171 21.9537 26.4869 21.3458L15.9736 12.0002Z" fill="#fff"/>
</svg>
