<svg width="25" height="23" viewBox="0 0 25 23" fill="none" xmlns="http://www.w3.org/2000/svg">
<path d="M24.8169 2.59833L22.3167 0.177264C22.073 -0.0588905 21.6775 -0.0591866 21.4335 0.176968C21.4335 0.177116 21.4333 0.177264 21.433 0.177264L13.9332 7.44061C13.8159 7.55402 13.7502 7.70785 13.7502 7.86835V10.2896C13.7502 10.6237 14.03 10.8947 14.375 10.8947H16.8752C17.0409 10.8947 17.1998 10.831 17.3169 10.7175L24.8169 3.45426C25.0609 3.2181 25.061 2.83507 24.8173 2.59877C24.8172 2.59877 24.8172 2.59848 24.8169 2.59833ZM16.6163 9.68429H15V8.11916L21.875 1.46123L23.4912 3.02637L16.6163 9.68429Z" fill="#8C5B93"/>
<path d="M23.1249 7.26323C22.7798 7.26323 22.5 7.53418 22.5 7.86835V16.3421C22.499 17.3444 21.6601 18.1568 20.625 18.158H14.375C14.2397 18.1577 14.1081 18.2002 14 18.279L10 21.1843V18.7633C10 18.429 9.72023 18.158 9.37501 18.158H3.125C2.08996 18.1568 1.25107 17.3444 1.25015 16.3422V5.44728C1.25122 4.44507 2.08996 3.63267 3.125 3.63163H14.375C14.7202 3.63163 15 3.36069 15 3.02637C15 2.6922 14.7202 2.42125 14.375 2.42125H3.125C1.39983 2.42288 0.00168176 3.77688 0 5.44728V16.3422C0.00168176 18.0128 1.39983 19.3668 3.125 19.3686H8.75001V22.3949C8.75001 22.7291 9.0298 23 9.37501 23C9.51032 23 9.6418 22.9575 9.75005 22.879L14.584 19.3684H20.625C22.3502 19.3668 23.7482 18.0128 23.75 16.3421V7.8685C23.75 7.53418 23.4701 7.26323 23.1249 7.26323Z" fill="#8C5B93"/>
<path d="M10.6249 6.0527H4.37516C4.02979 6.0527 3.75001 6.32365 3.75001 6.65796C3.75001 6.99213 4.02979 7.26308 4.37516 7.26308H10.6249C10.9701 7.26308 11.25 6.99213 11.25 6.65796C11.25 6.32365 10.9701 6.0527 10.6249 6.0527Z" fill="#8C5B93"/>
<path d="M4.37516 10.8948H10.6249C10.9701 10.8948 11.25 10.6237 11.25 10.2896C11.25 9.95524 10.9701 9.68429 10.6249 9.68429H4.37516C4.02979 9.68429 3.75001 9.95524 3.75001 10.2896C3.75001 10.6237 4.02979 10.8948 4.37516 10.8948Z" fill="#8C5B93"/>
<path d="M4.37516 14.5263H19.375C19.7202 14.5263 19.9999 14.2553 19.9999 13.921C19.9999 13.5868 19.7201 13.3159 19.375 13.3159H4.37516C4.02979 13.3159 3.75001 13.5868 3.75001 13.921C3.75001 14.2553 4.02979 14.5263 4.37516 14.5263Z" fill="#8C5B93"/>
</svg>
