<svg width="486" height="378" viewBox="0 0 486 378" fill="none" xmlns="http://www.w3.org/2000/svg">
<path d="M32.3969 268.637C22.6641 205.373 12.9313 142.11 3.19846 78.8464C1.04006 64.8224 16.9969 55.2576 28.3473 63.7712C58.6705 86.5136 88.9921 109.254 119.315 131.997C129.299 139.485 143.523 137.048 150.445 126.664L226.178 13.064C234.181 1.05923 251.819 1.05923 259.822 13.064L335.555 126.664C342.477 137.048 356.701 139.483 366.685 131.997C397.008 109.254 427.33 86.5136 457.653 63.7712C469.003 55.2576 484.96 64.8224 482.803 78.8464C473.07 142.11 463.338 205.373 453.605 268.637H32.3969Z" fill="#FBD08A"/>
<path d="M431.643 373.938H54.357C42.229 373.938 32.397 364.106 32.397 351.978V303.738H453.605V351.978C453.603 364.106 443.771 373.938 431.643 373.938Z" fill="#FBD08A"/>
</svg>
