<svg width="25" height="28" viewBox="0 0 25 28" fill="none" xmlns="http://www.w3.org/2000/svg">
<path d="M20.4844 27.9999H4.47914C3.29305 27.9983 2.15598 27.605 1.31661 26.9061C0.477233 26.2072 0.00385564 25.2594 0 24.2702V10.8848C0.0115211 9.89981 0.48828 8.95833 1.32683 8.26465C2.16538 7.57096 3.29807 7.18104 4.47914 7.17949H20.5282C21.7142 7.1827 22.8505 7.57752 23.6885 8.27758C24.5266 8.97765 24.9981 9.926 25 10.9152V24.3006C24.9884 25.2904 24.5064 26.2358 23.6598 26.9294C22.8131 27.623 21.6711 28.008 20.4844 27.9999ZM4.47914 8.4511C3.70523 8.4511 2.96303 8.70751 2.4158 9.16392C1.86856 9.62033 1.56113 10.2393 1.56113 10.8848V24.2702C1.56113 24.9157 1.86856 25.5347 2.4158 25.9911C2.96303 26.4475 3.70523 26.7039 4.47914 26.7039H20.5282C21.3021 26.7039 22.0443 26.4475 22.5915 25.9911C23.1387 25.5347 23.4462 24.9157 23.4462 24.2702V10.8848C23.4462 10.2393 23.1387 9.62033 22.5915 9.16392C22.0443 8.70751 21.3021 8.4511 20.5282 8.4511H4.47914Z" fill="currentColor"/>
<path d="M10.9929 27.9967C10.8076 27.9967 10.6298 27.9327 10.4988 27.8188C10.3677 27.7048 10.2941 27.5503 10.2941 27.3892V7.81731C10.2941 7.64815 10.3714 7.48592 10.509 7.3663C10.6466 7.24669 10.8332 7.17949 11.0278 7.17949C11.2224 7.17949 11.409 7.24669 11.5466 7.3663C11.6842 7.48592 11.7615 7.64815 11.7615 7.81731V27.3346C11.7714 27.4242 11.7583 27.5146 11.723 27.5992C11.6878 27.6839 11.6313 27.7607 11.5578 27.824C11.4842 27.8874 11.3954 27.9358 11.2977 27.9656C11.2 27.9955 11.0959 28.0061 10.9929 27.9967Z" fill="currentColor"/>
<path d="M14.7024 27.9992C14.6084 28.0033 14.5145 27.9907 14.4263 27.9621C14.3381 27.9336 14.2575 27.8896 14.1893 27.833C14.1212 27.7763 14.067 27.7082 14.03 27.6327C13.993 27.5571 13.9739 27.4758 13.9741 27.3937V7.88362C13.9641 7.7945 13.9756 7.70455 14.0079 7.61955C14.0401 7.53455 14.0924 7.45637 14.1613 7.39006C14.2302 7.32374 14.3143 7.27075 14.4081 7.23449C14.5019 7.19822 14.6033 7.17949 14.7059 7.17949C14.8085 7.17949 14.9099 7.19822 15.0037 7.23449C15.0975 7.27075 15.1815 7.32374 15.2504 7.39006C15.3194 7.45637 15.3716 7.53455 15.4039 7.61955C15.4361 7.70455 15.4477 7.7945 15.4377 7.88362V27.3392C15.4415 27.4252 15.4252 27.511 15.3898 27.5914C15.3545 27.6718 15.3008 27.745 15.232 27.8067C15.1633 27.8684 15.0809 27.9173 14.9899 27.9504C14.8988 27.9835 14.801 28.0001 14.7024 27.9992Z" fill="currentColor"/>
<path d="M10.9769 16.5128H0.787815C0.578874 16.5128 0.37849 16.4372 0.230746 16.3025C0.0830018 16.1679 0 15.9853 0 15.7949C0 15.6045 0.0830018 15.4218 0.230746 15.2872C0.37849 15.1526 0.578874 15.0769 0.787815 15.0769H10.9769C11.0803 15.0769 11.1828 15.0955 11.2784 15.1316C11.374 15.1677 11.4608 15.2205 11.534 15.2872C11.6071 15.3539 11.6651 15.433 11.7047 15.5201C11.7443 15.6072 11.7647 15.7006 11.7647 15.7949C11.7647 15.8892 11.7443 15.9825 11.7047 16.0696C11.6651 16.1567 11.6071 16.2359 11.534 16.3025C11.4608 16.3692 11.374 16.4221 11.2784 16.4582C11.1828 16.4943 11.0803 16.5128 10.9769 16.5128Z" fill="currentColor"/>
<path d="M24.2614 16.5128H14.7092C14.5133 16.5128 14.3254 16.4372 14.1869 16.3025C14.0484 16.1679 13.9706 15.9853 13.9706 15.7949C13.9706 15.6045 14.0484 15.4218 14.1869 15.2872C14.3254 15.1526 14.5133 15.0769 14.7092 15.0769H24.2614C24.4573 15.0769 24.6452 15.1526 24.7837 15.2872C24.9222 15.4218 25 15.6045 25 15.7949C25 15.9853 24.9222 16.1679 24.7837 16.3025C24.6452 16.4372 24.4573 16.5128 24.2614 16.5128Z" fill="currentColor"/>
<path d="M11.0379 19.3846H0.726767C0.527769 19.3759 0.343115 19.3343 0.208768 19.268C0.0744208 19.2016 0 19.1152 0 19.0256C0 18.936 0.0744208 18.8497 0.208768 18.7833C0.343115 18.7169 0.527769 18.6754 0.726767 18.6667H11.0379C11.2369 18.6754 11.4216 18.7169 11.5559 18.7833C11.6903 18.8497 11.7647 18.936 11.7647 19.0256C11.7647 19.1152 11.6903 19.2016 11.5559 19.268C11.4216 19.3343 11.2369 19.3759 11.0379 19.3846Z" fill="currentColor"/>
<path d="M24.3187 19.3846H14.6519C14.4654 19.3759 14.2923 19.3343 14.1663 19.268C14.0404 19.2016 13.9706 19.1152 13.9706 19.0256C13.9706 18.936 14.0404 18.8497 14.1663 18.7833C14.2923 18.7169 14.4654 18.6754 14.6519 18.6667H24.3187C24.5052 18.6754 24.6783 18.7169 24.8043 18.7833C24.9302 18.8497 25 18.936 25 19.0256C25 19.1152 24.9302 19.2016 24.8043 19.268C24.6783 19.3343 24.5052 19.3759 24.3187 19.3846Z" fill="currentColor"/>
<path d="M17.4901 8.61135C17.3167 8.60897 17.1493 8.55675 17.0152 8.46319C16.8811 8.36964 16.7883 8.24025 16.7518 8.09613C16.7154 7.95201 16.7374 7.80164 16.8144 7.66953C16.8914 7.53742 17.0187 7.43134 17.1757 7.3686C19.0477 6.6478 20.1007 5.00116 19.6912 3.55336C19.3109 2.27333 17.7241 1.1735 16.4298 1.31642C15.6508 1.47259 14.9618 1.85775 14.4847 2.40382C14.0168 2.87939 13.6684 3.43132 13.461 4.02561C13.2708 4.49785 13.0368 5.07573 12.3056 5.13165C11.3769 5.16894 11.0478 4.39222 10.7334 3.6155C10.419 2.83879 10.0022 1.88808 9.27092 1.59604C8.27642 1.22321 6.17775 1.75759 5.40994 3.22404C4.77376 4.4295 5.83406 6.54217 7.51593 7.40588C7.60621 7.44676 7.68539 7.50327 7.74836 7.57178C7.81133 7.64028 7.85669 7.71924 7.8815 7.80357C7.90631 7.8879 7.91002 7.97572 7.8924 8.06134C7.87477 8.14697 7.8362 8.22849 7.77917 8.30066C7.67169 8.44809 7.50066 8.554 7.30257 8.59579C7.10449 8.63758 6.89503 8.61195 6.71887 8.52435C4.57632 7.41831 2.95295 4.69048 4.00595 2.68965C5.11744 0.576981 8.07899 -0.274298 9.85591 0.396786C11.2526 0.91874 11.7937 2.26091 12.1886 3.18675C12.45 2.5876 12.8337 2.03229 13.322 1.54633C14.0444 0.750197 15.0849 0.206434 16.247 0.0177471C18.3091 -0.181093 20.6345 1.31642 21.1829 3.23025C21.7972 5.287 20.3493 7.57987 17.8119 8.55543C17.711 8.59455 17.601 8.61368 17.4901 8.61135Z" fill="currentColor"/>
</svg>
