<svg width="105" height="535" viewBox="0 0 105 535" fill="none" xmlns="http://www.w3.org/2000/svg">
<path d="M103.46 534.998C102.528 531.94 101.591 528.882 100.672 525.818C97.7815 516.167 94.7412 506.553 92.0493 496.866C89.2313 486.679 86.4433 476.462 84.2381 466.106C81.8827 455.213 79.8758 444.217 78.3496 433.179C77.184 424.795 76.9136 416.291 76.4329 407.811C75.8741 398.015 76.1565 388.238 78.9205 378.745C79.8878 375.403 81.5042 372.249 82.8201 369.01C86.6956 359.474 91.2321 350.149 94.2845 340.36C98.2742 327.609 96.8863 314.515 92.9867 301.963C89.5542 290.68 85.453 279.612 80.705 268.82C67.7204 239.76 51.7855 212.244 35.7545 184.8C29.4394 173.986 22.884 163.286 17.1698 152.152C9.98948 138.159 4.13106 123.538 1.46924 107.91C-1.74537 89.0376 0.0271707 70.8224 9.659 53.8436C15.0227 44.4163 22.2072 36.1586 30.7913 29.5546C50.2353 14.4395 72.5153 5.88679 96.4356 1.20631C98.9592 0.711722 101.525 0.398082 104.073 0C104.073 9.24836 104.073 18.4967 104.073 27.7451L104.673 39.205C104.673 203.565 104.645 367.924 104.589 532.284C104.577 533.062 106.061 535.076 103.46 534.998Z" fill="#B8DFF7"/>
<path d="M104.061 27.7451C104.061 18.4967 104.061 9.24836 104.061 0C104.259 0 104.451 0 104.661 0V27.7451H104.061Z" fill="#D2EAF9"/>
<path d="M104.061 27.7451H104.661V39.205L104.061 27.7451Z" fill="#C6E5F8"/>
</svg>
