<svg width="238" height="167" viewBox="0 0 238 167" fill="none" xmlns="http://www.w3.org/2000/svg">
<path d="M223.971 166.12H0.0703125L8.8263 154.795C14.9736 146.117 21.3701 137.98 27.9915 130.416C46.3607 111.364 64.832 92.4541 83.7114 74.9902C99.1007 60.878 115.041 48.1417 130.982 35.7583C149.44 20.7814 168.894 9.78541 188.906 3.01792C199.315 -0.122044 209.806 -1.81551 220.195 3.40601C223.882 5.07742 227.259 8.35997 230 12.9382C232.742 17.5165 234.756 23.2366 235.849 29.5489C238.191 42.7194 238.423 56.7406 236.523 70.1215C232.543 102.192 228.155 134.12 223.971 166.12Z" fill="#F6E89F"/>
</svg>
