<svg width="498" height="590" viewBox="0 0 498 590" fill="none" xmlns="http://www.w3.org/2000/svg">
<path d="M496.046 589.001C495.017 585.635 493.981 582.268 492.965 578.895C489.771 568.27 486.411 557.685 483.436 547.021C480.322 535.805 477.241 524.556 474.804 513.155C472.201 501.162 469.983 489.057 468.296 476.905C467.008 467.675 466.709 458.312 466.178 448.976C465.56 438.192 465.873 427.428 468.927 416.976C469.996 413.297 471.782 409.824 473.237 406.258C477.52 395.76 482.533 385.494 485.907 374.716C490.316 360.679 488.782 346.262 484.472 332.444C480.679 320.021 476.147 307.837 470.899 295.955C456.549 263.962 438.939 233.668 421.223 203.454C414.244 191.548 406.999 179.768 400.684 167.51C392.749 152.104 386.274 136.008 383.333 118.803C379.78 98.0252 381.739 77.9713 392.384 59.2786C398.311 48.8997 406.251 39.8085 415.738 32.5378C437.226 15.8971 461.848 6.48101 488.284 1.32807C491.073 0.783564 493.908 0.438265 496.724 0C496.724 10.1819 496.724 20.3638 496.724 30.5457L497.388 43.1624C497.388 224.113 497.357 405.063 497.295 586.013C497.282 586.87 498.922 589.088 496.046 589.001Z" fill="#B8DFF7"/>
<path d="M496.711 30.5457C496.711 20.3638 496.711 10.1819 496.711 0C496.93 0 497.142 0 497.375 0V30.5457H496.711Z" fill="#D2EAF9"/>
<path d="M496.711 30.5457H497.375V43.1624L496.711 30.5457Z" fill="#C6E5F8"/>
<path d="M73.8006 523.296C73.961 523.135 74.1164 522.98 74.2767 522.819L90.8151 539.358C90.6547 539.518 90.4993 539.673 90.339 539.834L73.8006 523.296Z" fill="#DCF6FE"/>
<path d="M90.8151 539.358L74.2767 522.819C62.8407 510.87 52.505 497.915 43.3952 484.11C36.8149 474.162 30.1695 464.199 24.4412 453.759C12.1578 431.393 3.05669 407.818 1.01195 382.098C-0.301092 366.001 1.36777 350.079 8.59953 335.45C16.1721 320.12 27.4983 308.463 45.4148 306.473C52.401 305.691 59.6879 307.285 66.8044 308.137C80.2506 309.726 93.7519 311.029 107.063 313.404C121.426 315.98 135.679 319.348 149.842 322.916C185.661 331.9 221.003 342.545 255.868 354.85C282.755 364.367 309.367 374.721 334.46 388.338C347.503 395.522 360.119 403.453 372.247 412.093C382.085 419.004 390.369 427.829 395.952 438.704C402.136 450.742 401.244 462.48 393.882 473.851C386.896 484.716 376.748 491.988 366.263 498.954C355.779 505.92 345.285 513.057 334.615 519.878C326.231 525.255 317.711 530.467 309.001 535.298C295.048 543.036 281.096 550.834 266.753 557.811C246.335 567.744 225.041 575.236 202.374 578.338C174.439 582.167 148.223 577.361 123.656 563.398C111.779 556.663 100.683 548.885 90.8151 539.358Z" fill="#ABEAFE"/>
</svg>
