<svg width="134" height="55" viewBox="0 0 134 55" fill="none" xmlns="http://www.w3.org/2000/svg">
<path d="M126.014 54.0691H0L4.928 50.3817C8.38776 47.5562 11.9878 44.9069 15.7145 42.444C26.0529 36.241 36.4488 30.0838 47.0744 24.3977C55.7358 19.8028 64.7073 15.656 73.6787 11.624C84.0675 6.74756 95.0165 3.16732 106.279 0.963862C112.138 -0.0584967 118.042 -0.609881 123.889 1.09022C125.964 1.63442 127.865 2.70321 129.408 4.19387C130.951 5.68453 132.084 7.54696 132.7 9.60222C134.018 13.8905 134.149 18.4557 133.079 22.8125C130.839 33.2543 128.369 43.6502 126.014 54.0691Z" fill="#BEE9FE"/>
</svg>
