<svg width="477" height="266" viewBox="0 0 477 266" fill="none" xmlns="http://www.w3.org/2000/svg">
<path d="M0.240234 265.147V7.32387C9.75515 6.83278 19.2701 6.43377 28.785 5.8506C40.1108 5.20604 51.4366 4.34663 62.7931 3.70207C76.4516 2.87335 90.1101 2.04463 103.861 1.49215C114.296 1.03175 124.824 0.63274 135.352 0.755513C151.251 0.970366 167.15 1.33869 183.019 2.29018C194.713 2.96543 206.376 4.25455 217.917 5.97337C228.426 7.19498 238.505 10.8524 247.352 16.6546C250.318 18.5273 252.627 21.2774 253.958 24.5228C255.289 27.7681 255.576 31.3476 254.779 34.7637C254.506 37.3973 254.974 40.055 256.13 42.437C259.936 50.4172 267.302 54.438 275.129 57.0777C285.856 60.7863 296.791 63.8609 307.879 66.2856C323.011 69.355 338.327 71.8411 353.612 74.1738C367.086 76.2303 380.683 77.5194 394.188 79.5758C407.693 81.6323 421.659 83.9957 435.256 86.8194C447.533 89.3977 459.596 92.5284 470.093 99.8641C476.845 104.622 478.963 111.589 475.034 118.771C472.935 123.046 470.051 126.888 466.532 130.097C457.957 137.363 448.891 144.029 439.4 150.048C414.384 165.394 387.221 176.137 359.597 185.744C319.123 199.681 277.936 211.453 236.21 221.01C220.035 224.816 203.859 228.684 187.592 232.029C162.178 237.278 136.856 242.219 111.442 247.13C98.2745 249.678 85.015 251.888 71.7862 254.128C57.3911 256.584 42.9346 259.009 28.5087 261.249C19.1166 262.723 9.66307 263.858 0.240234 265.147Z" fill="#C3F3F6"/>
</svg>
