<svg width="40" height="40" viewBox="0 0 40 40" fill="none" xmlns="http://www.w3.org/2000/svg">
<path d="M34.8434 24.5349L35.8147 11.2142C35.8446 10.8031 35.7892 10.3904 35.6519 10.0016C35.5145 9.61283 35.2983 9.25644 35.0166 8.95465C34.7348 8.65287 34.3937 8.41217 34.0145 8.24757C33.6353 8.08298 33.226 7.99802 32.8124 7.998H24.9354V6.99825C24.9354 5.1422 24.1953 3.36217 22.8781 2.04974C21.5608 0.737314 19.7742 0 17.9113 0C16.0484 0 14.2618 0.737314 12.9445 2.04974C11.6272 3.36217 10.8872 5.1422 10.8872 6.99825V7.998H3.01018C2.59653 7.99802 2.18731 8.08298 1.80808 8.24757C1.42885 8.41217 1.08773 8.65287 0.806014 8.95465C0.5243 9.25644 0.308035 9.61283 0.170715 10.0016C0.0333941 10.3904 -0.0220353 10.8031 0.00788573 11.2142L1.34146 29.4996C1.47596 31.2612 2.27173 32.9075 3.57017 34.1106C4.86861 35.3136 6.57436 35.985 8.34749 35.991H25.0146C25.6556 37.1008 26.5546 38.041 27.6361 38.7327C28.7176 39.4243 29.9499 39.8472 31.2295 39.9657C32.5091 40.0842 33.7986 39.8948 34.9895 39.4136C36.1804 38.9324 37.2379 38.1734 38.0732 37.2003C38.9085 36.2272 39.497 35.0686 39.7894 33.8218C40.0818 32.575 40.0695 31.2764 39.7535 30.0353C39.4375 28.7943 38.8271 27.6469 37.9735 26.6897C37.1199 25.7326 36.0482 24.9936 34.8484 24.5349H34.8434ZM12.8941 6.99825C12.8941 5.6725 13.4227 4.40105 14.3636 3.4636C15.3045 2.52615 16.5806 1.9995 17.9113 1.9995C19.2419 1.9995 20.5181 2.52615 21.459 3.4636C22.3999 4.40105 22.9285 5.6725 22.9285 6.99825V7.998H12.8941V6.99825ZM8.34749 33.9915C7.081 33.9871 5.86267 33.5074 4.93527 32.6481C4.00786 31.7888 3.43946 30.6129 3.34333 29.3547L2.00975 11.0702C1.99966 10.9329 2.01815 10.795 2.06404 10.6652C2.10993 10.5353 2.18224 10.4163 2.27644 10.3156C2.37065 10.2149 2.48471 10.1347 2.61149 10.0799C2.73826 10.0252 2.87502 9.99714 3.01319 9.9975H10.8872V11.997C10.8872 12.2622 10.9929 12.5164 11.1811 12.7039C11.3693 12.8914 11.6245 12.9968 11.8906 12.9968C12.1568 12.9968 12.412 12.8914 12.6002 12.7039C12.7884 12.5164 12.8941 12.2622 12.8941 11.997V9.9975H22.9285V11.997C22.9285 12.2622 23.0342 12.5164 23.2224 12.7039C23.4106 12.8914 23.6658 12.9968 23.9319 12.9968C24.1981 12.9968 24.4533 12.8914 24.6415 12.7039C24.8297 12.5164 24.9354 12.2622 24.9354 11.997V9.9975H32.8124C32.9506 9.99714 33.0873 10.0252 33.2141 10.0799C33.3409 10.1347 33.4549 10.2149 33.5491 10.3156C33.6433 10.4163 33.7157 10.5353 33.7615 10.6652C33.8074 10.795 33.8259 10.9329 33.8158 11.0702L32.8626 24.048C32.5628 24.0135 32.2613 23.9954 31.9595 23.994C30.7332 23.9899 29.5224 24.2666 28.4206 24.8029C27.3188 25.3392 26.3555 26.1206 25.605 27.0869C24.8546 28.0531 24.3371 29.1783 24.0926 30.3755C23.8481 31.5727 23.8831 32.8099 24.1948 33.9915H8.34749ZM31.9595 37.9905C30.7687 37.9905 29.6047 37.6387 28.6146 36.9796C27.6245 36.3205 26.8528 35.3836 26.3971 34.2875C25.9414 33.1914 25.8222 31.9853 26.0545 30.8218C26.2868 29.6582 26.8602 28.5893 27.7022 27.7504C28.5442 26.9115 29.617 26.3402 30.7849 26.1088C31.9528 25.8773 33.1633 25.9961 34.2635 26.4501C35.3636 26.9041 36.3039 27.673 36.9655 28.6594C37.627 29.6459 37.9801 30.8056 37.9801 31.992C37.9782 33.5823 37.3433 35.107 36.2146 36.2315C35.086 37.3561 33.5557 37.9887 31.9595 37.9905ZM35.9732 31.992C35.9732 32.2572 35.8675 32.5114 35.6793 32.6989C35.4911 32.8864 35.2359 32.9918 34.9698 32.9918H32.9629H30.956H28.9491C28.683 32.9918 28.4278 32.8864 28.2396 32.6989C28.0514 32.5114 27.9457 32.2572 27.9457 31.992C27.9457 31.7269 28.0514 31.4726 28.2396 31.2851C28.4278 31.0976 28.683 30.9923 28.9491 30.9923H30.956H32.9629H34.9698C35.2359 30.9923 35.4911 31.0976 35.6793 31.2851C35.8675 31.4726 35.9732 31.7269 35.9732 31.992Z" fill="#FB0000"/>
</svg>
