<svg width="50" height="15" viewBox="0 0 50 15" fill="none" xmlns="http://www.w3.org/2000/svg">
<g opacity="0.5">
<path d="M48.1292 0.14305L24.9867 10.119L1.84418 0.14305C1.41244 -0.0367181 0.724327 -0.0315354 0.30726 0.154557C-0.0995158 0.336125 -0.0995158 0.623938 0.30726 0.805463L24.2193 11.1122C24.6437 11.2951 25.3317 11.2951 25.7562 11.1122L49.6682 0.805463C50.1 0.625695 50.1119 0.329142 49.6949 0.143006C49.2778 -0.0430866 48.5898 -0.0482254 48.158 0.131498C48.1489 0.135276 48.1401 0.139097 48.1313 0.143006L48.1292 0.14305Z" fill="currentColor"/>
<path d="M24.9867 11.25C24.6982 11.2502 24.4213 11.201 24.2171 11.1132L0.30512 0.806429C-0.111947 0.620337 -0.0999234 0.32374 0.331817 0.143972C0.753062 -0.0313597 1.4208 -0.0313597 1.84194 0.143972L24.9867 10.119L48.1292 0.14305C48.5462 -0.0430427 49.2341 -0.0481815 49.666 0.131542C50.0977 0.31131 50.1096 0.607863 49.6927 0.794C49.6839 0.797909 49.675 0.80173 49.666 0.805507L25.7541 11.1123C25.5507 11.2002 25.2746 11.2497 24.9867 11.25Z" fill="currentColor"/>
<path d="M48.1292 3.89305L24.9867 13.869L1.84418 3.89305C1.41244 3.71328 0.724327 3.71846 0.30726 3.90456C-0.0995158 4.08613 -0.0995158 4.37394 0.30726 4.55546L24.2193 14.8622C24.6437 15.0451 25.3317 15.0451 25.7562 14.8622L49.6682 4.55546C50.1 4.37569 50.1119 4.07914 49.6949 3.89301C49.2778 3.70691 48.5898 3.70177 48.158 3.8815C48.1489 3.88528 48.1401 3.8891 48.1313 3.89301L48.1292 3.89305Z" fill="currentColor"/>
<path d="M24.9867 15C24.6982 15.0002 24.4213 14.951 24.2171 14.8632L0.30512 4.55643C-0.111947 4.37034 -0.0999234 4.07374 0.331817 3.89397C0.753062 3.71864 1.4208 3.71864 1.84194 3.89397L24.9867 13.869L48.1292 3.89305C48.5462 3.70696 49.2341 3.70182 49.666 3.88154C50.0977 4.06131 50.1096 4.35786 49.6927 4.544C49.6839 4.54791 49.675 4.55173 49.666 4.55551L25.7541 14.8623C25.5507 14.9502 25.2746 14.9997 24.9867 15Z" fill="currentColor"/>
</g>
</svg>
