<svg width="20" height="20" viewBox="0 0 20 20" fill="none" xmlns="http://www.w3.org/2000/svg">
<path d="M10 0C7.34783 6.26495e-07 4.8043 1.05357 2.92893 2.92893C1.05357 4.8043 6.26495e-07 7.34784 0 10C6.26495e-07 12.6522 1.05357 15.1957 2.92893 17.0711C4.8043 18.9464 7.34783 20 10 20C12.6522 20 15.1957 18.9464 17.0711 17.0711C18.9464 15.1957 20 12.6522 20 10C20 7.34784 18.9464 4.8043 17.0711 2.92893C15.1957 1.05357 12.6522 6.26495e-07 10 0Z" fill="#333333"/>
<path d="M0.578613 6.66748C0.197914 7.73741 0.002245 8.86437 0 10C0.00224505 11.1356 0.197914 12.2626 0.578613 13.3325H19.4214C19.8021 12.2626 19.9978 11.1356 20 10C20.0001 8.86479 19.8069 7.73784 19.4287 6.66748H0.578613Z" fill="#FF0000"/>
<path d="M0.578613 13.3325C1.26741 15.2813 2.54314 16.9687 4.23028 18.1627C5.91743 19.3567 7.9331 19.9986 10 20C12.0669 19.9986 14.0826 19.3567 15.7697 18.1627C17.4569 16.9687 18.7326 15.2813 19.4214 13.3325H0.578613Z" fill="#FFDD55"/>
<path d="M10 1.15385C8.24123 1.15452 6.52257 1.67945 5.06357 2.66158C3.60456 3.64371 2.47142 5.03845 1.80889 6.66767H18.1941C17.5314 5.03798 16.3978 3.64291 14.9382 2.66074C13.4786 1.67857 11.7593 1.15393 10 1.15385Z" fill="black"/>
<path d="M1.80889 6.66767C1.37738 7.72572 1.15493 8.85734 1.15385 10C1.15493 11.1427 1.37738 12.2743 1.80889 13.3323H18.1911C18.6226 12.2743 18.8451 11.1427 18.8462 10C18.846 8.85754 18.6246 7.72592 18.1941 6.66767H1.80889Z" fill="#D40000"/>
<path d="M1.80889 13.3323C2.47142 14.9615 3.60456 16.3563 5.06357 17.3384C6.52257 18.3206 8.24123 18.8455 10 18.8462C11.7588 18.8455 13.4774 18.3206 14.9364 17.3384C16.3954 16.3563 17.5286 14.9615 18.1911 13.3323H1.80889Z" fill="#FFCC00"/>
</svg>
