<svg width="26" height="25" viewBox="0 0 26 25" fill="none" xmlns="http://www.w3.org/2000/svg">
<path d="M23.4289 15.6889C23.0797 15.6889 22.7967 15.969 22.7967 16.3147V21.8709C22.7955 22.9073 21.9472 23.7472 20.9001 23.7482H3.16103C2.11394 23.7472 1.26565 22.9073 1.26441 21.8709V5.56383C1.26565 4.52764 2.11394 3.68773 3.16103 3.68651H8.77433C9.12352 3.68651 9.40653 3.40638 9.40653 3.06073C9.40653 2.71534 9.12352 2.43496 8.77433 2.43496H3.16103C1.41604 2.43692 0.00197564 3.8366 0 5.56383V21.8711C0.00197564 23.5984 1.41604 24.998 3.16103 25H20.9001C22.6451 24.998 24.0591 23.5984 24.0611 21.8711V16.3147C24.0611 15.969 23.7781 15.6889 23.4289 15.6889Z" fill="#544234"/>
<path d="M23.8107 0.824812C22.6996 -0.274938 20.8984 -0.274938 19.7873 0.824812L8.50836 11.989C8.43106 12.0655 8.37525 12.1604 8.34611 12.2645L6.86289 17.5648C6.80189 17.7821 6.86388 18.0148 7.02489 18.1744C7.18616 18.3338 7.42126 18.3951 7.6408 18.335L12.9955 16.8666C13.1007 16.8378 13.1966 16.7826 13.2739 16.706L24.5526 5.54159C25.6619 4.44111 25.6619 2.6596 24.5526 1.55912L23.8107 0.824812ZM9.88587 12.3958L19.1168 3.25849L22.0939 6.20525L12.8627 15.3425L9.88587 12.3958ZM9.2912 13.5769L11.6696 15.9314L8.37969 16.8336L9.2912 13.5769ZM23.6586 4.6567L22.9881 5.32037L20.0108 2.37336L20.6815 1.7097C21.2987 1.09883 22.2993 1.09883 22.9165 1.7097L23.6586 2.444C24.2747 3.0556 24.2747 4.04535 23.6586 4.6567Z" fill="#544234"/>
</svg>
