<svg width="25" height="27" viewBox="0 0 25 27" fill="none" xmlns="http://www.w3.org/2000/svg">
<path d="M11.2307 26.4023H10.9415C9.39073 26.409 7.85957 26.0555 6.46873 25.3696C5.07788 24.6836 3.86536 23.684 2.92674 22.4495C0.986449 19.8792 -0.0424974 16.7358 0.00233699 13.5156C-0.0333277 11.5721 0.339566 9.64271 1.09687 7.8524C1.85418 6.0621 2.97902 4.45078 4.39858 3.12279C6.94875 1.01879 10.1755 -0.0887847 13.4803 0.00556756H13.8852C15.4213 0.00556756 17.2209 0.564747 19.3998 1.72165C20.3768 2.35769 21.2632 3.12306 22.0349 3.9969C24.0073 6.51551 25.0535 9.63584 24.9979 12.8344C25.0401 15.4399 24.3736 18.008 23.0697 20.2643C21.945 21.8968 20.6595 22.7002 19.2134 22.7002C17.5873 22.7002 16.2247 21.7232 15.1578 19.7886C14.1998 20.2506 13.1491 20.488 12.0856 20.4828C10.2759 20.4598 8.54609 19.7342 7.26159 18.4593C5.97708 17.1844 5.23853 15.46 5.20198 13.6506V13.3999C5.20885 12.288 5.48701 11.1946 6.01232 10.2145C6.53762 9.23448 7.29419 8.39744 8.21636 7.7761C9.23456 7.09098 10.4136 6.68272 11.6374 6.59143C12.8612 6.50015 14.0878 6.729 15.1963 7.2555C15.5132 6.81443 15.9641 6.48755 16.4818 6.32356C16.6613 6.2702 16.8473 6.24208 17.0345 6.24C17.4947 6.21981 17.9486 6.35177 18.3262 6.6155C18.7038 6.87923 18.984 7.26002 19.1234 7.69898H19.2584C18.8956 7.12174 18.464 6.5908 17.9729 6.11788C17.0644 5.34719 15.9809 4.81094 14.8171 4.55607C14.4347 4.45458 14.0426 4.39425 13.6474 4.37611C9.34113 4.37611 6.53885 6.10502 5.08629 9.66572C4.66955 10.7847 4.45202 11.9681 4.44357 13.1621V13.927C4.42874 16.3683 5.36461 18.7195 7.05303 20.4828C8.20993 21.434 9.28328 21.9546 10.1767 21.9546C11.9634 22.0639 12.2527 22.2053 12.4712 22.3917C12.7647 22.5911 13.0048 22.8595 13.1706 23.1732C13.3365 23.4869 13.4229 23.8365 13.4224 24.1913V24.3327C13.1203 26.1323 11.9313 26.4023 11.2307 26.4023ZM13.4803 1.33601C10.5086 1.24527 7.60373 2.22875 5.29839 4.10615C4.02334 5.3102 3.01417 6.76759 2.33566 8.38472C1.65715 10.0019 1.3243 11.743 1.35849 13.4964C1.31192 16.4127 2.23671 19.2617 3.98723 21.5947C4.79625 22.6718 5.84717 23.5437 7.05518 24.1399C8.2632 24.7361 9.59445 25.0399 10.9415 25.0268H11.2307C11.4814 25.0268 11.8735 25.0268 12.047 24.1013C12.0259 23.967 11.9743 23.8393 11.8964 23.7279C11.8184 23.6165 11.716 23.5244 11.5971 23.4586C11.5971 23.4586 11.34 23.3879 10.0995 23.3108C8.90407 23.3108 7.58006 22.7002 6.08894 21.4597C4.14517 19.4364 3.06026 16.7391 3.06171 13.9334V13.1686C3.07991 11.8056 3.33884 10.4565 3.82655 9.18367C5.49763 5.08952 8.80124 3.02638 13.6474 3.02638C14.1468 3.04379 14.6426 3.11709 15.1256 3.2449C16.5141 3.55558 17.8052 4.20221 18.8856 5.12808C19.8897 6.0753 20.6825 7.22395 21.2119 8.4988C21.7414 9.77365 21.9955 11.146 21.9578 12.5258V13.2071C21.9469 14.3611 21.7738 15.5078 21.4436 16.6136C20.6724 18.7795 20.0361 19.6472 19.2198 19.6472H19.0334L18.8727 19.5508C18.5334 19.3285 18.2515 19.0289 18.05 18.6767L17.9408 18.5096V8.44454C17.9213 8.36618 17.9063 8.28679 17.8958 8.20674C17.5937 7.39048 17.0602 7.56401 16.906 7.61542C16.2633 7.85323 16.2633 8.13603 16.2633 8.25815V9.47291L15.2285 8.83018C14.3103 8.24527 13.2449 7.93322 12.1563 7.93037C11.0266 7.92194 9.92118 8.25827 8.98763 8.89446C8.24324 9.38705 7.63123 10.0549 7.20537 10.8394C6.77951 11.6239 6.55283 12.5009 6.54527 13.3935V13.6442C6.55737 14.858 6.98111 16.0318 7.74717 16.9735C8.60483 18.0735 9.84385 18.8119 11.2195 19.0428C12.5951 19.2736 14.0073 18.9802 15.1771 18.2204L16.2183 17.5455V18.786C16.2156 18.8374 16.2156 18.8889 16.2183 18.9402C17.0667 20.5535 18.0372 21.344 19.1941 21.344C20.1775 21.344 21.0644 20.7463 21.9064 19.5315C23.0609 17.4891 23.6447 15.1736 23.5968 12.8279C23.6539 9.95234 22.7239 7.14402 20.9616 4.871C20.3162 4.11594 19.5751 3.44831 18.757 2.88498C16.8289 1.86305 15.1963 1.33601 13.9045 1.33601H13.4803ZM19.2648 18.079C19.6167 17.4681 19.9032 16.8218 20.1196 16.1508C20.4092 15.1807 20.5607 14.1745 20.5695 13.1621V12.5258C20.6095 10.9115 20.2049 9.3173 19.3998 7.9175L19.2391 8.70806L19.2648 18.079ZM12.1948 17.4363C11.8565 17.4103 11.5197 17.3674 11.1857 17.3077C8.75625 16.3629 8.26778 14.7368 8.26778 13.5285C8.25901 12.9617 8.37531 12.3999 8.60842 11.8831C9.43753 10.3277 10.6137 9.5629 12.1177 9.5629C12.7011 9.56708 13.2763 9.70099 13.8016 9.95495C15.7298 10.964 16.1476 12.4037 16.1476 13.4321V13.6827C16.1477 14.036 16.0935 14.3872 15.9869 14.724C14.9842 17.0249 13.3839 17.462 12.2077 17.462L12.1948 17.4363ZM12.1177 10.9126C11.6184 10.9238 11.1337 11.0832 10.7252 11.3704C10.3166 11.6576 10.0027 12.0598 9.82317 12.5258C9.68734 12.8558 9.62168 13.2104 9.63035 13.5671C9.63035 14.7432 10.2731 15.5338 11.5585 16.0544L12.2462 16.1251C13.3389 16.1251 14.123 15.5209 14.6693 14.2355C14.7183 14.0487 14.7442 13.8566 14.7464 13.6635V13.4128C14.7464 12.4294 14.2451 11.7096 13.1653 11.1504C12.8384 11.0101 12.4863 10.9379 12.1306 10.9383L12.1177 10.9126Z" fill="currentColor"/>
</svg>
