<svg width="20" height="20" viewBox="0 0 20 20" fill="none" xmlns="http://www.w3.org/2000/svg">
<path d="M10 20C15.5228 20 20 15.5228 20 10C20 4.47715 15.5228 0 10 0C4.47715 0 0 4.47715 0 10C0 15.5228 4.47715 20 10 20Z" fill="#F0F0F0"/>
<path d="M2.06719 3.9118C1.28168 4.93379 0.689375 6.11172 0.344492 7.39137H5.54676L2.06719 3.9118Z" fill="#0052B4"/>
<path d="M19.6555 7.39137C19.3106 6.11176 18.7183 4.93383 17.9328 3.91184L14.4533 7.39137H19.6555Z" fill="#0052B4"/>
<path d="M0.344492 12.6087C0.689414 13.8884 1.28172 15.0663 2.06719 16.0882L5.54664 12.6087H0.344492Z" fill="#0052B4"/>
<path d="M16.0882 2.06723C15.0662 1.28172 13.8883 0.689414 12.6087 0.344492V5.54672L16.0882 2.06723Z" fill="#0052B4"/>
<path d="M3.9118 17.9328C4.93379 18.7183 6.11172 19.3106 7.39133 19.6555V14.4533L3.9118 17.9328Z" fill="#0052B4"/>
<path d="M7.39129 0.344492C6.11168 0.689414 4.93375 1.28172 3.9118 2.06719L7.39129 5.54668V0.344492Z" fill="#0052B4"/>
<path d="M12.6087 19.6555C13.8883 19.3106 15.0662 18.7183 16.0882 17.9328L12.6087 14.4533V19.6555Z" fill="#0052B4"/>
<path d="M14.4533 12.6087L17.9328 16.0883C18.7183 15.0663 19.3106 13.8884 19.6555 12.6087H14.4533Z" fill="#0052B4"/>
<path d="M19.9154 8.69566H11.3044V0.0846484C10.8774 0.0290625 10.4421 0 10 0C9.55785 0 9.12262 0.0290625 8.69566 0.0846484V8.69563H0.0846484C0.0290625 9.12262 0 9.55793 0 10C0 10.4421 0.0290625 10.8774 0.0846484 11.3043H8.69563V19.9154C9.12262 19.9709 9.55785 20 10 20C10.4421 20 10.8774 19.971 11.3043 19.9154V11.3044H19.9154C19.9709 10.8774 20 10.4421 20 10C20 9.55793 19.9709 9.12262 19.9154 8.69566Z" fill="#D80027"/>
<path d="M12.6087 12.6087L17.0711 17.0711C17.2763 16.8659 17.4721 16.6514 17.6589 16.4291L13.8385 12.6087H12.6087V12.6087Z" fill="#D80027"/>
<path d="M7.39129 12.6087H7.39121L2.92891 17.0711C3.13406 17.2763 3.34855 17.4721 3.5709 17.6589L7.39129 13.8384V12.6087Z" fill="#D80027"/>
<path d="M7.39129 7.39137V7.39129L2.92895 2.92891C2.72371 3.13406 2.52793 3.34855 2.34113 3.5709L6.16156 7.39133L7.39129 7.39137Z" fill="#D80027"/>
<path d="M12.6087 7.39137L17.0711 2.92895C16.8659 2.72371 16.6514 2.52793 16.4291 2.34117L12.6087 6.1616V7.39137Z" fill="#D80027"/>
</svg>
