<svg width="20" height="20" viewBox="0 0 20 20" fill="none" xmlns="http://www.w3.org/2000/svg">
<path d="M10 0C7.34784 8.86732e-07 4.8043 1.05357 2.92893 2.92893C1.05357 4.8043 8.636e-07 7.34784 0 10C7.71071e-07 12.6522 1.05357 15.1957 2.92893 17.0711C4.8043 18.9464 7.34784 20 10 20C12.6522 20 15.1957 18.9464 17.0711 17.0711C18.9464 15.1957 20 12.6522 20 10C20 7.34784 18.9464 4.8043 17.0711 2.92893C15.1957 1.05357 12.6522 7.71071e-07 10 0Z" fill="#FF2A2A"/>
<path d="M0.578613 6.66748C0.197915 7.73741 0.00224505 8.86436 0 10C0.00224508 11.1356 0.197915 12.2626 0.578613 13.3325H19.4214C19.8021 12.2626 19.9978 11.1356 20 10C20.0001 8.86479 19.8069 7.73784 19.4287 6.66748H0.578613Z" fill="#FFD42A"/>
<path d="M10 1.15385C8.24123 1.15452 6.52257 1.67945 5.06357 2.66158C3.60456 3.64371 2.47142 5.03845 1.80889 6.66767H18.1941C17.5314 5.03798 16.3978 3.64291 14.9382 2.66074C13.4786 1.67857 11.7593 1.15393 10 1.15385Z" fill="#D40000"/>
<path d="M1.80889 13.3323C2.47142 14.9615 3.60456 16.3563 5.06356 17.3384C6.52257 18.3205 8.24123 18.8455 10 18.8462C11.7588 18.8455 13.4774 18.3205 14.9364 17.3384C16.3954 16.3563 17.5286 14.9615 18.1911 13.3323H1.80889Z" fill="#D40000"/>
<path d="M1.80889 6.66767C1.37737 7.72571 1.15493 8.85734 1.15385 10C1.15493 11.1427 1.37737 12.2743 1.80889 13.3323H18.1911C18.6226 12.2743 18.8451 11.1427 18.8462 10C18.846 8.85754 18.6246 7.72592 18.1941 6.66767H1.80889Z" fill="#FFCC00"/>
<path d="M5.12652 8.91201H8.42065L8.42458 11.2967C8.42607 12.2049 7.63666 12.9411 6.66471 12.9411C5.75507 12.8829 5.06815 12.1467 5.13044 11.2967L5.12652 8.91201Z" fill="white"/>
<path d="M5.12652 8.91201H6.77362V10.601H5.12652L5.12652 8.91201Z" fill="#D40000"/>
<path d="M6.77362 8.91201H8.42065L8.42071 10.601H6.77362V8.91201Z" fill="white"/>
<path d="M5.12652 10.601L5.13044 11.2967L5.13056 11.5115C5.16953 12.0321 5.4863 12.4887 5.95225 12.7397C6.4192 12.489 6.73729 12.0328 6.77632 11.5115L6.77245 10.6011L5.12652 10.601Z" fill="#D40000"/>
<path d="M6.77484 10.6011C6.77792 10.9046 6.77741 11.2081 6.7787 11.5115C6.8164 12.0152 7.11378 12.4597 7.555 12.7152C8.06296 12.4306 8.40177 11.9468 8.42446 11.3382C8.42381 11.0965 8.42199 10.8459 8.42071 10.601L6.77484 10.6011Z" fill="#D40000"/>
<path d="M5.44173 9.26323H6.45841C6.49291 9.26323 6.526 9.2812 6.5504 9.31319C6.5748 9.34518 6.58851 9.38857 6.58851 9.4338V10.0797C6.58851 10.1021 6.58515 10.1243 6.57861 10.145C6.57207 10.1657 6.56249 10.1845 6.5504 10.2003C6.53832 10.2161 6.52398 10.2287 6.50819 10.2373C6.49241 10.2458 6.47549 10.2503 6.45841 10.2503H5.44173C5.42464 10.2503 5.40772 10.2458 5.39194 10.2373C5.37615 10.2287 5.36181 10.2161 5.34973 10.2003C5.33765 10.1845 5.32806 10.1657 5.32153 10.145C5.31499 10.1243 5.31162 10.1021 5.31162 10.0797V9.43381C5.31162 9.38857 5.32533 9.34518 5.34973 9.3132C5.37413 9.28121 5.40722 9.26323 5.44173 9.26323Z" fill="#FFCC00"/>
<path d="M5.68633 10.2503H6.21317L6.2138 9.86889C6.21404 9.72363 6.08778 9.60589 5.93234 9.60589C5.78687 9.61517 5.67699 9.73295 5.68697 9.86889L5.68633 10.2503Z" fill="#0044AA"/>
<path d="M3.13376 12.527H4.52489C4.53735 12.527 4.54968 12.5294 4.56119 12.5342C4.5727 12.5389 4.58315 12.5459 4.59196 12.5547C4.60077 12.5635 4.60775 12.574 4.61252 12.5855C4.61729 12.597 4.61974 12.6093 4.61974 12.6218V12.8668C4.61974 12.8793 4.61729 12.8916 4.61252 12.9031C4.60775 12.9146 4.60077 12.9251 4.59196 12.9339C4.58315 12.9427 4.5727 12.9497 4.56119 12.9545C4.54968 12.9592 4.53735 12.9617 4.52489 12.9617H3.13376C3.12131 12.9617 3.10897 12.9592 3.09747 12.9545C3.08596 12.9497 3.0755 12.9427 3.06669 12.9339C3.05789 12.9251 3.0509 12.9146 3.04613 12.9031C3.04137 12.8916 3.03891 12.8793 3.03891 12.8668V12.6218C3.03891 12.6093 3.04137 12.597 3.04613 12.5855C3.0509 12.574 3.05789 12.5635 3.06669 12.5547C3.0755 12.5459 3.08596 12.5389 3.09747 12.5342C3.10897 12.5294 3.12131 12.527 3.13376 12.527Z" fill="#0044AA"/>
<path d="M3.37089 12.2424H4.28777C4.29918 12.2424 4.31049 12.2447 4.32104 12.249C4.33159 12.2534 4.34117 12.2598 4.34925 12.2679C4.35732 12.2759 4.36372 12.2855 4.36809 12.2961C4.37246 12.3066 4.37471 12.3179 4.37471 12.3294V12.5269H3.28394V12.3294C3.28394 12.3179 3.28619 12.3066 3.29056 12.2961C3.29493 12.2855 3.30133 12.2759 3.30941 12.2679C3.31748 12.2598 3.32707 12.2534 3.33762 12.249C3.34816 12.2447 3.35947 12.2424 3.37089 12.2424Z" fill="#FFE680"/>
<path d="M4.22988 8.91391H3.43027V12.2435H4.22988V8.91391Z" fill="white"/>
<path d="M3.81828 8.32927C3.60289 8.33475 3.43027 8.51106 3.43027 8.72777V8.91391H4.22988V8.72777C4.20629 8.40702 3.98571 8.31593 3.81828 8.32927Z" fill="#D40000"/>
<path d="M7.51941 9.17393H7.67491C7.85666 9.17393 8.003 9.31017 8.003 9.4794V10.0336C8.003 10.2028 7.85667 10.3391 7.67491 10.3391H7.51941C7.33765 10.3391 7.19132 10.2028 7.19132 10.0336V9.4794C7.19132 9.31017 7.33765 9.17393 7.51941 9.17393Z" fill="#D40000"/>
<path d="M5.49668 8.59159H8.1233L8.51588 7.04974L7.66416 7.7113L6.78859 7.04974L5.92374 7.7113L5.03522 7.04974L5.49668 8.59159Z" fill="#D40000"/>
<path d="M7.1371 10.7461H8.13211L8.1333 11.5654C8.13375 11.8775 7.89531 12.1305 7.60173 12.1305C7.32697 12.1104 7.11947 11.8575 7.13829 11.5654L7.1371 10.7461Z" fill="#FFCC00"/>
<path d="M9.02552 12.527H10.4166C10.4291 12.527 10.4414 12.5294 10.4529 12.5342C10.4645 12.5389 10.4749 12.5459 10.4837 12.5547C10.4925 12.5635 10.4995 12.574 10.5043 12.5855C10.509 12.597 10.5115 12.6093 10.5115 12.6218V12.8668C10.5115 12.8793 10.509 12.8916 10.5043 12.9031C10.4995 12.9146 10.4925 12.9251 10.4837 12.9339C10.4749 12.9427 10.4645 12.9497 10.4529 12.9545C10.4414 12.9592 10.4291 12.9617 10.4166 12.9617H9.02552C9.01307 12.9617 9.00073 12.9592 8.98923 12.9545C8.97772 12.9497 8.96726 12.9427 8.95845 12.9339C8.94965 12.9251 8.94266 12.9146 8.93789 12.9031C8.93313 12.8916 8.93067 12.8793 8.93067 12.8668V12.6218C8.93067 12.6093 8.93313 12.597 8.93789 12.5855C8.94266 12.574 8.94965 12.5635 8.95845 12.5547C8.96726 12.5459 8.97772 12.5389 8.98923 12.5342C9.00073 12.5294 9.01307 12.527 9.02552 12.527Z" fill="#0044AA"/>
<path d="M9.26265 12.2424H10.1795C10.1909 12.2424 10.2022 12.2447 10.2128 12.249C10.2233 12.2534 10.2329 12.2598 10.241 12.2679C10.2491 12.2759 10.2555 12.2855 10.2599 12.2961C10.2642 12.3066 10.2665 12.3179 10.2665 12.3294V12.5269H9.1757V12.3294C9.1757 12.3179 9.17795 12.3066 9.18232 12.2961C9.18669 12.2855 9.19309 12.2759 9.20117 12.2679C9.20924 12.2598 9.21882 12.2534 9.22937 12.249C9.23992 12.2447 9.25123 12.2424 9.26265 12.2424Z" fill="#FFE680"/>
<path d="M10.1208 8.91391H9.32121V12.2435H10.1208V8.91391Z" fill="white"/>
<path d="M5.1265 10.6023L5.13173 11.297V11.512C5.14974 11.7526 5.22532 11.9786 5.34933 12.1779V10.6023H5.1265Z" fill="#FFE680"/>
<path d="M6.55008 10.6023V12.1884C6.6691 12.0006 6.74828 11.7854 6.77292 11.5592V10.6023H6.55008Z" fill="#FFE680"/>
<path d="M6.07556 10.6023V12.6656C6.15579 12.6132 6.22968 12.5543 6.2984 12.4899V10.6023H6.07556Z" fill="#FFE680"/>
<path d="M5.60103 10.6023V12.4847C5.66911 12.5494 5.74423 12.6075 5.82387 12.6603V10.6023L5.60103 10.6023Z" fill="#FFE680"/>
<path d="M6.31665 10.3608H7.2366L7.2377 11.0267C7.23812 11.2804 7.01766 11.486 6.74622 11.486C6.49219 11.4697 6.30035 11.2641 6.31775 11.0267L6.31665 10.3608Z" fill="#D40000"/>
<path d="M6.41523 10.4812H7.13826L7.13913 11.0046C7.13945 11.204 6.96618 11.3656 6.75285 11.3656C6.55319 11.3528 6.40241 11.1912 6.41609 11.0046L6.41523 10.4812Z" fill="#0044AA"/>
<path d="M9.70929 8.32927C9.4939 8.33475 9.32128 8.51106 9.32128 8.72777L9.32121 8.91391H10.1208L10.1209 8.72777C10.0973 8.40702 9.87672 8.31593 9.70929 8.32927Z" fill="#D40000"/>
</svg>
