<svg width="20" height="20" viewBox="0 0 20 20" fill="none" xmlns="http://www.w3.org/2000/svg">
<path d="M10 20C15.5229 20 20 15.5229 20 10C20 4.47715 15.5229 0 10 0C4.47715 0 0 4.47715 0 10C0 15.5229 4.47715 20 10 20Z" fill="#338AF3"/>
<path d="M10 12.1739C8.5077 12.1739 7.21035 11.3379 6.55051 10.1089H4.34777C4.34777 10.8895 5.02777 11.5217 5.80777 11.5217H5.76055C5.76055 12.3022 6.39387 12.9345 7.17332 12.9345C7.17332 13.715 7.80664 14.3472 8.58609 14.3472H11.4122C12.1927 14.3472 12.825 13.7139 12.825 12.9345C13.6055 12.9345 14.2377 12.3011 14.2377 11.5217H14.1905C14.9705 11.5217 15.6505 10.8884 15.6505 10.1089H13.4509C12.7915 11.3396 11.4934 12.1739 10 12.1739Z" fill="#FFDA44"/>
<path d="M12.9889 8.26109L11.7678 8.83555L12.4178 10.0189L11.0917 9.76496L10.9239 11.1039L10 10.1189L9.07609 11.1045L8.90832 9.76555L7.58223 10.0195L8.23223 8.83613L7.01113 8.26168L8.23223 7.68723L7.58223 6.50391L8.90832 6.75781L9.07664 5.41891L10 6.40277L10.9239 5.41723L11.0917 6.75613L12.4178 6.50223L11.7678 7.68555L12.9889 8.26109Z" fill="#FFDA44"/>
</svg>
