<svg width="25" height="27" viewBox="0 0 25 27" fill="none" xmlns="http://www.w3.org/2000/svg">
<path d="M8.55672 26.6998C8.0901 26.6972 7.63143 26.5788 7.2218 26.3553L1.42995 23.1544C0.789284 22.8015 0.314683 22.2089 0.11019 21.5066C-0.0943036 20.8044 -0.0120041 20.0497 0.339047 19.408C0.697003 18.7705 1.29243 18.3004 1.99555 18.1001C2.69866 17.8997 3.45246 17.9855 4.09262 18.3386L4.58066 18.6113C4.24046 18.0965 4.0824 17.4826 4.13167 16.8674C4.18094 16.2523 4.4347 15.6714 4.85251 15.2172C5.27032 14.7631 5.82813 14.4619 6.43702 14.3616C7.04592 14.2613 7.67086 14.3678 8.21223 14.664L9.18112 15.1951L10.3653 13.042C9.48386 11.8742 8.9335 10.4904 8.77217 9.03615C8.61084 7.58195 8.84451 6.11115 9.44858 4.77854C10.0526 3.44594 11.0048 2.30082 12.2048 1.46371C13.4048 0.626599 14.8082 0.128449 16.2674 0.0216952C17.7267 -0.0850586 19.1877 0.203532 20.4967 0.857089C21.8058 1.51065 22.9144 2.50501 23.706 3.7355C24.4976 4.966 24.9428 6.38713 24.9949 7.84933C25.0469 9.31153 24.7038 10.7607 24.0016 12.0444C23.2217 13.449 22.0437 14.5916 20.616 15.3284C19.1883 16.0653 17.5745 16.3635 15.9778 16.1855L13.8749 19.9893C13.8519 20.0403 13.823 20.0885 13.7888 20.1329L11.1907 24.8625C11.138 24.9686 11.0755 25.0695 11.0041 25.1639C11.0041 25.1639 11.0041 25.1639 11.0041 25.2572C10.8289 25.5761 10.5921 25.857 10.3075 26.0837C10.0229 26.3104 9.69618 26.4784 9.3462 26.5778C9.09093 26.6591 8.82461 26.7002 8.55672 26.6998ZM2.76488 19.5228C2.57431 19.5229 2.38632 19.5668 2.21545 19.6512C2.04459 19.7355 1.89543 19.8581 1.77955 20.0094C1.66366 20.1606 1.58415 20.3366 1.54717 20.5235C1.5102 20.7104 1.51675 20.9034 1.56632 21.0874C1.66199 21.3961 1.87623 21.6542 2.16201 21.8051L7.96103 25.006C8.2536 25.1638 8.59657 25.1999 8.91557 25.1065C9.2235 25.0094 9.48115 24.7956 9.63328 24.5108C9.65042 24.4611 9.67204 24.4131 9.69787 24.3673L9.77682 24.2381L14.8007 15.0802C14.8554 14.9113 14.9708 14.7686 15.1246 14.6798C15.2783 14.591 15.4596 14.5623 15.6333 14.5994C16.9959 14.8379 18.399 14.6453 19.647 14.0483C20.8949 13.4513 21.9255 12.4798 22.595 11.2692C23.4439 9.72839 23.646 7.9134 23.1567 6.22356C22.6675 4.53372 21.527 3.10745 19.9861 2.25851C18.4453 1.40957 16.6303 1.20749 14.9404 1.69674C13.2506 2.186 11.8243 3.3265 10.9754 4.86735C10.323 6.06092 10.0517 7.42563 10.1979 8.77797C10.3442 10.1303 10.901 11.4054 11.7936 12.4319C11.9106 12.5633 11.9752 12.7332 11.9752 12.9092C11.9752 13.0852 11.9106 13.255 11.7936 13.3865L10.1787 16.5587C10.0818 16.7339 9.91963 16.8638 9.72749 16.9202C9.53536 16.9767 9.32873 16.9551 9.15242 16.8601L7.52323 15.963C7.23296 15.8022 6.89067 15.7632 6.57168 15.8547C6.25269 15.9463 5.98313 16.1608 5.82228 16.451C5.66144 16.7413 5.6225 17.0836 5.71402 17.4026C5.80555 17.7216 6.02004 17.9911 6.31032 18.152L7.90362 19.0563C7.99376 19.0998 8.0738 19.1617 8.13862 19.2379C8.20343 19.3142 8.25157 19.4032 8.27996 19.4991C8.30835 19.5951 8.31635 19.696 8.30345 19.7952C8.29055 19.8945 8.25703 19.9899 8.20505 20.0754L7.62371 21.1233C7.57807 21.2125 7.51426 21.2911 7.43639 21.3542C7.35851 21.4172 7.2683 21.4632 7.17156 21.4893C6.97883 21.5404 6.77396 21.5173 6.5974 21.4247L3.36775 19.6376C3.18174 19.5399 2.975 19.4882 2.76488 19.4869V19.5228Z" fill="currentColor"/>
<path d="M16.9108 12.4678C15.9777 12.467 15.0708 12.1596 14.3296 11.5929C13.5884 11.0262 13.054 10.2317 12.8085 9.33152C12.563 8.43136 12.6202 7.47549 12.9711 6.61099C13.3221 5.74649 13.9474 5.02127 14.7508 4.54693C15.5543 4.07258 16.4913 3.8754 17.4178 3.98573C18.3443 4.09606 19.2088 4.50779 19.8784 5.15755C20.548 5.8073 20.9855 6.65908 21.1236 7.58182C21.2617 8.50457 21.0928 9.44713 20.6428 10.2645C20.3696 10.7557 20.0019 11.188 19.561 11.5366C19.12 11.8852 18.6145 12.1431 18.0734 12.2955C17.6959 12.4074 17.3045 12.4654 16.9108 12.4678ZM16.9108 5.46304C16.5205 5.46671 16.1355 5.55366 15.7816 5.71808C15.4276 5.88249 15.1128 6.12059 14.8583 6.41644C14.6037 6.71228 14.4153 7.05906 14.3055 7.43359C14.1958 7.80812 14.1673 8.20177 14.2219 8.58821C14.2765 8.97465 14.413 9.34497 14.6223 9.67442C14.8315 10.0039 15.1087 10.2848 15.4352 10.4986C15.7618 10.7123 16.1302 10.8538 16.5159 10.9137C16.9015 10.9736 17.2955 10.9504 17.6715 10.8458C18.0183 10.7476 18.3419 10.5808 18.623 10.3551C18.9041 10.1295 19.137 9.84975 19.3079 9.53241C19.4827 9.21737 19.5936 8.87088 19.6341 8.51286C19.6746 8.15483 19.644 7.79233 19.5439 7.44618C19.4439 7.10004 19.2764 6.77707 19.0512 6.49585C18.8259 6.21464 18.5473 5.98072 18.2313 5.80754C17.8309 5.58052 17.3782 5.46178 16.9179 5.46304H16.9108Z" fill="currentColor"/>
</svg>
