<svg width="25" height="22" viewBox="0 0 25 22" fill="none" xmlns="http://www.w3.org/2000/svg">
<path d="M22.1591 6.73131H15.9091V2.92665C15.9082 2.15074 15.6086 1.40688 15.076 0.858224C14.5434 0.309571 13.8214 0.000929422 13.0682 0H2.84091C2.08773 0.000929422 1.36566 0.309571 0.833079 0.858224C0.300501 1.40688 0.000902192 2.15074 0 2.92665V9.95063C0.000902192 10.7265 0.300501 11.4704 0.833079 12.0191C1.36566 12.5677 2.08773 12.8764 2.84091 12.8773V14.1006C2.84048 14.3316 2.90677 14.5574 3.03132 14.7494C3.15587 14.9414 3.33307 15.0909 3.54034 15.1788C3.74853 15.2681 3.9778 15.2916 4.19898 15.2463C4.42017 15.2009 4.62325 15.0888 4.78239 14.9242C4.80313 14.9036 4.82214 14.8813 4.8392 14.8575L6.25284 12.8773H9.09091V16.6819C9.09181 17.4578 9.39141 18.2017 9.92399 18.7504C10.4566 19.299 11.1786 19.6077 11.9318 19.6086H18.2307L20.2193 21.6572C20.3782 21.8209 20.5807 21.9324 20.8011 21.9775C21.0215 22.0227 21.2499 21.9995 21.4576 21.9109C21.6652 21.8223 21.8426 21.6723 21.9675 21.4798C22.0924 21.2874 22.159 21.0611 22.1591 20.8296V19.6086C22.9123 19.6077 23.6343 19.299 24.1669 18.7504C24.6995 18.2017 24.9991 17.4578 25 16.6819V9.65796C24.9991 8.88205 24.6995 8.13818 24.1669 7.58953C23.6343 7.04088 22.9123 6.73224 22.1591 6.73131ZM5.96591 11.7066C5.87736 11.7071 5.79015 11.7289 5.71123 11.7702C5.63231 11.8116 5.56387 11.8714 5.51136 11.9448L3.97727 14.0872V12.2919C3.97727 12.1367 3.91741 11.9878 3.81086 11.8781C3.7043 11.7683 3.55978 11.7066 3.40909 11.7066H2.84091C2.38884 11.7066 1.95528 11.5216 1.63561 11.1923C1.31595 10.863 1.13636 10.4163 1.13636 9.95063V2.92665C1.13636 2.46094 1.31595 2.01429 1.63561 1.68498C1.95528 1.35567 2.38884 1.17066 2.84091 1.17066H13.0682C13.5203 1.17066 13.9538 1.35567 14.2735 1.68498C14.5931 2.01429 14.7727 2.46094 14.7727 2.92665V6.73131H11.9318C11.3273 6.73315 10.7395 6.93529 10.2551 7.30786L8.47159 3.26907C8.4264 3.16688 8.35362 3.08024 8.26194 3.01948C8.17026 2.95873 8.06355 2.92643 7.95455 2.92643C7.84554 2.92643 7.73883 2.95873 7.64715 3.01948C7.55547 3.08024 7.4827 3.16688 7.4375 3.26907L4.59659 9.70771C4.56579 9.77781 4.54871 9.85347 4.54632 9.93037C4.54393 10.0073 4.55629 10.0839 4.58267 10.1559C4.60906 10.2279 4.64896 10.2938 4.70009 10.3498C4.75123 10.4059 4.8126 10.4511 4.88068 10.4827C4.9537 10.5175 5.03316 10.5357 5.11364 10.536C5.22268 10.5359 5.32942 10.5036 5.4211 10.4427C5.51278 10.3819 5.58554 10.2952 5.63068 10.193L6.5125 8.19463H9.39773L9.43807 8.28536C9.2135 8.70609 9.09419 9.17783 9.09091 9.65796V11.7066H5.96591ZM8.88125 7.02397H7.02898L7.95455 4.92615L8.88125 7.02397ZM23.8636 16.6819C23.8636 17.1476 23.684 17.5943 23.3644 17.9236C23.0447 18.2529 22.6112 18.4379 22.1591 18.4379H21.5909C21.4402 18.4379 21.2957 18.4996 21.1891 18.6094C21.0826 18.7191 21.0227 18.868 21.0227 19.0233V20.8296L18.8676 18.6094C18.7611 18.4996 18.6166 18.438 18.4659 18.4379H11.9318C11.4797 18.4379 11.0462 18.2529 10.7265 17.9236C10.4069 17.5943 10.2273 17.1476 10.2273 16.6819V9.65796C10.2273 9.19224 10.4069 8.7456 10.7265 8.41629C11.0462 8.08697 11.4797 7.90197 11.9318 7.90197H22.1591C22.6112 7.90197 23.0447 8.08697 23.3644 8.41629C23.684 8.7456 23.8636 9.19224 23.8636 9.65796V16.6819Z" fill="currentColor"/>
<path d="M19.8864 11.1213H17.6136V9.95063C17.6136 9.79539 17.5538 9.64651 17.4472 9.53674C17.3407 9.42696 17.1961 9.3653 17.0455 9.3653C16.8948 9.3653 16.7502 9.42696 16.6437 9.53674C16.5371 9.64651 16.4773 9.79539 16.4773 9.95063V11.1213H14.2045C14.0539 11.1213 13.9093 11.183 13.8028 11.2927C13.6962 11.4025 13.6364 11.5514 13.6364 11.7066C13.6364 11.8619 13.6962 12.0107 13.8028 12.1205C13.9093 12.2303 14.0539 12.292 14.2045 12.292H18.4205C18.2813 13.2864 17.7904 14.1928 17.042 14.837C16.6049 14.4609 16.2516 13.9921 16.0063 13.4626C15.9754 13.3914 15.931 13.3272 15.8757 13.2739C15.8204 13.2206 15.7553 13.1792 15.6842 13.1522C15.6132 13.1252 15.5376 13.1131 15.4619 13.1166C15.3863 13.1201 15.3121 13.1391 15.2436 13.1726C15.1752 13.2061 15.114 13.2533 15.0636 13.3115C15.0132 13.3697 14.9745 13.4378 14.95 13.5116C14.9254 13.5854 14.9154 13.6635 14.9206 13.7413C14.9258 13.8192 14.946 13.8952 14.9801 13.9648C15.2441 14.5288 15.6051 15.0388 16.0455 15.4703C15.5405 15.6918 14.9971 15.8054 14.4483 15.8039C14.3747 15.8043 14.3019 15.8198 14.2343 15.8496C14.1666 15.8794 14.1054 15.9229 14.0543 15.9774C14.0032 16.032 13.9632 16.0965 13.9367 16.1673C13.9102 16.238 13.8977 16.3135 13.9 16.3893C13.9046 16.5467 13.9687 16.696 14.0787 16.8053C14.1887 16.9147 14.3358 16.9754 14.4886 16.9746C15.3916 16.9743 16.2782 16.7257 17.0568 16.2546C17.8427 16.7238 18.7344 16.972 19.6426 16.9746C19.7162 16.9742 19.789 16.9587 19.8567 16.9289C19.9243 16.8991 19.9855 16.8556 20.0366 16.8011C20.0877 16.7465 20.1277 16.682 20.1542 16.6113C20.1807 16.5405 20.1932 16.465 20.1909 16.3893C20.1863 16.2319 20.1222 16.0826 20.0122 15.9732C19.9022 15.8638 19.7551 15.8031 19.6023 15.8039C19.0707 15.8018 18.5451 15.6891 18.0568 15.4726C18.9032 14.6248 19.4376 13.5006 19.5688 12.292H19.8864C20.0371 12.292 20.1816 12.2303 20.2881 12.1205C20.3947 12.0107 20.4545 11.8619 20.4545 11.7066C20.4545 11.5514 20.3947 11.4025 20.2881 11.2927C20.1816 11.183 20.0371 11.1213 19.8864 11.1213Z" fill="currentColor"/>
</svg>
