<svg class="loader" xmlns="http://www.w3.org/2000/svg" xmlns:xlink="http://www.w3.org/1999/xlink" style="margin: auto; background: none; display: block; shape-rendering: auto;" width="200px" height="200px" viewBox="0 0 100 100" preserveAspectRatio="xMidYMid">
<g transform="translate(50 50)">
  <g transform="scale(0.7)">
    <g transform="translate(-50 -50)">
      <g>
       
        <path fill-opacity="0.8" fill="#107DC6" d="M50 50L50 0A50 50 0 0 1 100 50Z"/>
      </g>
      <g>
        <path fill-opacity="0.8" fill="#ABEAFE" d="M50 50L50 0A50 50 0 0 1 100 50Z" transform="rotate(90 50 50)"/>
      </g>
      <g>
        <path fill-opacity="0.8" fill="#F4FCFE" d="M50 50L50 0A50 50 0 0 1 100 50Z" transform="rotate(180 50 50)"/>
      </g>
      <g>

        <path fill-opacity="0.8" fill="#75D1A0" d="M50 50L50 0A50 50 0 0 1 100 50Z" transform="rotate(270 50 50)"/>
      </g>
    </g>
  </g>
</g>
</svg>
