<svg width="20" height="18" viewBox="0 0 20 18" fill="none" xmlns="http://www.w3.org/2000/svg">
<path d="M0.58676 17.9972C0.51383 18.0009 0.440919 17.9897 0.372464 17.9643C0.304008 17.939 0.241438 17.9 0.188561 17.8498C0.135683 17.7995 0.0936032 17.7391 0.0648806 17.6721C0.0361581 17.6051 0.0213935 17.533 0.0214848 17.4602C0.0214848 13.5503 3.40775 10.1721 8.09684 9.43097C8.1704 9.41552 8.24638 9.41562 8.3199 9.43125C8.39342 9.44688 8.46284 9.47769 8.5237 9.52171C8.58455 9.56572 8.6355 9.62197 8.67324 9.68681C8.71099 9.75166 8.73471 9.82367 8.74287 9.89822C8.76615 10.0456 8.72992 10.1962 8.64214 10.317C8.55435 10.4378 8.42215 10.5189 8.2745 10.5427C4.13453 11.1711 1.15203 14.082 1.15203 17.4333C1.1559 17.5084 1.14393 17.5834 1.11689 17.6536C1.08985 17.7238 1.04835 17.7875 0.995063 17.8407C0.941781 17.8938 0.877907 17.9352 0.807573 17.9622C0.73724 17.9892 0.662013 18.0011 0.58676 17.9972Z" fill="currentColor"/>
<path d="M19.4078 17.9972C19.3349 18.0009 19.262 17.9897 19.1935 17.9643C19.1251 17.939 19.0625 17.9 19.0096 17.8498C18.9567 17.7995 18.9147 17.7391 18.8859 17.6721C18.8572 17.6051 18.8424 17.533 18.8425 17.4602C18.8425 14.1089 15.86 11.1979 11.747 10.5427C11.5993 10.5189 11.4671 10.4378 11.3794 10.317C11.2916 10.1962 11.2553 10.0456 11.2786 9.89822C11.2868 9.82367 11.3105 9.75166 11.3482 9.68681C11.386 9.62197 11.4369 9.56572 11.4978 9.52171C11.5587 9.47769 11.6281 9.44688 11.7016 9.43125C11.7751 9.41562 11.8511 9.41552 11.9246 9.43097C16.5868 10.1721 20 13.5503 20 17.487C19.9967 17.56 19.9785 17.6316 19.9466 17.6973C19.9146 17.7631 19.8695 17.8216 19.8141 17.8694C19.7586 17.9172 19.694 17.9531 19.6242 17.9751C19.5543 17.9971 19.4807 18.0046 19.4078 17.9972Z" fill="currentColor"/>
<path d="M19.4078 17.9972H0.565275C0.415355 17.9972 0.271575 17.9378 0.165565 17.8321C0.0595557 17.7263 0 17.5829 0 17.4333C0 17.2837 0.0595557 17.1403 0.165565 17.0345C0.271575 16.9288 0.415355 16.8694 0.565275 16.8694H19.4078C19.5577 16.8694 19.7015 16.9288 19.8075 17.0345C19.9135 17.1403 19.9731 17.2837 19.9731 17.4333C19.9731 17.5829 19.9135 17.7263 19.8075 17.8321C19.7015 17.9378 19.5577 17.9972 19.4078 17.9972Z" fill="currentColor"/>
<path d="M9.99727 10.8918C8.9176 10.8918 7.86217 10.5724 6.96445 9.974C6.06673 9.3756 5.36704 8.52507 4.95387 7.52996C4.5407 6.53485 4.43259 5.43986 4.64322 4.38346C4.85386 3.32706 5.37377 2.35669 6.13722 1.59507C6.90067 0.833447 7.87336 0.314775 8.93229 0.104644C9.99122 -0.105487 11.0888 0.0023596 12.0863 0.414547C13.0838 0.826734 13.9364 1.52475 14.5362 2.42032C15.1361 3.3159 15.4562 4.36881 15.4562 5.4459C15.4548 6.88981 14.8792 8.27417 13.8558 9.29517C12.8323 10.3162 11.4446 10.8904 9.99727 10.8918ZM9.99727 1.12785C9.14546 1.12785 8.31277 1.37984 7.60451 1.85195C6.89625 2.32407 6.34423 2.9951 6.01826 3.78019C5.69228 4.56529 5.60699 5.42919 5.77317 6.26264C5.93935 7.09609 6.34954 7.86167 6.95187 8.46255C7.55419 9.06344 8.3216 9.47265 9.15705 9.63843C9.9925 9.80421 10.8585 9.71913 11.6454 9.39393C12.4324 9.06873 13.1051 8.51803 13.5783 7.81147C14.0515 7.1049 14.3041 6.2742 14.3041 5.42442C14.2971 4.28707 13.841 3.19831 13.0349 2.39407C12.2287 1.58983 11.1373 1.13489 9.99727 1.12785Z" fill="currentColor"/>
</svg>
