<svg width="34" height="20" viewBox="0 0 34 20" fill="none" xmlns="http://www.w3.org/2000/svg">
<path fill-rule="evenodd" clip-rule="evenodd" d="M12.1643 17.862H21.0492V2.13813H12.1643V17.862Z" fill="#FF5F00"/>
<path fill-rule="evenodd" clip-rule="evenodd" d="M12.7284 10C12.7284 6.81005 14.2451 3.96896 16.6068 2.13813C14.8794 0.798969 12.7002 8.3333e-05 10.3315 8.3333e-05C4.72389 8.3333e-05 0.178223 4.47729 0.178223 10C0.178223 15.5228 4.72389 20 10.3315 20C12.7002 20 14.8794 19.2011 16.6068 17.862C14.2451 16.0308 12.7284 13.19 12.7284 10Z" fill="#EB001B"/>
<path fill-rule="evenodd" clip-rule="evenodd" d="M32.7183 16.1966V15.8085H32.6154L32.4972 16.0755L32.3787 15.8085H32.2758V16.1966H32.3483V15.9038L32.4594 16.1563H32.5347L32.6458 15.9033V16.1966H32.7183ZM32.0665 16.1966V15.8747H32.1985V15.8091H31.8629V15.8747H31.9946V16.1966H32.0665ZM33.0354 9.99996C33.0354 15.5227 28.4894 19.9999 22.8821 19.9999C20.5134 19.9999 18.3338 19.2011 16.6068 17.862C18.9684 16.0311 20.4852 13.1899 20.4852 9.99996C20.4852 6.81025 18.9684 3.96923 16.6068 2.13813C18.3338 0.798969 20.5134 0 22.8821 0C28.4894 0 33.0354 4.4772 33.0354 9.99996Z" fill="#F79E1B"/>
</svg>
