<svg width="162" height="20" viewBox="0 0 162 20" fill="none" xmlns="http://www.w3.org/2000/svg">
<path d="M150.195 11.3174C150.579 10.3909 150.903 9.62825 151.211 8.8575C152.035 6.80489 152.842 4.74416 153.675 2.69479C154.32 1.11111 155.194 0.585383 156.796 0.762248C158.149 0.911529 159.005 1.81533 159.257 3.3487C160.048 8.17113 160.842 12.9936 161.637 17.816C161.788 18.7409 161.353 19.4256 160.468 19.6414C159.408 19.8994 158.508 19.4954 158.299 18.5299C157.979 17.055 157.76 15.5557 157.521 14.0629C157.076 11.2703 156.647 8.47456 156.173 5.42079C155.949 5.89297 155.82 6.14123 155.712 6.39923C154.586 9.08629 153.464 11.7766 152.342 14.4653C152.042 15.1841 151.643 15.8088 150.85 16.0603C149.67 16.4351 148.681 15.9305 148.102 14.587C146.928 11.861 145.783 9.12361 144.624 6.39112C144.521 6.14772 144.404 5.91082 144.122 5.6723C143.961 6.70915 143.8 7.74601 143.64 8.78286C143.163 11.9064 142.69 15.0299 142.208 18.1535C142.092 18.9015 141.771 19.4824 140.942 19.6268C139.368 19.9027 138.589 19.2082 138.834 17.6213C139.576 12.8167 140.35 8.01698 141.137 3.22052C141.371 1.80072 142.295 0.914774 143.558 0.765493C145.117 0.582137 146.011 1.09813 146.641 2.62826C147.701 5.19687 148.729 7.77846 149.773 10.3552C149.881 10.6229 150.003 10.8858 150.192 11.3206L150.195 11.3174Z" fill="#0D7CC6"/>
<path d="M118.675 6.8715C115.639 10.6895 112.601 14.5076 109.57 18.3304C108.942 19.1239 108.242 19.7308 107.142 19.6707C106.355 19.6285 105.892 19.2456 105.732 18.483C105.682 18.2461 105.644 18.0011 105.644 17.7609C105.639 12.76 105.621 7.75907 105.665 2.75816C105.67 2.21783 105.895 1.48927 106.279 1.19071C106.718 0.85158 107.472 0.739619 108.051 0.817505C108.735 0.908372 109.101 1.54119 109.174 2.23892C109.237 2.85552 109.243 3.48022 109.245 4.10169C109.251 6.96724 109.248 9.83279 109.248 12.6983C109.248 12.9807 109.248 13.2646 109.248 13.7968C109.629 13.3555 109.856 13.1089 110.064 12.8476C112.888 9.30705 115.697 5.75189 118.546 2.23243C118.974 1.70508 119.541 1.22641 120.141 0.918108C121.233 0.356681 122.186 0.906749 122.409 2.11398C122.457 2.37684 122.463 2.65107 122.463 2.9188C122.467 7.72987 122.467 12.5426 122.463 17.3536C122.463 17.6489 122.444 17.9491 122.394 18.2396C122.218 19.2667 121.717 19.6788 120.681 19.6691C119.628 19.6594 119.056 19.2618 118.987 18.2347C118.875 16.5667 118.875 14.8889 118.861 13.2143C118.843 11.1147 118.856 9.01498 118.856 6.91694L118.672 6.87312L118.675 6.8715Z" fill="#0D7CC6"/>
<path d="M38.3782 10.0583C38.3411 14.3323 35.5658 18.1584 31.5068 19.5019C30.378 19.8751 29.4636 19.5019 29.1202 18.53C28.796 17.6132 29.2734 16.8197 30.4119 16.3833C33.6548 15.1371 35.4707 12.1336 34.9143 8.94029C34.3515 5.71777 31.5601 3.35523 28.1977 3.25625C24.9241 3.1589 21.8553 5.6123 21.2716 8.78939C20.6749 12.033 22.5278 15.215 25.6853 16.3638C25.9127 16.4465 26.1465 16.5114 26.3642 16.6137C27.0818 16.9495 27.4495 17.6684 27.2947 18.3986C27.1254 19.1953 26.5061 19.7226 25.6853 19.7064C25.345 19.6999 24.9935 19.6123 24.6677 19.5019C20.3491 18.0432 17.4319 13.7059 17.8173 9.33621C18.2334 4.6225 21.7731 0.820701 26.3916 0.126219C32.1616 -0.743505 37.359 2.96743 38.254 8.60603C38.3298 9.08471 38.3379 9.57312 38.3782 10.0567V10.0583Z" fill="#0D7CC6"/>
<path d="M12.3896 3.69103H3.65726C3.65726 3.9831 3.65726 4.26868 3.65726 4.55426C3.65081 8.71628 3.64598 12.8799 3.63791 17.0419C3.63791 17.4476 3.65404 17.8565 3.60405 18.2573C3.48633 19.213 2.93481 19.7225 2.01723 19.7712C0.902912 19.8329 0.361072 19.4678 0.136918 18.4439C0.0449989 18.0253 0.0111339 17.5871 0.00952131 17.1588C-0.00176701 12.51 -0.00176701 7.86116 0.00307085 3.21236C0.00307085 2.86349 0.0288728 2.50814 0.099828 2.16739C0.312694 1.15163 0.848083 0.627521 1.87693 0.62103C5.98588 0.591823 10.0964 0.5902 14.2054 0.624275C15.2826 0.63401 15.9051 1.27819 15.9486 2.36859C16.0131 3.98797 16.0067 5.61059 16.0051 7.23159C16.0002 10.7997 16.0002 14.3662 15.9567 17.9344C15.9406 19.312 15.3004 19.8572 13.9796 19.7696C12.9782 19.703 12.4267 19.0816 12.4154 17.8906C12.3896 15.1873 12.3928 12.4856 12.388 9.78234C12.3848 7.7849 12.388 5.78745 12.388 3.69265L12.3896 3.69103Z" fill="#0D7CC6"/>
<path d="M56.2637 8.18747H63.9591C63.9591 7.0062 63.9543 5.85414 63.9607 4.70208C63.9655 3.86481 63.9607 3.02429 64.0091 2.18864C64.0704 1.15179 64.6025 0.635795 65.5733 0.596852C66.6506 0.554664 67.3117 1.03983 67.4794 2.03774C67.5407 2.4077 67.5407 2.79226 67.5407 3.17033C67.5423 7.82076 67.5407 12.4712 67.5359 17.1232C67.5359 17.4478 67.5359 17.7739 67.5052 18.0952C67.3972 19.2262 66.7505 19.7876 65.6249 19.747C64.5574 19.7081 64.0204 19.1888 64.0059 18.0449C63.9768 15.8333 63.9978 13.62 63.9978 11.3597H56.2524C56.2524 11.6437 56.2524 11.9292 56.2524 12.2148C56.2459 14.0808 56.2589 15.9468 56.225 17.8112C56.1992 19.2018 55.4106 19.8931 54.1173 19.7324C53.2916 19.6302 52.8078 19.1629 52.6934 18.3272C52.653 18.0335 52.6466 17.7333 52.6466 17.438C52.6369 12.76 52.6288 8.082 52.6224 3.40561C52.6224 3.05512 52.6321 2.70301 52.6611 2.35253C52.7562 1.18262 53.3061 0.619569 54.3527 0.600098C55.4945 0.579004 56.0976 1.07228 56.1685 2.28924C56.2621 3.87941 56.2411 5.47769 56.2669 7.07273C56.2717 7.41997 56.2669 7.76559 56.2669 8.18909L56.2637 8.18747Z" fill="#0D7CC6"/>
<path d="M92.0691 8.26538H99.7581C99.7581 7.08086 99.75 5.9288 99.7613 4.77837C99.7693 3.94109 99.7726 3.1022 99.8338 2.26817C99.9 1.37249 100.41 0.880832 101.261 0.794833C102.264 0.692608 102.977 1.09502 103.211 1.95825C103.315 2.34281 103.341 2.7582 103.343 3.15899C103.351 7.83538 103.348 12.5102 103.346 17.1865C103.346 17.4835 103.343 17.782 103.307 18.0774C103.17 19.1807 102.582 19.6659 101.443 19.6351C100.364 19.6042 99.829 19.0947 99.8129 17.9573C99.7855 15.7992 99.8048 13.6411 99.8048 11.4149H92.0981C92.0868 11.6583 92.0659 11.9406 92.0643 12.2229C92.0514 14.0873 92.0772 15.9533 92.0223 17.8161C91.9836 19.1694 91.2386 19.76 89.9066 19.6172C89.0954 19.5312 88.5117 19.0444 88.5068 18.212C88.4746 12.9158 88.4681 7.61957 88.5004 2.32334C88.5068 1.33354 89.2148 0.798078 90.2226 0.789965C91.2563 0.781852 91.8772 1.2589 91.9482 2.30225C92.0465 3.75611 92.0368 5.21809 92.0675 6.67521C92.0788 7.18309 92.0691 7.69097 92.0691 8.267V8.26538Z" fill="#0D7CC6"/>
<path d="M84.9318 19.6447C84.0675 19.6658 83.5111 19.2115 83.1934 18.4505C82.829 17.5791 82.4871 16.698 82.1646 15.8121C82.0178 15.4081 81.8211 15.2198 81.3534 15.2263C79.0441 15.2572 76.7349 15.2588 74.4256 15.2442C73.9757 15.2409 73.758 15.3951 73.6112 15.8251C73.3064 16.7175 73.0194 17.6327 72.5727 18.4553C72.3163 18.9259 71.818 19.4419 71.331 19.5766C69.8732 19.9806 68.8911 18.861 69.3991 17.4023C69.8877 16.0036 70.5005 14.6487 71.0601 13.2743C72.4437 9.87655 73.8273 6.47878 75.2109 3.08264C75.2932 2.88305 75.369 2.68023 75.4609 2.48551C75.9914 1.36266 76.8445 0.686026 78.112 0.721724C79.3554 0.755799 80.1391 1.49571 80.589 2.60721C81.6824 5.30725 82.7612 8.01378 83.8385 10.7203C84.7077 12.8995 85.5849 15.077 86.4235 17.2692C86.9669 18.6906 86.3348 19.6609 84.9318 19.6463V19.6447ZM74.9336 12.3559H80.8987C79.9198 9.73862 78.97 7.20247 77.9347 4.43103C76.8848 7.20409 75.9189 9.7516 74.9336 12.3559Z" fill="#0D7CC6"/>
<path d="M47.9667 9.56824C50.4711 11.3077 51.2451 13.0796 50.6162 15.6174C50.1485 17.5045 48.9149 18.7133 47.1458 19.3689C44.9672 20.1769 42.7144 20.0974 40.4664 19.7486C39.7246 19.6334 39.3037 19.1092 39.273 18.3271C39.2456 17.5807 39.6762 16.9528 40.4712 16.8343C41.3678 16.6997 42.287 16.7256 43.1965 16.6688C43.6239 16.6429 44.0545 16.6137 44.4753 16.5374C45.8041 16.3005 46.5895 15.4648 46.6121 14.3014C46.6411 12.7534 45.9235 11.7409 44.4963 11.5008C43.4417 11.3239 42.366 11.2687 41.2969 11.1925C40.2874 11.1211 39.8133 10.7365 39.7762 9.89601C39.7375 9.02953 40.1471 8.56384 41.1227 8.40806C42.2354 8.2312 43.3546 8.09003 44.4673 7.91154C45.6945 7.71521 46.2895 7.03533 46.2492 5.91248C46.2089 4.7734 45.6042 4.14382 44.3528 4.02699C43.2578 3.92476 42.158 3.87771 41.0614 3.81605C40.0229 3.75601 39.5004 3.34387 39.4214 2.50822C39.3472 1.71151 39.8165 1.08518 40.7728 0.866126C42.5644 0.457226 44.356 0.715222 46.1283 1.02027C49.0745 1.52815 50.4549 3.425 50.134 6.43009C50.0115 7.57242 49.4503 8.45837 48.5488 9.13987C48.3618 9.28103 48.1715 9.41896 47.9683 9.56986L47.9667 9.56824Z" fill="#0D7CC6"/>
<path d="M131.483 8.98566C132.742 6.88599 133.928 4.89666 135.129 2.91706C135.435 2.4108 135.755 1.90292 136.13 1.45021C136.774 0.677846 137.63 0.526942 138.346 0.989388C139.056 1.44859 139.299 2.31669 138.914 3.21238C138.691 3.72999 138.406 4.22489 138.117 4.71168C136.714 7.07746 135.268 9.4189 133.91 11.8123C133.566 12.4175 133.391 13.1704 133.328 13.873C133.226 14.9991 133.31 16.1414 133.263 17.2756C133.241 17.8062 133.158 18.3547 132.991 18.8561C132.763 19.5392 132.212 19.8913 131.494 19.8637C130.778 19.8361 130.148 19.5522 129.933 18.8074C129.78 18.2719 129.723 17.6943 129.715 17.1345C129.643 11.8496 129.993 13.4673 127.511 9.17388C126.498 7.42308 125.437 5.69985 124.421 3.95067C124.194 3.55962 124.013 3.12313 123.908 2.68503C123.731 1.94349 124.031 1.33987 124.673 0.966672C125.31 0.596714 125.987 0.598338 126.526 1.15003C126.953 1.58976 127.347 2.08304 127.666 2.60552C128.93 4.67598 130.159 6.76754 131.48 8.98404L131.483 8.98566Z" fill="#0D7CC6"/>
<path d="M27.6339 13.4949C26.4905 13.4398 25.6068 12.8897 25.1133 11.8188C24.5908 10.6878 24.7263 9.56983 25.5504 8.63844C26.8469 7.1716 28.5385 6.27104 30.3269 5.57169C31.0913 5.27313 31.7541 5.8232 31.6718 6.65885C31.4896 8.52486 31.1042 10.3454 30.1786 12.0021C29.6335 12.979 28.7885 13.4722 27.6355 13.4949H27.6339Z" fill="#FE8717"/>
</svg>
