<svg width="72" height="20" viewBox="0 0 72 20" fill="none" xmlns="http://www.w3.org/2000/svg">
<path fill-rule="evenodd" clip-rule="evenodd" d="M19.7053 3.80523e-07V0.008734C19.6966 0.008734 16.9455 3.33161e-07 16.2119 2.62882C15.5394 5.0393 13.6442 11.6943 13.5918 11.8777H13.0678C13.0678 11.8777 11.1289 5.07424 10.4477 2.62009C9.71405 -0.00873332 6.95423 3.80523e-07 6.95423 3.80523e-07H0.666016V20H6.95423V8.12227H7.47824L11.1464 20H15.5132L19.1813 8.131H19.7053V20H25.9935V3.80523e-07H19.7053Z" fill="#4DB45E"/>
<path fill-rule="evenodd" clip-rule="evenodd" d="M42.6747 0C42.6747 0 40.832 0.165939 39.9673 2.09607L35.5132 11.8777H34.9892V0H28.7009V20H34.6398C34.6398 20 36.5699 19.8253 37.4346 17.9039L41.8014 8.12227H42.3254V20H48.6136V0H42.6747Z" fill="#4DB45E"/>
<path fill-rule="evenodd" clip-rule="evenodd" d="M51.4084 9.08297V20H57.6966V13.6245H64.5088C67.4782 13.6245 69.9935 11.7293 70.928 9.08297H51.4084Z" fill="#4DB45E"/>
<path fill-rule="evenodd" clip-rule="evenodd" d="M64.5088 0H50.5263C51.225 3.80786 54.0809 6.86463 57.7752 7.86026C58.6136 8.08734 59.4957 8.20961 60.404 8.20961H71.1813C71.2774 7.75546 71.321 7.29258 71.321 6.81223C71.321 3.04803 68.273 0 64.5088 0Z" fill="url(#paint0_linear_683_1983)"/>
<defs>
<linearGradient id="paint0_linear_683_1983" x1="50.528" y1="4.1048" x2="71.321" y2="4.1048" gradientUnits="userSpaceOnUse">
<stop offset="0.3" stop-color="#00B4E6"/>
<stop offset="1" stop-color="#088CCB"/>
</linearGradient>
</defs>
</svg>
