<svg width="268" height="67" viewBox="0 0 268 67" fill="none" xmlns="http://www.w3.org/2000/svg">
<path d="M246.174 35.8529C246.797 34.3584 247.323 33.1284 247.823 31.8852C249.16 28.5745 250.469 25.2506 251.822 21.9451C252.869 19.3907 254.288 18.5428 256.886 18.828C259.082 19.0688 260.472 20.5266 260.88 22.9998C262.165 30.7781 263.453 38.5564 264.743 46.3347C264.989 47.8265 264.283 48.9309 262.846 49.279C261.126 49.6952 259.666 49.0435 259.326 47.4863C258.807 45.1072 258.451 42.6889 258.064 40.2811C257.342 35.777 256.646 31.2675 255.876 26.342C255.512 27.1036 255.303 27.504 255.128 27.9202C253.301 32.2542 251.479 36.5935 249.658 40.9302C249.171 42.0896 248.524 43.0972 247.237 43.5029C245.321 44.1075 243.717 43.2935 242.777 41.1265C240.872 36.7296 239.014 32.3144 237.132 27.9071C236.964 27.5145 236.776 27.1324 236.318 26.7477C236.056 28.42 235.794 30.0924 235.535 31.7648C234.761 36.8029 233.994 41.841 233.211 46.8791C233.023 48.0856 232.502 49.0225 231.157 49.2555C228.602 49.7004 227.338 48.5802 227.736 46.0206C228.94 38.2711 230.196 30.5295 231.473 22.7931C231.853 20.503 233.353 19.0741 235.402 18.8333C237.933 18.5375 239.383 19.3698 240.406 21.8378C242.125 25.9808 243.795 30.1448 245.489 34.3009C245.664 34.7327 245.863 35.1567 246.169 35.8581L246.174 35.8529Z" fill="white"/>
<path d="M195.017 28.6818C190.089 34.84 185.158 40.9982 180.241 47.1643C179.22 48.4441 178.084 49.423 176.299 49.3261C175.022 49.2581 174.271 48.6404 174.012 47.4103C173.931 47.0282 173.868 46.633 173.868 46.2457C173.86 38.1795 173.831 30.1134 173.902 22.0472C173.91 21.1757 174.276 20.0005 174.899 19.519C175.611 18.972 176.836 18.7914 177.775 18.917C178.885 19.0636 179.479 20.0843 179.597 21.2097C179.699 22.2042 179.709 23.2118 179.712 24.2142C179.723 28.8362 179.717 33.4581 179.717 38.0801C179.717 38.5355 179.717 38.9935 179.717 39.8519C180.335 39.14 180.704 38.7422 181.042 38.3209C185.624 32.6102 190.183 26.8759 194.808 21.1992C195.502 20.3486 196.423 19.5766 197.396 19.0793C199.168 18.1737 200.715 19.061 201.076 21.0082C201.155 21.4321 201.165 21.8745 201.165 22.3063C201.17 30.0662 201.17 37.8288 201.165 45.5888C201.165 46.0651 201.134 46.5493 201.053 47.0178C200.767 48.6744 199.953 49.3392 198.273 49.3235C196.564 49.3078 195.635 48.6666 195.523 47.0099C195.342 44.3195 195.342 41.6133 195.318 38.9123C195.29 35.5257 195.311 32.1391 195.311 28.755L195.012 28.6844L195.017 28.6818Z" fill="white"/>
<path d="M64.6999 33.8219C64.6397 40.7156 60.1355 46.8869 53.5481 49.0539C51.716 49.6559 50.2321 49.0539 49.6746 47.4863C49.1486 46.0075 49.9233 44.7277 51.771 44.0237C57.0342 42.0137 59.9811 37.1693 59.0782 32.0187C58.1648 26.8209 53.6344 23.0103 48.1776 22.8507C42.8647 22.6936 37.8842 26.6508 36.9368 31.7753C35.9684 37.007 38.9756 42.1393 44.1 43.9923C44.469 44.1258 44.8485 44.2305 45.2019 44.3954C46.3665 44.9371 46.9632 46.0965 46.712 47.2743C46.4372 48.5593 45.4322 49.4099 44.1 49.3837C43.5478 49.3732 42.9773 49.2319 42.4486 49.0539C35.4398 46.7011 30.7053 39.7054 31.3308 32.6573C32.006 25.0543 37.7507 18.9223 45.2464 17.8021C54.6107 16.3993 63.0458 22.3848 64.4984 31.4795C64.6214 32.2516 64.6345 33.0394 64.6999 33.8193V33.8219Z" fill="white"/>
<path d="M22.5217 23.5521H8.34959C8.34959 24.0232 8.34959 24.4838 8.34959 24.9444C8.33912 31.6575 8.33127 38.3732 8.31819 45.0863C8.31819 45.7406 8.34436 46.4001 8.26323 47.0466C8.07217 48.5881 7.17709 49.4099 5.68791 49.4884C3.87944 49.5879 3.00006 48.999 2.63627 47.3475C2.48709 46.6723 2.43213 45.9657 2.42952 45.2747C2.41119 37.7765 2.41119 30.2782 2.41905 22.78C2.41905 22.2173 2.46092 21.6441 2.57608 21.0945C2.92155 19.4562 3.79045 18.6108 5.46022 18.6004C12.1288 18.5532 18.8 18.5506 25.4686 18.6056C27.2169 18.6213 28.2271 19.6603 28.2978 21.4191C28.4025 24.031 28.392 26.6482 28.3894 29.2628C28.3815 35.018 28.3815 40.7705 28.3109 46.5257C28.2847 48.7477 27.2457 49.6271 25.1022 49.4858C23.4769 49.3785 22.5819 48.3761 22.5635 46.4551C22.5217 42.0948 22.5269 37.7372 22.519 33.377C22.5138 30.1552 22.519 26.9335 22.519 23.5547L22.5217 23.5521Z" fill="white"/>
<path d="M93.728 30.8043H106.217C106.217 28.899 106.209 27.0408 106.22 25.1826C106.228 23.8321 106.22 22.4764 106.298 21.1286C106.398 19.4562 107.261 18.6239 108.837 18.5611C110.585 18.493 111.658 19.2756 111.931 20.8852C112.03 21.4819 112.03 22.1021 112.03 22.712C112.033 30.2128 112.03 37.7137 112.022 45.2171C112.022 45.7406 112.022 46.2666 111.972 46.7848C111.797 48.609 110.748 49.5146 108.921 49.4491C107.188 49.3863 106.317 48.5488 106.293 46.7037C106.246 43.1365 106.28 39.5666 106.28 35.9209H93.7096C93.7096 36.3789 93.7096 36.8395 93.7096 37.3002C93.6992 40.3099 93.7201 43.3197 93.6652 46.3268C93.6233 48.5698 92.3435 49.6847 90.2445 49.4256C88.9045 49.2607 88.1193 48.507 87.9335 47.1591C87.8681 46.6854 87.8576 46.2012 87.8576 45.7249C87.8419 38.1795 87.8288 30.6342 87.8184 23.0914C87.8184 22.5261 87.8341 21.9582 87.8812 21.3929C88.0356 19.5059 88.928 18.5977 90.6266 18.5663C92.4796 18.5323 93.4584 19.3279 93.5736 21.2908C93.7253 23.8557 93.6913 26.4336 93.7332 29.0063C93.7411 29.5664 93.7332 30.1238 93.7332 30.8069L93.728 30.8043Z" fill="white"/>
<path d="M151.836 30.9299H164.315C164.315 29.0194 164.302 27.1612 164.32 25.3056C164.333 23.9551 164.338 22.602 164.438 21.2568C164.545 19.8121 165.372 19.0191 166.754 18.8804C168.382 18.7155 169.539 19.3646 169.918 20.7569C170.088 21.3772 170.13 22.0472 170.133 22.6936C170.146 30.2364 170.141 37.7765 170.138 45.3192C170.138 45.7982 170.133 46.2797 170.075 46.7561C169.853 48.5357 168.897 49.3183 167.05 49.2686C165.299 49.2188 164.43 48.397 164.404 46.5624C164.359 43.0815 164.391 39.6007 164.391 36.0099H151.883C151.865 36.4025 151.831 36.8579 151.828 37.3132C151.807 40.3204 151.849 43.3302 151.76 46.3347C151.697 48.5174 150.488 49.4701 148.326 49.2398C147.01 49.1011 146.062 48.3159 146.055 46.9733C146.002 38.4308 145.992 29.8883 146.044 21.3458C146.055 19.7493 147.204 18.8856 148.839 18.8725C150.517 18.8595 151.525 19.6289 151.64 21.3118C151.799 23.6568 151.784 26.0148 151.833 28.3651C151.852 29.1843 151.836 30.0034 151.836 30.9325V30.9299Z" fill="white"/>
<path d="M140.253 49.2843C138.85 49.3183 137.947 48.5855 137.431 47.358C136.84 45.9526 136.285 44.5314 135.762 43.1025C135.523 42.4508 135.204 42.1472 134.445 42.1577C130.697 42.2074 126.95 42.21 123.202 42.1864C122.472 42.1812 122.118 42.4298 121.88 43.1234C121.385 44.5629 120.92 46.0389 120.195 47.3659C119.778 48.1248 118.97 48.9571 118.179 49.1743C115.813 49.826 114.22 48.0202 115.044 45.6673C115.837 43.4113 116.832 41.2259 117.74 39.0092C119.985 33.5288 122.231 28.0484 124.476 22.5706C124.61 22.2487 124.733 21.9216 124.882 21.6075C125.743 19.7964 127.128 18.705 129.185 18.7626C131.202 18.8176 132.474 20.011 133.205 21.8038C134.979 26.1588 136.73 30.5243 138.478 34.8897C139.889 38.4046 141.313 41.9169 142.674 45.4527C143.556 47.7454 142.53 49.3104 140.253 49.2869V49.2843ZM124.026 37.5279H133.707C132.118 33.3063 130.577 29.2157 128.897 24.7455C127.193 29.2183 125.625 33.3273 124.026 37.5279Z" fill="white"/>
<path d="M80.2617 33.0315C84.3261 35.8371 85.5824 38.6951 84.5617 42.7884C83.8027 45.8322 81.8006 47.782 78.9295 48.8393C75.3937 50.1427 71.7375 50.0145 68.0891 49.4518C66.8852 49.2659 66.2021 48.4206 66.1524 47.1591C66.1079 45.9552 66.8067 44.9423 68.097 44.7513C69.5521 44.5341 71.0439 44.5759 72.52 44.4843C73.2136 44.4425 73.9124 44.3954 74.5954 44.2723C76.752 43.8902 78.0266 42.5424 78.0632 40.6659C78.1103 38.1691 76.9457 36.5359 74.6295 36.1486C72.9178 35.8633 71.1722 35.7743 69.437 35.6513C67.7986 35.5362 67.0292 34.9159 66.969 33.5602C66.9061 32.1626 67.5709 31.4115 69.1543 31.1602C70.9602 30.875 72.7765 30.6473 74.5824 30.3594C76.574 30.0427 77.5398 28.9461 77.4743 27.135C77.4089 25.2977 76.4275 24.2823 74.3965 24.0938C72.6195 23.9289 70.8345 23.853 69.0549 23.7536C67.3694 23.6568 66.5214 22.992 66.3932 21.6441C66.2728 20.3591 67.0344 19.3489 68.5864 18.9955C71.4941 18.336 74.4018 18.7521 77.2781 19.2442C82.0597 20.0634 84.3 23.1229 83.7791 27.9699C83.5802 29.8124 82.6695 31.2414 81.2065 32.3406C80.9029 32.5683 80.594 32.7907 80.2643 33.0341L80.2617 33.0315Z" fill="white"/>
<path d="M215.804 32.092C217.848 28.7053 219.772 25.4966 221.722 22.3037C222.219 21.4871 222.737 20.6679 223.347 19.9377C224.391 18.692 225.781 18.4486 226.943 19.1945C228.095 19.9351 228.49 21.3353 227.864 22.78C227.503 23.6149 227.04 24.4131 226.571 25.1983C224.294 29.0141 221.947 32.7907 219.743 36.6511C219.186 37.6273 218.9 38.8417 218.798 39.9749C218.633 41.7913 218.77 43.6338 218.694 45.4632C218.657 46.319 218.524 47.2036 218.251 48.0123C217.882 49.1141 216.987 49.6821 215.823 49.6376C214.661 49.5931 213.637 49.1351 213.289 47.9338C213.041 47.0701 212.949 46.1384 212.936 45.2355C212.818 36.7113 213.386 39.3206 209.358 32.3955C207.715 29.5716 205.992 26.7921 204.344 23.9708C203.975 23.3401 203.682 22.6361 203.511 21.9294C203.224 20.7334 203.71 19.7598 204.752 19.1578C205.786 18.5611 206.885 18.5637 207.759 19.4536C208.453 20.1628 209.091 20.9584 209.609 21.8012C211.661 25.1407 213.656 28.5143 215.799 32.0893L215.804 32.092Z" fill="white"/>
<path d="M47.2626 39.3651C45.407 39.2761 43.9728 38.3889 43.1719 36.6616C42.3239 34.8374 42.5438 33.0341 43.8812 31.5319C45.9854 29.1659 48.7308 27.7134 51.6333 26.5854C52.8738 26.1038 53.9495 26.9911 53.816 28.3389C53.5203 31.3487 52.8947 34.2852 51.3925 36.9573C50.5079 38.5329 49.1365 39.3285 47.2652 39.3651H47.2626Z" fill="#FE8717"/>
</svg>
