<svg width="85" height="20" viewBox="0 0 85 20" fill="none" xmlns="http://www.w3.org/2000/svg">
<path d="M44.3236 5.50383H41.5965L39.6667 8.89526H38.6733L38.6417 1.55559H36.0601V14.8113H38.6417L38.6733 11.1731H39.6603L42.2229 14.8113H45.0829L41.742 9.98985L44.3236 5.50383Z" fill="black"/>
<path d="M63.8623 9.8697C63.3378 9.5303 62.7694 9.26415 62.1729 9.07881L61.6034 8.86363L61.4515 8.80674C61.0972 8.67385 60.7239 8.53467 60.7112 8.174C60.7079 8.06711 60.7317 7.96118 60.7803 7.86607C60.8291 7.77089 60.9011 7.68963 60.9897 7.62985C61.1766 7.50096 61.3956 7.42652 61.6223 7.41474C62.1168 7.38058 62.6068 7.52667 63.0017 7.826L63.0713 7.8703L64.4506 6.28212L64.3811 6.22517C64.2094 6.07208 64.0229 5.93644 63.8243 5.82022C63.4686 5.6167 63.0815 5.47344 62.679 5.39629C62.0991 5.27293 61.4999 5.27293 60.92 5.39629C60.3594 5.47049 59.8276 5.68846 59.3762 6.02902C59.0875 6.2549 58.8461 6.53546 58.666 6.85464C58.4857 7.17383 58.3701 7.52541 58.3258 7.88926C58.2467 8.54585 58.4135 9.20859 58.794 9.74948C59.2996 10.3093 59.9604 10.7058 60.6923 10.8884L60.8061 10.9264L61.0656 11.015C62.002 11.3313 62.2677 11.4579 62.4196 11.6477C62.4903 11.7432 62.53 11.858 62.5335 11.9767C62.5335 12.4259 61.983 12.6094 61.6097 12.7233C61.3487 12.7724 61.0803 12.7673 60.8214 12.7085C60.5623 12.6498 60.3181 12.5385 60.1038 12.3816C59.7569 12.1497 59.46 11.8507 59.2306 11.5021C59.0851 11.654 57.6551 13.065 57.6804 13.0903L57.7247 13.1536C58.4139 14.0162 59.3791 14.615 60.4581 14.8493C60.7047 14.897 60.9541 14.9287 61.2048 14.9442H61.4642C62.3165 14.9621 63.1515 14.7022 63.8432 14.2039C64.3111 13.873 64.6701 13.4105 64.8746 12.8752C64.999 12.5158 65.0431 12.1335 65.0037 11.7553C64.9644 11.377 64.8425 11.012 64.6468 10.6859C64.4468 10.3607 64.1792 10.0824 63.8623 9.8697Z" fill="black"/>
<path d="M72.2017 9.86963C71.6795 9.53022 71.1132 9.26415 70.5187 9.07874L69.9429 8.86356L69.7974 8.80667C69.4367 8.67378 69.0697 8.53459 69.0507 8.17393C69.0524 8.06726 69.0791 7.96252 69.1286 7.86807C69.178 7.77355 69.2489 7.69193 69.3354 7.62978C69.5224 7.50089 69.7414 7.42644 69.9682 7.41467C70.4624 7.38165 70.952 7.52763 71.3475 7.82593L71.4108 7.87022L72.7902 6.28204L72.7269 6.2251C72.5541 6.0705 72.3653 5.93476 72.1637 5.82015C71.8102 5.61684 71.4253 5.47359 71.0249 5.39621C70.4429 5.27272 69.8415 5.27272 69.2595 5.39621C68.6995 5.47261 68.1682 5.69037 67.7157 6.02895C67.4251 6.25272 67.1817 6.5317 66.9992 6.84984C66.8168 7.16799 66.699 7.51904 66.6527 7.88281C66.5698 8.5397 66.737 9.2037 67.1209 9.74311C67.6264 10.3029 68.2873 10.6993 69.0191 10.882L69.1266 10.9199L69.3861 11.0085C70.3288 11.3249 70.5946 11.4515 70.7465 11.6413C70.8194 11.7352 70.8574 11.8515 70.854 11.9703C70.854 12.4196 70.3099 12.603 69.9366 12.7169C69.6745 12.7661 69.4051 12.7611 69.1451 12.7024C68.8851 12.6436 68.6398 12.5323 68.4243 12.3753C68.0803 12.1399 67.784 11.8415 67.5511 11.4958C67.412 11.6476 65.982 13.0586 66.001 13.0839L66.0516 13.1472C66.7407 14.0098 67.706 14.6087 68.785 14.8429C69.0315 14.891 69.2809 14.9227 69.5316 14.9378H69.791C70.6434 14.9556 71.4784 14.6959 72.1701 14.1975C72.638 13.8666 72.9969 13.4041 73.2014 12.8687C73.3259 12.5094 73.37 12.1271 73.3306 11.7489C73.2912 11.3706 73.1694 11.0056 72.9737 10.6796C72.7761 10.3583 72.5131 10.0824 72.2017 9.86963Z" fill="black"/>
<path d="M52.802 5.50384V6.41498H52.688C51.9814 5.70744 51.0242 5.30727 50.0243 5.30137C49.4113 5.28926 48.8026 5.40638 48.2379 5.64513C47.6732 5.88388 47.1651 6.23889 46.7467 6.68705C45.9029 7.632 45.4505 8.86267 45.4812 10.1291C45.4486 11.4168 45.9001 12.6699 46.7467 13.6407C47.1551 14.0892 47.6552 14.4445 48.2131 14.6825C48.7711 14.9205 49.3736 15.0356 49.98 15.0201C50.9811 15.0013 51.944 14.6319 52.7007 13.9761H52.802V14.7923H55.4847V5.50384H52.802ZM52.9349 10.1797C52.9617 10.9282 52.7117 11.6604 52.2325 12.2361C52.0028 12.4933 51.7194 12.6969 51.4023 12.8324C51.0852 12.9681 50.7423 13.0323 50.3976 13.0207C50.0633 13.0263 49.7321 12.9564 49.4286 12.8161C49.1251 12.6759 48.8572 12.469 48.6449 12.2108C48.1714 11.6232 47.9284 10.883 47.9616 10.1291C47.94 9.39785 48.1877 8.68415 48.6576 8.12333C48.8739 7.86904 49.1437 7.6657 49.4478 7.52785C49.752 7.39005 50.0827 7.32116 50.4166 7.32611C50.7589 7.31545 51.0994 7.38086 51.4134 7.51763C51.7274 7.65437 52.0071 7.85911 52.2325 8.11704C52.7116 8.69526 52.9615 9.42933 52.9349 10.1797Z" fill="black"/>
<path d="M81.9831 5.5038V6.41493H81.8697C81.1646 5.70893 80.2097 5.30888 79.212 5.30133C78.5979 5.2899 77.989 5.40732 77.4231 5.64599C76.8579 5.88467 76.3483 6.2393 75.9283 6.687C75.0846 7.63193 74.632 8.86259 74.6631 10.129C74.6297 11.4167 75.0816 12.6699 75.9283 13.6407C76.3364 14.0892 76.8364 14.4444 77.3949 14.6824C77.9527 14.9204 78.5549 15.0356 79.1616 15.0201C80.1623 15.0013 81.1253 14.6318 81.8823 13.9761H81.9831V14.7923H84.666V5.5038H81.9831ZM82.1164 10.1797C82.146 10.9287 81.8957 11.6619 81.4142 12.2361C81.1846 12.4933 80.9008 12.6969 80.5838 12.8324C80.2668 12.968 79.9238 13.0323 79.5794 13.0207C79.2446 13.0263 78.9134 12.9564 78.6105 12.8161C78.3068 12.6759 78.0386 12.469 77.826 12.2107C77.3527 11.6231 77.1097 10.883 77.1431 10.129C77.1216 9.39778 77.369 8.68407 77.8394 8.12333C78.0557 7.86896 78.3253 7.66563 78.629 7.52785C78.9334 7.39001 79.2645 7.3211 79.5979 7.32606C79.9401 7.3154 80.2808 7.38081 80.5949 7.51756C80.909 7.65437 81.1883 7.85904 81.4142 8.11696C81.8957 8.6937 82.146 9.42881 82.1164 10.1797Z" fill="black"/>
<path d="M18.4375 0C12.8679 0 8.43752 4.49367 8.43752 10C8.43752 15.5696 12.9311 20 18.4375 20C23.9438 20 28.4375 15.5063 28.4375 10C28.4375 4.49367 23.9438 0 18.4375 0ZM18.4375 13.6709C16.4122 13.6709 14.7033 11.962 14.7033 9.93674C14.7033 7.91141 16.4122 6.20253 18.4375 6.20253C20.4628 6.20253 22.1717 7.91141 22.1717 9.93674C22.1084 12.0253 20.4628 13.6709 18.4375 13.6709Z" fill="url(#paint0_linear_683_1982)"/>
<path d="M8.37396 2.84813V17.4051H4.82967L0.272705 2.84813H8.37396Z" fill="url(#paint1_linear_683_1982)"/>
<defs>
<linearGradient id="paint0_linear_683_1982" x1="42.4694" y1="0" x2="42.4694" y2="20" gradientUnits="userSpaceOnUse">
<stop stop-color="#0160D1"/>
<stop offset="1" stop-color="#00479C"/>
</linearGradient>
<linearGradient id="paint1_linear_683_1982" x1="4.32334" y1="2.84813" x2="4.32334" y2="17.4051" gradientUnits="userSpaceOnUse">
<stop stop-color="#0160D1"/>
<stop offset="1" stop-color="#00479C"/>
</linearGradient>
</defs>
</svg>
