<svg width="128" height="20" viewBox="0 0 128 20" fill="none" xmlns="http://www.w3.org/2000/svg">
<path d="M17.5202 3.85144C17.9848 4.4602 18.3781 5.12157 18.6922 5.82227L9.78297 12.4781L6.05957 10.1127V7.26692L9.78297 9.63237L17.5202 3.85144Z" fill="#21A038"/>
<path d="M2.25956 9.91179C2.25956 9.7841 2.26263 9.65725 2.26878 9.53113L0.0122892 9.41907C0.00460887 9.58252 2.72686e-06 9.74755 2.72686e-06 9.9141C-0.000957345 11.2154 0.251609 12.5041 0.743218 13.7062C1.23482 14.9084 1.95579 16.0003 2.86477 16.9194L4.46535 15.2981C3.76565 14.5919 3.21058 13.7524 2.83204 12.828C2.45349 11.9037 2.25894 10.9126 2.25956 9.91179Z" fill="url(#paint0_linear_683_1962)"/>
<path d="M9.78092 2.28939C9.90686 2.28939 10.032 2.29406 10.1564 2.30029L10.2693 0.012659C10.1076 0.00487529 9.94474 0.000983914 9.78092 0.000983914C8.49626 -0.000603771 7.22401 0.254992 6.03714 0.753094C4.85026 1.2512 3.77216 1.982 2.86475 2.90353L4.46533 4.52565C5.16223 3.81631 5.99062 3.25356 6.90286 2.86978C7.8151 2.48601 8.79316 2.28876 9.78092 2.28939Z" fill="url(#paint1_linear_683_1962)"/>
<path d="M9.78096 17.5344C9.65502 17.5344 9.52981 17.5344 9.40466 17.5243L9.29175 19.8111C9.45405 19.8194 9.61714 19.8236 9.78096 19.8236C11.0651 19.825 12.3367 19.5692 13.523 19.071C14.7092 18.5727 15.7866 17.8418 16.6933 16.9203L15.0958 15.299C14.3988 16.0079 13.5705 16.5703 12.6584 16.954C11.7464 17.3376 10.7685 17.5349 9.78096 17.5344Z" fill="url(#paint2_linear_683_1962)"/>
<path d="M14.0205 3.61944L15.9221 2.19891C14.184 0.772515 12.0144 -0.00395952 9.77783 1.5184e-05V2.2892C11.2923 2.2873 12.7717 2.75114 14.0205 3.61944Z" fill="url(#paint3_linear_683_1962)"/>
<path d="M19.5612 9.9118C19.5624 9.31629 19.511 8.7218 19.4076 8.13556L17.3024 9.70786C17.3024 9.77562 17.3024 9.84332 17.3024 9.9118C17.303 10.9768 17.0826 12.0301 16.6559 13.0033C16.229 13.9765 15.6051 14.848 14.8247 15.5612L16.3431 17.262C17.3577 16.3337 18.1685 15.1997 18.7229 13.9335C19.2773 12.6673 19.5629 11.2971 19.5612 9.9118Z" fill="#21A038"/>
<path d="M9.781 17.5344C8.73003 17.5348 7.6907 17.3114 6.73027 16.8789C5.7699 16.4463 4.90984 15.8142 4.20582 15.0234L2.52844 16.5614C3.44429 17.5899 4.5632 18.4117 5.81262 18.9737C7.06203 19.5356 8.41403 19.8252 9.781 19.8236V17.5344Z" fill="url(#paint4_linear_683_1962)"/>
<path d="M4.73724 4.26239L3.21961 2.56165C2.2047 3.48975 1.39362 4.62369 0.83897 5.88992C0.284322 7.15614 -0.00151216 8.52639 6.01613e-06 9.91178H2.25956C2.2591 8.84681 2.47942 7.79354 2.90624 6.82032C3.33306 5.84714 3.95687 4.97566 4.73724 4.26239Z" fill="url(#paint5_linear_683_1962)"/>
<path d="M56.4423 5.66836L59.2408 3.60254H49.8749V16.0164H59.2408V13.9505H52.5474V10.7707H58.2572V8.7049H52.5474V5.66836H56.4423Z" fill="#21A038"/>
<path d="M43.5728 8.43855H40.3212V5.66756H45.5107L48.3075 3.59546H37.6503V16.0093H43.2289C46.3565 16.0093 48.1515 14.5889 48.1515 12.1118C48.1515 9.74207 46.5257 8.43855 43.5728 8.43855ZM43.1086 13.9428H40.3212V10.5031H43.1086C44.8002 10.5031 45.5934 11.0795 45.5934 12.223C45.5934 13.3664 44.7494 13.9428 43.1086 13.9428Z" fill="#21A038"/>
<path d="M66.1254 3.60077H61.0272V16.0145H63.6993V12.4979H66.1254C69.3781 12.4979 71.3903 10.783 71.3903 8.04272C71.3903 5.30256 69.3781 3.60077 66.1254 3.60077ZM66.069 10.4305H63.6993V5.66817H66.069C67.7799 5.66817 68.7242 6.51436 68.7242 8.0503C68.7242 9.58624 67.7799 10.4305 66.069 10.4305Z" fill="#21A038"/>
<path d="M33.6402 13.085C32.9499 13.4595 32.1765 13.6534 31.3916 13.6488C29.0423 13.6488 27.338 11.9683 27.338 9.65417C27.338 7.33999 29.0423 5.6558 31.3916 5.6558C32.2389 5.64138 33.0685 5.89879 33.7593 6.39047L35.6286 5.01114L35.5021 4.92115C34.4118 3.96059 32.9549 3.45184 31.2872 3.45184C29.4784 3.45184 27.8383 4.0616 26.6673 5.17093C26.0752 5.7421 25.6069 6.42944 25.2916 7.19005C24.9763 7.95066 24.8207 8.76817 24.8347 9.59169C24.8222 10.4236 24.977 11.2494 25.29 12.02C25.603 12.7907 26.0676 13.4901 26.6563 14.0768C27.8328 15.2302 29.4693 15.8656 31.2652 15.8656C33.1418 15.8656 34.7819 15.2099 35.8925 14.0162L34.2193 12.7673L33.6402 13.085Z" fill="#21A038"/>
<path d="M81.986 8.43855H78.7357V5.66756H85.7206V3.59546H76.063V16.0093H81.6345C84.7618 16.0093 86.5569 14.5889 86.5569 12.1118C86.5642 9.74207 84.9387 8.43855 81.986 8.43855ZM81.5218 13.9428H78.7357V10.5031H81.5218C83.2133 10.5031 84.006 11.0795 84.006 12.223C84.006 13.3664 83.1697 13.9428 81.5218 13.9428Z" fill="#21A038"/>
<path d="M116.938 15.9915H114.229V3.5777H116.938V8.79158H118.412L122.394 3.5777H125.464L120.741 9.48309L126.225 15.9915H122.631L118.6 11.1093H116.938V15.9915Z" fill="#21A038"/>
<path d="M96.3994 13.6323H90.6685L89.697 16.0429H86.814L92.1891 3.62915H95.0715L100.359 16.0429H97.3709L96.3994 13.6323ZM95.5018 11.3831L93.5509 6.56178L91.5891 11.3831H95.5018Z" fill="#21A038"/>
<path d="M104.007 3.62915V8.81293H109.613V3.62915H112.406V16.0429H109.613V11.1515H104.007V16.0429H101.213V3.62915H104.007Z" fill="#21A038"/>
<defs>
<linearGradient id="paint0_linear_683_1962" x1="3.32175" y1="16.6338" x2="0.793721" y2="9.42282" gradientUnits="userSpaceOnUse">
<stop offset="0.14" stop-color="#F1E813"/>
<stop offset="0.3" stop-color="#E6E418"/>
<stop offset="0.58" stop-color="#C9DA26"/>
<stop offset="0.89" stop-color="#A2CC39"/>
</linearGradient>
<linearGradient id="paint1_linear_683_1962" x1="3.50989" y1="3.30828" x2="9.88977" y2="0.909281" gradientUnits="userSpaceOnUse">
<stop offset="0.06" stop-color="#0FA7DF"/>
<stop offset="0.54" stop-color="#0098F8"/>
<stop offset="0.92" stop-color="#0290EA"/>
</linearGradient>
<linearGradient id="paint2_linear_683_1962" x1="9.14278" y1="18.442" x2="16.3423" y2="16.8371" gradientUnits="userSpaceOnUse">
<stop offset="0.12" stop-color="#A2CC39"/>
<stop offset="0.28" stop-color="#86C239"/>
<stop offset="0.87" stop-color="#219F38"/>
</linearGradient>
<linearGradient id="paint3_linear_683_1962" x1="9.30783" y1="0.766709" x2="15.4693" y2="2.64287" gradientUnits="userSpaceOnUse">
<stop offset="0.06" stop-color="#0290EA"/>
<stop offset="0.79" stop-color="#0C89CA"/>
</linearGradient>
<linearGradient id="paint4_linear_683_1962" x1="3.09525" y1="16.2828" x2="9.80809" y2="18.7583" gradientUnits="userSpaceOnUse">
<stop offset="0.13" stop-color="#F1E813"/>
<stop offset="0.3" stop-color="#EAE616"/>
<stop offset="0.53" stop-color="#D8DF1F"/>
<stop offset="0.8" stop-color="#BAD52D"/>
<stop offset="0.98" stop-color="#A2CC39"/>
</linearGradient>
<linearGradient id="paint5_linear_683_1962" x1="0.84177" y1="10.1889" x2="3.59078" y2="3.13268" gradientUnits="userSpaceOnUse">
<stop offset="0.07" stop-color="#A2CC39"/>
<stop offset="0.26" stop-color="#81C45E"/>
<stop offset="0.92" stop-color="#0FA7DF"/>
</linearGradient>
</defs>
</svg>
