<svg width="64" height="20" viewBox="0 0 64 20" fill="none" xmlns="http://www.w3.org/2000/svg">
<path d="M24.1875 0.35171L15.9595 19.694H10.5891L6.54292 4.25933C6.29382 3.30749 6.08095 2.9611 5.33403 2.55691C4.11052 1.90525 2.09799 1.29399 0.321045 0.913257L0.445409 0.351829H9.08569C10.1877 0.351829 11.1784 1.07593 11.4275 2.32421L13.567 13.5191L18.8514 0.351829L24.1875 0.35171ZM45.2233 13.3761C45.2471 8.27387 38.0569 7.99618 38.1086 5.71358C38.1226 5.01681 38.7929 4.27953 40.261 4.09339C40.99 3.99785 42.9961 3.92782 45.2699 4.95622L46.1611 0.856413C44.9377 0.418954 43.3652 0 41.4107 0C36.3909 0 32.857 2.63044 32.8272 6.39414C32.7943 9.17733 35.3484 10.7305 37.275 11.6574C39.2533 12.6059 39.9148 13.2115 39.9078 14.0621C39.8949 15.3603 38.3294 15.9276 36.8692 15.9532C34.315 15.9924 32.8335 15.2732 31.6504 14.7304L30.7309 18.9711C31.916 19.5071 34.1101 19.9725 36.3808 20C41.7162 19.9998 45.2064 17.3974 45.2233 13.3761ZM58.4796 19.6941H63.1782L59.0784 0.351829H54.7408C53.7662 0.351829 52.9445 0.911807 52.5784 1.76967L44.9617 19.6941H50.2928L51.3511 16.8055H57.8679L58.4796 19.6941ZM52.8122 12.841L55.4868 5.57824L57.0254 12.841H52.8122ZM31.4458 0.35171L27.2434 19.694H22.1634L26.3667 0.35171H31.4458Z" fill="#1A2ADF"/>
</svg>
