<svg width="2000" height="931" xmlns="http://www.w3.org/2000/svg">
								    <defs>
								        <linearGradient x1="92.827%" y1="0%" x2="53.422%" y2="80.087%" id="hero-shape-a">
								            <stop stop-color="#adcff6" offset="0%"></stop>
								            <stop stop-color="#adcff6" stop-opacity="1" offset="100%"></stop>
								        </linearGradient>
								        <linearGradient x1="92.827%" y1="0%" x2="53.406%" y2="80.12%" id="hero-shape-b">
								            <stop stop-color="#D7F0FB" offset="0%"></stop>
								            <stop stop-color="#D7F0FB" stop-opacity="1" offset="100%"></stop>
								        </linearGradient>
								        <linearGradient x1="8.685%" y1="23.733%" x2="85.808%" y2="82.837%" id="hero-shape-c">
                          <stop stop-color="#D7F0FB" offset="0%"></stop>
                          <stop stop-color="#D7F0FB" stop-opacity="1" offset="100%"></stop>
								        </linearGradient>
								        <linearGradient x1="79.483%" y1="15.903%" x2="38.42%" y2="70.124%" id="hero-shape-d">
                          <stop stop-color="#D7F0FB" offset="0%"></stop>
                          <stop stop-color="#D7F0FB" stop-opacity="1" offset="100%"></stop>
								        </linearGradient>
								        <linearGradient x1="99.037%" y1="26.963%" x2="24.582%" y2="78.557%" id="hero-shape-e">
                          <stop stop-color="#D7F0FB" offset="0%"></stop>
                          <stop stop-color="#D7F0FB" stop-opacity="1" offset="100%"></stop>
								        </linearGradient>
								    </defs>
								    <g fill="none" fill-rule="evenodd">
								        <g class="hero-shape-top">
											<g class="is-moving-object is-translating" data-translating-factor="280" style="transform: translate(-2.99107px, 0.528571px); transition: transform 1s ease-out 0s; transform-style: preserve-3d; backface-visibility: hidden;">
								            	<path d="M 1355.46 1.23 h 116.85 V 565.8 c -1.107 -1.4268 -2.2509 -2.829 -3.3087 -4.2927 c -9.84 -13.7883 -18.6222 -28.5975 -29.8521 -41.205 c -32.0907 -36.039 -71.2662 -60.147 -119.7528 -68.1666 a 238.7799 238.7799 90 0 0 -76.1247 -0.246 c -35.8914 5.5719 -69.7287 17.7612 -102.2868 33.6159 c -30.4671 14.76 -59.04 32.7672 -86.9856 51.8691 a 847.9251 847.9251 90 0 1 -120.2694 67.8591 a 1128.771 1128.771 90 0 1 -121.5732 48.1914 a 1412.04 1412.04 90 0 1 -180.3672 47.1213 c -33.21 6.3591 -66.5676 12.4107 -100.0359 17.4906 c -27.9579 4.2558 -56.1372 7.1955 -84.2796 10.1598 q -45.2886 4.7724 -90.7002 8.4624 c -21.3405 1.722 -42.7425 2.829 -64.1445 3.69 c -19.4094 0.7995 -38.8434 0.9348 -58.2651 1.3038 c -7.5768 0.1476 -15.1536 0.1107 -22.7427 0.1476 H 145.14 c -7.7859 0 -15.5718 0 -23.37 -0.1599 c -19.4094 -0.3936 -38.8311 -0.5781 -58.2282 -1.3776 C 42.7302 739.4268 21.9924 738 1.23 736.77 V 528.9 c 29.0157 -0.8118 58.056 -1.0824 87.0348 -2.6322 a 590.3262 590.3262 90 0 0 60.1347 -6.15 c 30.75 -4.8462 61.6722 -9.7416 91.9917 -16.8633 a 2210.2362 2210.2362 90 0 0 233.3802 -68.0313 c 51.9921 -18.45 103.1109 -38.8803 151.1793 -66.2478 c 28.5852 -16.2729 55.8297 -34.3539 77.49 -59.655 c 18.45 -21.648 29.1264 -46.0266 20.4303 -74.5995 c -3.6162 -11.8818 -11.07 -22.6812 -17.3676 -33.6405 s -7.7367 -21.6111 -1.722 -33.21 c 7.1217 -13.6776 18.8559 -22.4844 31.3404 -30.4425 c 24.354 -15.5226 51.1311 -25.9038 78.3018 -35.1411 a 1143.9861 1143.9861 90 0 1 141.6837 -37.761 C 1005.7095 54.3045 1056.57 45.0795 1107.4182 35.8791 c 20.2581 -3.69 40.7376 -6.027 61.1064 -9.0528 c 18.3393 -2.7183 36.6294 -5.7687 54.9933 -8.2779 c 20.5902 -2.8044 41.2542 -5.1537 61.869 -7.6998 C 1301.34 8.8683 1317.33 6.9741 1333.32 4.92 C 1340.7 3.8745 1348.08 2.46 1355.46 1.23 Z" fill="url(#hero-shape-a)" transform="translate(1)"></path>
											</g>
								        </g>
								        <g transform="translate(800 200)">
											<g class="is-moving-object is-translating" data-translating-factor="50" style="transform: translate(-16.75px, 2.96px); transition: transform 1s ease-out 0s; transform-style: preserve-3d; backface-visibility: hidden;">
								            	<circle fill="url(#hero-shape-c)" cx="530" cy="-30" r="20"></circle>
											</g>
                      <g class="is-moving-object is-translating" data-translating-factor="50" style="transform: translate(-16.75px, 2.96px); transition: transform 1s ease-out 0s; transform-style: preserve-3d; backface-visibility: hidden;">
								            	<circle fill="url(#hero-shape-c)" cx="420" cy="100" r="15"></circle>
											</g>
                      <g class="is-moving-object is-translating" data-translating-factor="50" style="transform: translate(-16.75px, 2.96px); transition: transform 1s ease-out 0s; transform-style: preserve-3d; backface-visibility: hidden;">
								            	<circle fill="url(#hero-shape-c)" cx="520" cy="180" r="10"></circle>
											</g>
											<g class="is-moving-object is-translating" data-translating-factor="80" style="transform: translate(-10.4688px, 1.85px); transition: transform 1s ease-out 0s; transform-style: preserve-3d; backface-visibility: hidden;">
								            	<path d="M 410.9952 141.5025 c 0.2722 -3.7498 0.5443 -7.2274 0.7711 -10.7201 c 0.121 -1.7086 0.2873 -3.4171 0.2268 -5.1106 c -0.0302 -0.756 -0.3629 -1.633 -0.8467 -2.2226 c -3.145 -3.7649 -6.3806 -7.4542 -9.571 -11.1888 c -1.4818 -1.7237 -0.9979 -3.2357 1.2096 -3.78 c 3.8405 -0.9526 7.681 -1.8598 11.5063 -2.8123 c 1.1642 -0.2873 2.3587 -0.5746 3.4625 -1.0282 c 0.6048 -0.2419 1.1945 -0.7711 1.5574 -1.3154 c 2.6309 -4.1126 5.2769 -8.2253 7.7414 -12.4438 c 1.2096 -2.0563 3.2962 -1.8446 4.3394 -0.0151 c 2.4192 4.2034 5.0198 8.316 7.6507 12.4135 c 0.4234 0.6653 1.2701 1.2701 2.0261 1.4666 c 4.5511 1.2096 9.1022 2.4192 13.6987 3.3718 c 2.8426 0.5897 3.5078 2.2529 1.4666 4.6418 c -2.903 3.4171 -5.7154 6.9098 -8.7394 10.206 c -1.3154 1.4364 -1.1794 2.9182 -1.0584 4.5511 c 0.3478 4.4453 0.7106 8.8754 0.9979 13.3207 c 0.1361 2.0563 -1.134 2.9484 -3.0391 2.1773 c -4.6116 -1.8295 -9.2081 -3.659 -13.8046 -5.5339 c -1.013 -0.4082 -1.9051 -0.3931 -2.903 0.0302 c -4.5511 1.9202 -9.1022 3.8102 -13.6685 5.6851 C 412.3409 143.9066 410.9801 143.0145 410.9952 141.5025 z" fill="url(#hero-shape-d)" transform="matrix(-1 0 0 1 930 0)"></path>
											</g>
											<g class="is-moving-object is-translating" data-translating-factor="100" style="transform: translate(-8.375px, 1.48px); transition: transform 1s ease-out 0s; transform-style: preserve-3d; backface-visibility: hidden;">
												<path d="M 12.992 49.1708 c 0.4536 -6.2496 0.9072 -12.0456 1.2852 -17.8668 c 0.2016 -2.8476 0.4788 -5.6952 0.378 -8.5176 c -0.0504 -1.26 -0.6048 -2.7216 -1.4112 -3.7044 c -5.2416 -6.2748 -10.6344 -12.4236 -15.9516 -18.648 c -2.4696 -2.8728 -1.6632 -5.3928 2.016 -6.3 c 6.4008 -1.5876 12.8016 -3.0996 19.1772 -4.6872 c 1.9404 -0.4788 3.9312 -0.9576 5.7708 -1.7136 c 1.008 -0.4032 1.9908 -1.2852 2.5956 -2.1924 c 4.3848 -6.8544 8.7948 -13.7088 12.9024 -20.7396 c 2.016 -3.4272 5.4936 -3.0744 7.2324 -0.0252 c 4.032 7.0056 8.3664 13.86 12.7512 20.6892 c 0.7056 1.1088 2.1168 2.1168 3.3768 2.4444 c 7.5852 2.016 15.1704 4.032 22.8312 5.6196 c 4.7376 0.9828 5.8464 3.7548 2.4444 7.7364 c -4.8384 5.6952 -9.5256 11.5164 -14.5656 17.01 c -2.1924 2.394 -1.9656 4.8636 -1.764 7.5852 c 0.5796 7.4088 1.1844 14.7924 1.6632 22.2012 c 0.2268 3.4272 -1.89 4.914 -5.0652 3.6288 c -7.686 -3.0492 -15.3468 -6.0984 -23.0076 -9.2232 c -1.6884 -0.6804 -3.1752 -0.6552 -4.8384 0.0504 c -7.5852 3.2004 -15.1704 6.3504 -22.7808 9.4752 C 15.2348 53.1776 12.9668 51.6908 12.992 49.1708 z" fill="url(#hero-shape-e)" transform="matrix(-1 0 0 1 480 0)"></path>
											</g>
										</g>
								    </g>
								</svg>