<svg width="25" height="24" viewBox="0 0 25 24" fill="none" xmlns="http://www.w3.org/2000/svg">
<path d="M21.563 0H3.43704C1.5419 0 0 1.54994 0 3.45565V14.6084C0 16.5098 1.53519 18.0573 3.42484 18.064V23.125L10.6589 18.064H21.563C23.4581 18.064 25 16.5138 25 14.6084V3.45565C25 1.54994 23.4581 0 21.563 0ZM23.5352 14.6084C23.5352 15.7016 22.6505 16.5913 21.563 16.5913H10.1993L4.88968 20.306V16.5913H3.43704C2.34955 16.5913 1.46484 15.7016 1.46484 14.6084V3.45565C1.46484 2.36211 2.34955 1.47277 3.43704 1.47277H21.563C22.6505 1.47277 23.5352 2.36211 23.5352 3.45565V14.6084Z" fill="currentColor"/>
<path d="M6.69113 5.20395H18.3089V6.67673H6.69113V5.20395Z" fill="currentColor"/>
<path d="M6.69113 8.34587H18.3089V9.81864H6.69113V8.34587Z" fill="currentColor"/>
<path d="M6.69113 11.4878H18.3089V12.9606H6.69113V11.4878Z" fill="currentColor"/>
</svg>
