<svg width="26" height="25" viewBox="0 0 26 25" fill="none" xmlns="http://www.w3.org/2000/svg">
<path d="M25.4808 7.74386C25.2693 7.47401 24.9693 7.32018 24.6545 7.31992H24.324V6.27029C24.3222 4.48829 23.0748 3.04423 21.5354 3.04221H11.4629C11.1973 3.04221 10.9407 2.93251 10.7387 2.73302L8.59889 0.618379C8.19498 0.219409 7.68148 0.000252191 7.15034 0H4.7101C3.1707 0.00201756 1.92324 1.44608 1.9215 3.22808V7.31967H1.49994C1.18513 7.31992 0.88514 7.47376 0.673598 7.74386C0.462275 8.01396 0.359227 8.3746 0.390163 8.73725L1.47205 21.4806C1.60822 23.1355 2.81124 24.398 4.24737 24.3927H21.9068C23.343 24.398 24.546 23.1355 24.6819 21.4806L25.764 8.73725C25.7945 8.3746 25.6917 8.01396 25.4808 7.74386ZM3.03694 3.22808C3.03803 2.15903 3.78659 1.29249 4.7101 1.29123H7.15034C7.41591 1.29148 7.67255 1.40094 7.87451 1.60042L10.0143 3.71507C10.4185 4.11404 10.9319 4.33345 11.4629 4.33345H21.5354C22.4589 4.33471 23.2075 5.20124 23.2085 6.27029V7.31992H3.03694V3.22808ZM23.5719 21.3545C23.4902 22.3474 22.7685 23.1047 21.9068 23.1017H4.24737C3.38573 23.1047 2.66396 22.3474 2.58227 21.3545L1.50038 8.61116H24.654L23.5719 21.3545Z" fill="#544234"/>
</svg>
