<svg width="24" height="24" viewBox="0 0 24 24" fill="none" xmlns="http://www.w3.org/2000/svg">
<path d="M1 4.05556C1 14.5183 9.48172 23 19.9444 23C20.4165 23 20.8845 22.9828 21.3479 22.9488C21.8797 22.9098 22.1455 22.8904 22.3877 22.751C22.5881 22.6357 22.7782 22.4311 22.8786 22.2227C23 21.9711 23 21.6777 23 21.0909V17.6475C23 17.154 23 16.9072 22.9187 16.6958C22.8471 16.5089 22.7305 16.3426 22.5794 16.2113C22.4084 16.0627 22.1765 15.9783 21.7128 15.8097L17.7933 14.3844C17.2537 14.1883 16.9839 14.0901 16.7279 14.1067C16.5022 14.1214 16.285 14.1985 16.1004 14.3293C15.8912 14.4776 15.7435 14.7237 15.4481 15.2162L14.4444 16.8889C11.2057 15.4221 8.5801 12.7931 7.11111 9.55556L8.78388 8.55189C9.27622 8.25649 9.52238 8.10879 9.67069 7.89952C9.80147 7.71499 9.87859 7.49778 9.89326 7.27208C9.90988 7.01611 9.81173 6.74631 9.61557 6.20673L8.19032 2.28726C8.02167 1.82348 7.93735 1.59159 7.78874 1.42057C7.65746 1.26949 7.49109 1.15296 7.30425 1.08122C7.09273 1 6.84599 1 6.3525 1H2.90912C2.3223 1 2.02888 1 1.77731 1.12131C1.56894 1.22178 1.36439 1.4119 1.24897 1.61237C1.10961 1.85442 1.09014 2.12031 1.0512 2.65211C1.01727 3.1155 1 3.58351 1 4.05556Z" stroke="#107DC6" stroke-width="1.25" stroke-linecap="round" stroke-linejoin="round"/>
</svg>