<svg width="50" height="50" viewBox="0 0 50 50" fill="none" xmlns="http://www.w3.org/2000/svg">
<circle cx="25" cy="24.9375" r="24.2188" fill="white"/>
<path d="M38.9002 24.9373C38.9031 25.4478 38.7801 25.95 38.5439 26.3921C38.3077 26.8343 37.9668 27.2005 37.5563 27.4531L20.6568 37.9986C20.249 38.2563 19.7852 38.3921 19.3129 38.3921C18.8405 38.3921 18.3767 38.2563 17.969 37.9986C17.5585 37.7459 17.2177 37.3797 16.9815 36.9376C16.7453 36.4954 16.6223 35.9933 16.625 35.4827V14.3918C16.6223 13.8813 16.7453 13.3791 16.9815 12.937C17.2176 12.4948 17.5585 12.1286 17.9689 11.8759C18.3767 11.6182 18.8405 11.4824 19.3128 11.4824C19.7852 11.4824 20.249 11.6182 20.6568 11.8759L37.5563 22.4214C37.9668 22.6741 38.3077 23.0403 38.5439 23.4824C38.7801 23.9246 38.903 24.4267 38.9002 24.9373Z" fill="url(#paint0_linear_78_4912)"/>
<defs>
<linearGradient id="paint0_linear_78_4912" x1="12.7566" y1="20.8461" x2="35.1239" y2="32.7942" gradientUnits="userSpaceOnUse">
<stop stop-color="#F6E89F"/>
<stop offset="1" stop-color="#F66E70"/>
</linearGradient>
</defs>
</svg>
