<svg width="20" height="20" viewBox="0 0 20 20" fill="none" xmlns="http://www.w3.org/2000/svg">
<path d="M0 10C0 14.2996 2.71375 17.9651 6.52168 19.378L7.39129 9.99999L6.52168 0.622023C2.71375 2.03499 0 5.70038 0 10Z" fill="#6DA544"/>
<path d="M20 10C20 4.47722 15.5228 3.05176e-05 10 3.05176e-05C8.7768 3.05176e-05 7.60504 0.22007 6.52168 0.622023V19.378C7.60504 19.78 8.7768 20 10 20C15.5228 20 20 15.5228 20 10Z" fill="#D80027"/>
<path d="M6.52176 13.4783C8.44274 13.4783 10 11.921 10 10C10 8.07905 8.44274 6.52179 6.52176 6.52179C4.60078 6.52179 3.04352 8.07905 3.04352 10C3.04352 11.921 4.60078 13.4783 6.52176 13.4783Z" fill="#FFDA44"/>
<path d="M4.56523 8.26089V10.4348C4.56523 11.5153 5.44117 12.3913 6.52176 12.3913C7.60234 12.3913 8.47828 11.5154 8.47828 10.4348V8.26089H4.56523Z" fill="#D80027"/>
<path d="M6.52176 11.087C6.16215 11.087 5.86957 10.7944 5.86957 10.4348V9.56526H7.17391V10.4348C7.17391 10.7944 6.88133 11.087 6.52176 11.087Z" fill="#F0F0F0"/>
</svg>
