<svg width="125" height="95" viewBox="0 0 125 95" fill="none" xmlns="http://www.w3.org/2000/svg">
<path fill-rule="evenodd" clip-rule="evenodd" d="M-1.36346e-06 47.4726V79.1758C-1.36346e-06 87.8818 7.02247 95 15.6115 95H117.167C117.221 95 117.221 95 117.221 95C121.543 95 125 91.4957 125 87.1153C125 85.5821 124.514 83.9942 123.65 82.7349L100.529 47.4726L123.65 12.2651C124.514 10.951 124.946 9.41787 124.946 7.82997C124.946 3.50432 121.489 0 117.221 0H117.167H70.3328L-1.36346e-06 47.4726Z" fill="#F66E70"/>
<path fill-rule="evenodd" clip-rule="evenodd" d="M70.3328 66.4178L5.56396 91.2219C2.05273 89.5245 7.62939e-06 87.0057 7.62939e-06 84.3775V66.4178H70.3328Z" fill="#DE6163
"/>
</svg>
