<svg width="24" height="31" viewBox="0 0 24 31" fill="none" xmlns="http://www.w3.org/2000/svg">
<path d="M16.083 11.4311C15.7008 11.4311 15.391 11.7409 15.391 12.1231V25.2026C15.391 25.5846 15.7008 25.8946 16.083 25.8946C16.4652 25.8946 16.775 25.5846 16.775 25.2026V12.1231C16.775 11.7409 16.4652 11.4311 16.083 11.4311Z" fill='currentColor'/>
<path d="M7.91699 11.4311C7.53475 11.4311 7.22496 11.7409 7.22496 12.1231V25.2026C7.22496 25.5846 7.53475 25.8946 7.91699 25.8946C8.29923 25.8946 8.60903 25.5846 8.60903 25.2026V12.1231C8.60903 11.7409 8.29923 11.4311 7.91699 11.4311Z" fill='currentColor'/>
<path d="M1.96549 9.52232V26.5726C1.96549 27.5804 2.33503 28.5268 2.98057 29.2059C3.62313 29.8868 4.51737 30.2734 5.45324 30.275H18.5468C19.4829 30.2734 20.3771 29.8868 21.0194 29.2059C21.665 28.5268 22.0345 27.5804 22.0345 26.5726V9.52232C23.3177 9.18171 24.1493 7.94199 23.9776 6.62524C23.8057 5.30875 22.6841 4.32395 21.3563 4.32368H17.8131V3.45864C17.8171 2.73119 17.5295 2.03266 17.0145 1.51877C16.4996 1.00515 15.8 0.71915 15.0725 0.725097H8.92747C8.20002 0.71915 7.50042 1.00515 6.98545 1.51877C6.47048 2.03266 6.18285 2.73119 6.18691 3.45864V4.32368H2.64374C1.3159 4.32395 0.194315 5.30875 0.0223877 6.62524C-0.149269 7.94199 0.682254 9.18171 1.96549 9.52232ZM18.5468 28.8909H5.45324C4.27002 28.8909 3.34956 27.8745 3.34956 26.5726V9.58315H20.6504V26.5726C20.6504 27.8745 19.73 28.8909 18.5468 28.8909ZM7.57098 3.45864C7.56638 3.09829 7.70803 2.75146 7.96376 2.49709C8.21922 2.24271 8.56686 2.10295 8.92747 2.10917H15.0725C15.4331 2.10295 15.7808 2.24271 16.0362 2.49709C16.292 2.75119 16.4336 3.09829 16.429 3.45864V4.32368H7.57098V3.45864ZM2.64374 5.70775H21.3563C22.0442 5.70775 22.6019 6.26543 22.6019 6.95341C22.6019 7.64139 22.0442 8.19907 21.3563 8.19907H2.64374C1.95576 8.19907 1.39808 7.64139 1.39808 6.95341C1.39808 6.26543 1.95576 5.70775 2.64374 5.70775Z" fill='currentColor'/>
<path d="M12 11.4311C11.6178 11.4311 11.308 11.7409 11.308 12.1231V25.2026C11.308 25.5846 11.6178 25.8946 12 25.8946C12.3822 25.8946 12.692 25.5846 12.692 25.2026V12.1231C12.692 11.7409 12.3822 11.4311 12 11.4311Z" fill='currentColor'/>
</svg>
