<svg width="20" height="20" viewBox="0 0 20 20" fill="none" xmlns="http://www.w3.org/2000/svg">
<path d="M4.58251 1.604C3.17805 2.50921 2.0228 3.75191 1.2223 5.21858C0.421802 6.68524 0.00157139 8.32911 0 10C0.00157188 11.6709 0.421803 13.3148 1.2223 14.7814C2.0228 16.2481 3.17805 17.4908 4.58251 18.396V1.604Z" fill="#0A1EB7"/>
<path d="M10 0C8.07753 0.00280374 6.19661 0.559703 4.58251 1.604V18.396C6.19661 19.4403 8.07753 19.9972 10 20C11.9225 19.9972 13.8034 19.4403 15.4175 18.396V1.59668C13.8026 0.554961 11.9217 0.000621116 10 0Z" fill="#FFDC2A"/>
<path d="M15.4175 1.59668V18.396C16.822 17.4908 17.9772 16.2481 18.7777 14.7814C19.5782 13.3148 19.9984 11.6709 20 10C19.9997 8.32787 19.58 6.68251 18.7794 5.21447C17.9789 3.74642 16.823 2.50256 15.4175 1.59668Z" fill="#F10000"/>
<path d="M4.58233 3.01232C3.51587 3.83852 2.6525 4.8977 2.05826 6.10883C1.46402 7.31996 1.15466 8.65095 1.15383 10C1.15466 11.3491 1.46402 12.6801 2.05826 13.8912C2.6525 15.1023 3.51587 16.1615 4.58233 16.9877V3.01232Z" fill="#0A0F9A"/>
<path d="M10 1.15384C8.03798 1.15539 6.13215 1.80917 4.58233 3.01232V16.9877C6.13215 18.1908 8.03798 18.8446 10 18.8462C11.962 18.8446 13.8678 18.1908 15.4177 16.9877V3.00782C13.8673 1.80628 11.9615 1.1541 10 1.15384Z" fill="#FFCC00"/>
<path d="M15.4177 3.00782V16.9877C16.4841 16.1615 17.3475 15.1023 17.9417 13.8912C18.536 12.6801 18.8453 11.3491 18.8462 10C18.846 8.65019 18.537 7.31831 17.9427 6.10635C17.3485 4.89438 16.4847 3.83448 15.4177 3.00782Z" fill="#D40000"/>
</svg>
