<svg width="20" height="20" viewBox="0 0 20 20" fill="none" xmlns="http://www.w3.org/2000/svg">
<path d="M10 0C7.34784 9.09864e-07 4.8043 1.05357 2.92893 2.92893C1.05357 4.8043 8.7131e-07 7.34784 0 10C7.71071e-07 12.6522 1.05357 15.1957 2.92893 17.0711C4.8043 18.9464 7.34784 20 10 20C12.6522 20 15.1957 18.9464 17.0711 17.0711C18.9464 15.1957 20 12.6522 20 10C20 7.34784 18.9464 4.8043 17.0711 2.92893C15.1957 1.05357 12.6522 7.71071e-07 10 0Z" fill="#F9F9F9"/>
<path d="M0.578613 6.66748C0.197914 7.73741 0.0022451 8.86436 0 10C0.00224514 11.1356 0.197914 12.2626 0.578613 13.3325H19.4287C19.8069 12.2622 20.0001 11.1352 20 10C20.0001 8.86479 19.8069 7.73784 19.4287 6.66748H0.578613Z" fill="#0055D4"/>
<path d="M0.574951 13.3325C1.26375 15.2813 2.53947 16.9687 4.22662 18.1627C5.91377 19.3567 7.92944 19.9986 9.99634 20C12.0645 20.0001 14.0818 19.3589 15.7704 18.1648C17.459 16.9707 18.7358 15.2824 19.4251 13.3325H0.574951Z" fill="#FF5555"/>
<path d="M10 1.15385C8.24123 1.15452 6.52258 1.67945 5.06357 2.66158C3.60456 3.64371 2.47142 5.03845 1.80889 6.66767H18.1941C17.5314 5.03798 16.3978 3.64291 14.9382 2.66074C13.4786 1.67857 11.7593 1.15393 10 1.15385Z" fill="#F2F2F2"/>
<path d="M1.80889 6.66767C1.37738 7.72571 1.15493 8.85734 1.15385 10C1.15493 11.1427 1.37738 12.2743 1.80889 13.3323H18.1911C18.6226 12.2743 18.8451 11.1427 18.8462 10C18.846 8.85754 18.6246 7.72592 18.1941 6.66767H1.80889Z" fill="#0044AA"/>
<path d="M1.80889 13.3323C2.47142 14.9615 3.60456 16.3563 5.06357 17.3384C6.52257 18.3206 8.24123 18.8455 10 18.8462C11.7588 18.8455 13.4774 18.3206 14.9364 17.3384C16.3954 16.3563 17.5286 14.9615 18.1911 13.3323H1.80889Z" fill="#D40000"/>
</svg>
