<svg xmlns="http://www.w3.org/2000/svg" viewBox="0 0 311.35 264"><defs><style>.cls-1{fill:#dcf6fe;}</style></defs><g id="Слой_2" data-name="Слой 2"><g id="Слой_1-2" data-name="Слой 1"><path class="cls-1" d="M311.35,52.45v6.26a69,69,0,0,1-2.2,6.65,37.78,37.78,0,0,1-3.91,7.08,42.37,42.37,0,0,1-13,11.48,110.49,110.49,0,0,1-16.49,8c-14.75,5.41-29.64,10.43-44.51,15.47-11.81,4-23.83,7.41-35.26,12.48-4.93,2.18-9.8,4.51-13.36,8.72-3,3.61-3.09,7.77,0,11.18,3.76,4.12,8.51,7.05,13.43,9.64s9.67,4.9,14.47,7.44c7.26,3.83,14.48,7.76,19.67,14.39a12,12,0,0,1,2.66,9.69c-.8,4.78-3.92,8.05-7.55,10.56a111.35,111.35,0,0,1-15.91,9.34,134.28,134.28,0,0,1-24.24,8.27c-12.5,3.13-25.21,5.09-37.94,7-11.18,1.68-22.32,3.58-33.47,5.46a185.33,185.33,0,0,0-32.37,8.15,47.32,47.32,0,0,0-13.38,7.12c-4.06,3.22-6.38,7.72-8.29,12.36-2.54,6.11-6.78,10.41-13.11,12a80.5,80.5,0,0,1-16.5,2.64c-8.89.34-17.81-.11-26.72-.23-2.57,0-2.73-.18-2.73-2.75q0-123,0-245.91a3.67,3.67,0,0,1,0-1.37c.18-.43.63-1,1-1,4.57-.06,9.15,0,13.72,0,5.37,0,10.74.12,16.09-.18s10.79-1.05,16.18-1.62q7-.72,13.93-1.5c5.73-.64,11.45-1.32,17.18-2q6.87-.78,13.75-1.51c6.08-.66,12.15-1.36,18.23-1.94q7.15-.68,14.33-1.1c8.41-.5,16.83-.91,25.24-1.36,1.84-.1,3.68-.21,5.52-.39.3,0,.56-.42.84-.65h1.39c.51.22,1,.65,1.53.64,2.76,0,5.52-.24,8.28-.25,2.47,0,4.94.22,7.41.25.51,0,1-.42,1.54-.64h1.39c.39.23.78.64,1.18.67,9,.61,18.09,1,27.11,1.8,5.91.5,11.81,1.31,17.66,2.3,6.59,1.12,13.17,2.41,19.67,4,5.93,1.44,11.83,3.15,17.61,5.14a178.27,178.27,0,0,1,17,6.79,126.24,126.24,0,0,1,14.18,7.83,89.35,89.35,0,0,1,9.18,7.22,25.19,25.19,0,0,1,6.81,9C309.76,47.43,310.47,50,311.35,52.45Z"/></g></g></svg>