<svg xmlns="http://www.w3.org/2000/svg" viewBox="0 0 172.8 105.12"><defs><style>.cls-1{fill:#dcf6fe;}</style></defs><g id="Слой_2" data-name="Слой 2"><g id="Слой_1-2" data-name="Слой 1"><path class="cls-1" d="M172.8,67.77V73c-1.8,9.22-7.26,15.9-14.89,20.91-14.27,9.38-30.14,12-46.87,10.71A63,63,0,0,1,80.37,94.44c-11.6-7.81-22.69-16.37-34.15-24.38C34.15,61.62,22,53.42,7.53,49.24c-7.56-2.19-9.11-8-4.4-14.33,2-2.75,4.62-5.36,5.75-8.47,3.45-9.46,10-16.14,18.38-21C31.57,3,36.7,1.94,41.46.24H46l3.85.6c8.49,1.39,15.81,5.24,22.51,10.5,6.11,4.8,12.08,10,19.75,12.14C98,25.15,104,26.34,109.91,27.7c14.62,3.36,28.39,9.12,42.19,14.79,6.72,2.76,13,6.37,16.37,13.1C170.39,59.41,171.39,63.69,172.8,67.77Z"/></g></g></svg>