<svg xmlns="http://www.w3.org/2000/svg" viewBox="0 0 71.28 93.6"><defs><style>.cls-1{fill:#dcf6fe;}</style></defs><g id="Слой_2" data-name="Слой 2"><g id="Слой_1-2" data-name="Слой 1"><path class="cls-1" d="M71.28,1.68V93.36c-1.28-1.25-2.65-2.43-3.84-3.77-4.36-4.91-8.59-9.94-13-14.79-3.57-3.9-7.29-7.69-11.12-11.35a112.19,112.19,0,0,0-9.17-7.84c-7.57-5.78-15.3-11.36-22.88-17.13A27.12,27.12,0,0,1,1.89,26.75c-3.51-9-.76-18.4,8.58-22.87a37.89,37.89,0,0,1,15-3.36c3-.12,6.07.08,9.1.22,2.38.1,4.76.32,7.15.5,4,.3,8,.83,12,.86C59.56,2.15,65.42,1.83,71.28,1.68Z"/></g></g></svg>