<svg width="27" height="25" viewBox="0 0 27 25" fill="none" xmlns="http://www.w3.org/2000/svg">
<path d="M25.4557 7.17597H19.7282V4.66902C19.7282 2.09031 17.0029 0 13.6414 0C10.2797 0 7.55468 2.09031 7.55468 4.66902V7.17597H1.46791C1.08216 7.17597 0.769531 7.41599 0.769531 7.71168V19.9285C0.77335 22.5899 3.58513 24.7468 7.0549 24.7499H19.8687C23.3385 24.7468 26.1503 22.5899 26.1541 19.9285V7.71168C26.1541 7.41599 25.8414 7.17597 25.4557 7.17597ZM8.95142 4.66902C8.94488 3.3804 9.83749 2.18761 11.2913 1.54183C12.745 0.896054 14.5379 0.896054 15.9916 1.54183C17.4454 2.18761 18.338 3.3804 18.3315 4.66902V7.17597H8.95142V4.66902ZM24.7573 19.9285C24.7541 21.9985 22.5673 23.676 19.8687 23.6785H7.0549C4.35634 23.676 2.16928 21.9985 2.16628 19.9285V8.24738H7.55468V14.2481C7.55468 14.5438 7.86731 14.7839 8.25305 14.7839C8.63879 14.7839 8.95142 14.5438 8.95142 14.2481V8.24738H18.3315V14.2481C18.3315 14.5438 18.6441 14.7839 19.0298 14.7839C19.4156 14.7839 19.7282 14.5438 19.7282 14.2481V8.24738H24.7573V19.9285Z" fill="#544234"/>
</svg>
