<svg width="22" height="20" viewBox="0 0 22 20" fill="none" xmlns="http://www.w3.org/2000/svg">
<path d="M20.0507 0H1.86897C0.866659 0 0.0507812 0.815452 0.0507812 1.81819V14.5454C0.0507812 15.5482 0.866659 16.3636 1.86897 16.3636H8.23462C8.21552 17.0888 8.07703 18.2488 7.55698 18.7966C7.36611 18.9972 7.14772 19.0909 6.86894 19.0909C6.61769 19.0909 6.41438 19.2942 6.41438 19.5454C6.41438 19.7967 6.61769 20 6.86894 20H15.0507C15.302 20 15.5053 19.7967 15.5053 19.5454C15.5053 19.2942 15.302 19.0909 15.0507 19.0909C14.7719 19.0909 14.5536 18.9976 14.3636 18.797C13.8448 18.252 13.7054 17.0903 13.6856 16.3636H20.0507C21.0531 16.3636 21.8689 15.5482 21.8689 14.5454V1.81819C21.8689 0.815452 21.053 0 20.0507 0ZM10.9598 15.4571C10.4573 15.4571 10.0481 15.0479 10.0481 14.5454C10.0481 14.0429 10.4573 13.6336 10.9598 13.6336C11.4623 13.6336 11.8716 14.0429 11.8716 14.5454C11.8716 15.0479 11.4623 15.4571 10.9598 15.4571ZM1.86897 12.7272V1.81819H20.0507L20.0515 12.7272H1.86897Z" fill="#F98D3C"/>
</svg>
