<svg width="25" height="23" viewBox="0 0 25 23" fill="none" xmlns="http://www.w3.org/2000/svg">
<path d="M21.7771 14.1076L22.3842 6.44816C22.4029 6.21181 22.3682 5.97445 22.2824 5.75092C22.1966 5.52738 22.0614 5.32245 21.8853 5.14893C21.7093 4.9754 21.4961 4.837 21.2591 4.74236C21.022 4.64771 20.7663 4.59886 20.5077 4.59885H15.5846V4.02399C15.5846 2.95676 15.1221 1.93325 14.2988 1.1786C13.4755 0.423956 12.3589 0 11.1946 0C10.0302 0 8.91361 0.423956 8.09032 1.1786C7.26702 1.93325 6.8045 2.95676 6.8045 4.02399V4.59885H1.88136C1.62283 4.59886 1.36707 4.64771 1.13005 4.74236C0.893029 4.837 0.67983 4.9754 0.503759 5.14893C0.327687 5.32245 0.192522 5.52738 0.106697 5.75092C0.0208713 5.97445 -0.0137721 6.21181 0.00492858 6.44816L0.838412 16.9623C0.922476 17.9752 1.41983 18.9218 2.23135 19.6136C3.04288 20.3053 4.10898 20.6914 5.21718 20.6948H15.6342C16.0348 21.333 16.5966 21.8736 17.2726 22.2713C17.9485 22.669 18.7187 22.9121 19.5185 22.9803C20.3182 23.0484 21.1241 22.9395 21.8684 22.6628C22.6128 22.3861 23.2737 21.9497 23.7958 21.3902C24.3178 20.8307 24.6857 20.1644 24.8684 19.4475C25.0512 18.7306 25.0435 17.9839 24.846 17.2703C24.6485 16.5567 24.2669 15.897 23.7334 15.3466C23.2 14.7962 22.5301 14.3713 21.7802 14.1076H21.7771ZM8.0588 4.02399C8.0588 3.26169 8.38917 2.5306 8.97724 1.99157C9.56531 1.45254 10.3629 1.14971 11.1946 1.14971C12.0262 1.14971 12.8238 1.45254 13.4119 1.99157C13.9999 2.5306 14.3303 3.26169 14.3303 4.02399V4.59885H8.0588V4.02399ZM5.21718 19.5451C4.42563 19.5426 3.66417 19.2668 3.08454 18.7727C2.50491 18.2785 2.14966 17.6024 2.08958 16.8789L1.25609 6.36538C1.24979 6.28644 1.26134 6.20715 1.29002 6.13249C1.3187 6.05783 1.3639 5.9894 1.42278 5.93149C1.48165 5.87358 1.55294 5.82745 1.63218 5.79597C1.71141 5.76449 1.79689 5.74835 1.88325 5.74856H6.8045V6.89828C6.8045 7.05074 6.87057 7.19696 6.98819 7.30476C7.1058 7.41257 7.26532 7.47313 7.43165 7.47313C7.59798 7.47313 7.7575 7.41257 7.87511 7.30476C7.99273 7.19696 8.0588 7.05074 8.0588 6.89828V5.74856H14.3303V6.89828C14.3303 7.05074 14.3964 7.19696 14.514 7.30476C14.6316 7.41257 14.7911 7.47313 14.9575 7.47313C15.1238 7.47313 15.2833 7.41257 15.4009 7.30476C15.5185 7.19696 15.5846 7.05074 15.5846 6.89828V5.74856H20.5077C20.5941 5.74835 20.6796 5.76449 20.7588 5.79597C20.838 5.82745 20.9093 5.87358 20.9682 5.93149C21.0271 5.9894 21.0723 6.05783 21.101 6.13249C21.1296 6.20715 21.1412 6.28644 21.1349 6.36538L20.5391 13.8276C20.3517 13.8077 20.1633 13.7974 19.9747 13.7966C19.2083 13.7942 18.4515 13.9533 17.7629 14.2617C17.0743 14.57 16.4722 15.0194 16.0032 15.575C15.5341 16.1305 15.2107 16.7775 15.0579 17.4659C14.9051 18.1543 14.9269 18.8657 15.1218 19.5451H5.21718ZM19.9747 21.8445C19.2304 21.8445 18.5029 21.6423 17.8841 21.2633C17.2653 20.8843 16.783 20.3456 16.4982 19.7153C16.2134 19.0851 16.1389 18.3916 16.2841 17.7225C16.4293 17.0534 16.7876 16.4389 17.3139 15.9565C17.8401 15.4741 18.5106 15.1456 19.2406 15.0125C19.9705 14.8795 20.7271 14.9478 21.4147 15.2088C22.1022 15.4699 22.6899 15.912 23.1034 16.4792C23.5169 17.0464 23.7376 17.7132 23.7376 18.3954C23.7364 19.3098 23.3396 20.1865 22.6342 20.8331C21.9287 21.4797 20.9723 21.8435 19.9747 21.8445ZM22.4833 18.3954C22.4833 18.5479 22.4172 18.6941 22.2996 18.8019C22.182 18.9097 22.0224 18.9703 21.8561 18.9703H20.6018V20.12C20.6018 20.2724 20.5357 20.4187 20.4181 20.5265C20.3005 20.6343 20.141 20.6948 19.9747 20.6948C19.8083 20.6948 19.6488 20.6343 19.5312 20.5265C19.4136 20.4187 19.3475 20.2724 19.3475 20.12V18.9703H18.0932C17.9269 18.9703 17.7674 18.9097 17.6497 18.8019C17.5321 18.6941 17.4661 18.5479 17.4661 18.3954C17.4661 18.2429 17.5321 18.0967 17.6497 17.9889C17.7674 17.8811 17.9269 17.8205 18.0932 17.8205H19.3475V16.6708C19.3475 16.5184 19.4136 16.3722 19.5312 16.2643C19.6488 16.1565 19.8083 16.096 19.9747 16.096C20.141 16.096 20.3005 16.1565 20.4181 16.2643C20.5357 16.3722 20.6018 16.5184 20.6018 16.6708V17.8205H21.8561C22.0224 17.8205 22.182 17.8811 22.2996 17.9889C22.4172 18.0967 22.4833 18.2429 22.4833 18.3954Z" fill="#8C5B93"/>
</svg>
