<svg width="25" height="25" viewBox="0 0 25 25" fill="none" xmlns="http://www.w3.org/2000/svg">
<path d="M0.628273 21.0334C0.543162 21.0335 0.458919 21.0163 0.380669 20.9828C0.302419 20.9493 0.231797 20.9003 0.1731 20.8387C0.114403 20.777 0.0688578 20.7041 0.0392345 20.6243C0.00961128 20.5445 -0.00347071 20.4595 0.0007849 20.3745C0.0007849 15.8064 3.94769 11.8595 9.41311 10.9622C9.58618 10.9348 9.76308 10.9772 9.90488 11.0801C10.0467 11.1831 10.1418 11.3382 10.1692 11.5113C10.1967 11.6843 10.1543 11.8612 10.0513 12.003C9.94833 12.1448 9.79325 12.2399 9.62018 12.2674C4.83244 13.0329 1.34988 16.4339 1.34988 20.3494C1.35969 20.445 1.34743 20.5415 1.31405 20.6316C1.28067 20.7217 1.22705 20.8029 1.15734 20.8689C1.08762 20.935 1.00367 20.9842 0.911939 21.0127C0.820213 21.0412 0.723164 21.0483 0.628273 21.0334Z" fill="currentColor"/>
<path d="M22.5653 21.0334C22.4775 21.0379 22.3899 21.0239 22.3079 20.9924C22.2259 20.9609 22.1515 20.9125 22.0893 20.8504C22.0272 20.7883 21.9789 20.7139 21.9474 20.6319C21.9158 20.5499 21.9019 20.4622 21.9064 20.3745C21.9064 16.4527 18.4301 13.058 13.6361 12.2925C13.463 12.265 13.3079 12.1699 13.205 12.0281C13.102 11.8863 13.0596 11.7094 13.087 11.5364C13.1145 11.3633 13.2096 11.2082 13.3514 11.1052C13.4932 11.0023 13.6701 10.9598 13.8432 10.9873C19.2835 11.8532 23.2555 15.8001 23.2555 20.3996C23.2568 20.4881 23.2394 20.5759 23.2044 20.6572C23.1694 20.7384 23.1176 20.8114 23.0525 20.8713C22.9873 20.9311 22.9102 20.9765 22.8262 21.0044C22.7422 21.0324 22.6533 21.0422 22.5653 21.0334Z" fill="currentColor"/>
<path d="M22.5653 21.0334L0.603174 21.0334C0.438719 21.0174 0.286118 20.9407 0.175092 20.8183C0.0640659 20.6959 0.00256423 20.5366 0.00256423 20.3714C0.00256423 20.2062 0.0640659 20.0468 0.175092 19.9245C0.286118 19.8021 0.438719 19.7254 0.603174 19.7094H22.5653C22.7297 19.7254 22.8823 19.8021 22.9933 19.9245C23.1044 20.0468 23.1659 20.2062 23.1659 20.3714C23.1659 20.5366 23.1044 20.6959 22.9933 20.8183C22.8823 20.9407 22.7297 21.0174 22.5653 21.0334Z" fill="currentColor"/>
<path d="M11.5905 12.7255C10.3323 12.7242 9.10278 12.35 8.05726 11.6501C7.01174 10.9502 6.19719 9.95604 5.71657 8.7933C5.23595 7.63055 5.11084 6.35141 5.35706 5.11758C5.60327 3.88374 6.20976 2.7506 7.09985 1.86138C7.98995 0.972168 9.12368 0.366803 10.3578 0.121803C11.5918 -0.123196 12.8708 0.00317016 14.0331 0.484934C15.1954 0.966697 16.1887 1.78223 16.8876 2.82844C17.5865 3.87465 17.9595 5.10457 17.9595 6.36273C17.9578 8.05081 17.2861 9.66918 16.0918 10.8622C14.8976 12.0553 13.2786 12.7255 11.5905 12.7255ZM11.5905 1.324C10.5976 1.324 9.6271 1.61841 8.80158 2.17001C7.97606 2.7216 7.33265 3.5056 6.9527 4.42287C6.57276 5.34013 6.47335 6.34947 6.66704 7.32324C6.86073 8.297 7.33883 9.19146 8.04088 9.89351C8.74293 10.5956 9.63739 11.0737 10.6112 11.2674C11.5849 11.461 12.5943 11.3616 13.5115 10.9817C14.4288 10.6017 15.2128 9.95834 15.7644 9.13282C16.316 8.3073 16.6104 7.33675 16.6104 6.34391C16.6104 5.01255 16.0815 3.73571 15.1401 2.7943C14.1987 1.85288 12.9218 1.324 11.5905 1.324Z" fill="currentColor"/>
<path d="M23.6509 16.3524V15.0974C23.6559 14.7525 23.5925 14.41 23.4643 14.0898C23.3362 13.7695 23.1458 13.4779 22.9042 13.2317C22.6627 12.9854 22.3747 12.7895 22.057 12.6552C21.7393 12.521 21.3981 12.451 21.0531 12.4494H20.1056C19.4117 12.4494 18.7461 12.7251 18.2554 13.2158C17.7647 13.7065 17.489 14.372 17.489 15.066V16.321C17.2343 16.4716 17.0226 16.6852 16.8743 16.9412C16.7259 17.1973 16.6459 17.4871 16.6419 17.783V22.1754C16.6436 22.6376 16.8279 23.0803 17.1547 23.4071C17.4814 23.7339 17.9242 23.9182 18.3863 23.9199H22.7787C23.242 23.9199 23.6863 23.7363 24.0145 23.4093C24.3426 23.0824 24.5278 22.6387 24.5294 22.1754V17.783C24.5175 17.4894 24.4305 17.2036 24.2767 16.9532C24.1229 16.7027 23.9075 16.4959 23.6509 16.3524ZM18.8067 15.0974C18.8084 14.754 18.946 14.4252 19.1894 14.183C19.4328 13.9407 19.7622 13.8048 20.1056 13.8048H21.0531C21.3899 13.813 21.7101 13.953 21.9447 14.1947C22.1794 14.4364 22.3099 14.7605 22.3081 15.0974V16.0825H18.8067V15.0974ZM23.1992 22.2005C23.1992 22.3137 23.1542 22.4222 23.0742 22.5023C22.9942 22.5823 22.8856 22.6272 22.7725 22.6272H18.38C18.2674 22.6256 18.1598 22.5801 18.0801 22.5005C18.0005 22.4208 17.955 22.3132 17.9534 22.2005V17.8081C17.9534 17.695 17.9983 17.5864 18.0783 17.5064C18.1584 17.4264 18.2669 17.3814 18.38 17.3814H22.7725C22.829 17.3797 22.8852 17.3895 22.9378 17.4104C22.9903 17.4312 23.0381 17.4626 23.0781 17.5025C23.118 17.5425 23.1494 17.5903 23.1702 17.6428C23.1911 17.6954 23.2009 17.7516 23.1992 17.8081V22.2005Z" fill="currentColor"/>
<path d="M22.7536 24.4219H18.3612C17.7671 24.4219 17.1973 24.1858 16.7772 23.7657C16.3571 23.3456 16.1211 22.7758 16.1211 22.1817V17.7893C16.1241 17.4575 16.2018 17.1306 16.3484 16.833C16.4951 16.5353 16.7069 16.2745 16.9682 16.07V15.0535C16.9682 14.2214 17.2988 13.4233 17.8871 12.835C18.4755 12.2466 19.2735 11.916 20.1056 11.916H21.0531C21.8776 11.9276 22.6644 12.2632 23.2433 12.8503C23.8222 13.4375 24.1467 14.2289 24.1467 15.0535V16.07C24.4098 16.2733 24.6233 16.5336 24.7711 16.8315C24.919 17.1293 24.9972 17.4568 25 17.7893V22.1817C24.9984 22.7764 24.761 23.3462 24.3399 23.7661C23.9188 24.186 23.3483 24.4219 22.7536 24.4219ZM20.1056 12.9576C19.5431 12.9576 19.0037 13.1811 18.6059 13.5788C18.2082 13.9766 17.9847 14.5161 17.9847 15.0786V16.6285L17.7526 16.7728C17.565 16.8751 17.408 17.0256 17.2978 17.2086C17.1875 17.3917 17.1279 17.6007 17.1251 17.8144V22.2068C17.1251 22.5397 17.2573 22.8589 17.4926 23.0942C17.728 23.3296 18.0472 23.4618 18.38 23.4618H22.7725C23.1053 23.4618 23.4245 23.3296 23.6599 23.0942C23.8952 22.8589 24.0274 22.5397 24.0274 22.2068V17.8144C24.0233 17.601 23.9632 17.3925 23.8531 17.2096C23.7429 17.0268 23.5867 16.8762 23.4 16.7728L23.1615 16.6285V15.0786C23.1632 14.5188 22.9428 13.9812 22.5488 13.5837C22.1548 13.1861 21.6192 12.961 21.0594 12.9576H20.1056ZM22.7536 23.1167H18.3612C18.1166 23.1167 17.882 23.0195 17.709 22.8465C17.536 22.6735 17.4388 22.4389 17.4388 22.1943V17.8019C17.4388 17.5572 17.536 17.3226 17.709 17.1496C17.882 16.9766 18.1166 16.8794 18.3612 16.8794H22.7536C22.8752 16.8778 22.9959 16.9005 23.1086 16.9462C23.2213 16.992 23.3237 17.0599 23.4096 17.1459C23.4956 17.2318 23.5635 17.3342 23.6093 17.4469C23.655 17.5595 23.6777 17.6803 23.676 17.8019V22.1943C23.676 22.4389 23.5789 22.6735 23.4059 22.8465C23.2329 23.0195 22.9983 23.1167 22.7536 23.1167ZM18.3863 17.8897L18.4553 22.1943L22.6909 22.1252V17.827L22.4901 17.8897H18.3863ZM22.8289 16.572H18.3173V15.0911C18.3173 14.6168 18.5057 14.1619 18.8411 13.8266C19.1765 13.4912 19.6313 13.3028 20.1056 13.3028H21.0531C21.2872 13.3036 21.5187 13.3505 21.7346 13.4408C21.9505 13.5311 22.1465 13.6631 22.3114 13.8292C22.4763 13.9952 22.6069 14.1921 22.6957 14.4087C22.7845 14.6252 22.8298 14.8571 22.8289 15.0911V16.572ZM19.3025 15.5868H21.8124V15.0974C21.8141 14.993 21.7951 14.8894 21.7565 14.7924C21.7179 14.6954 21.6604 14.6071 21.5875 14.5324C21.5146 14.4578 21.4276 14.3982 21.3316 14.3574C21.2356 14.3165 21.1324 14.295 21.028 14.2942H20.1056C19.8926 14.2942 19.6883 14.3788 19.5377 14.5295C19.3871 14.6801 19.3025 14.8844 19.3025 15.0974V15.5868Z" fill="#107DC6"/>
<path d="M23.6509 16.3524V15.0974C23.6559 14.7525 23.5925 14.41 23.4643 14.0898C23.3362 13.7695 23.1458 13.4779 22.9042 13.2317C22.6627 12.9854 22.3747 12.7895 22.057 12.6552C21.7393 12.521 21.3981 12.451 21.0531 12.4494H20.1056C19.4117 12.4494 18.7461 12.7251 18.2554 13.2158C17.7647 13.7065 17.489 14.372 17.489 15.066V16.321C17.2343 16.4716 17.0226 16.6852 16.8743 16.9412C16.7259 17.1973 16.6459 17.4871 16.6419 17.783V22.1754C16.6436 22.6376 16.8279 23.0803 17.1547 23.4071C17.4814 23.7339 17.9242 23.9182 18.3863 23.9199H22.7787C23.242 23.9199 23.6863 23.7363 24.0145 23.4093C24.3426 23.0824 24.5278 22.6387 24.5294 22.1754V17.783C24.5175 17.4894 24.4305 17.2036 24.2767 16.9532C24.1229 16.7027 23.9075 16.4959 23.6509 16.3524ZM18.8067 15.0974C18.8084 14.754 18.946 14.4252 19.1894 14.183C19.4328 13.9407 19.7622 13.8048 20.1056 13.8048H21.0531C21.3899 13.813 21.7101 13.953 21.9447 14.1947C22.1794 14.4364 22.3099 14.7605 22.3081 15.0974V16.0825H18.8067V15.0974ZM23.1992 22.2005C23.1992 22.3137 23.1542 22.4222 23.0742 22.5023C22.9942 22.5823 22.8856 22.6272 22.7725 22.6272H18.38C18.2674 22.6256 18.1598 22.5801 18.0801 22.5005C18.0005 22.4208 17.955 22.3132 17.9534 22.2005V17.8081C17.9534 17.695 17.9983 17.5864 18.0783 17.5064C18.1584 17.4264 18.2669 17.3814 18.38 17.3814H22.7725C22.829 17.3797 22.8852 17.3895 22.9378 17.4104C22.9903 17.4312 23.0381 17.4626 23.0781 17.5025C23.118 17.5425 23.1494 17.5903 23.1702 17.6428C23.1911 17.6954 23.2009 17.7516 23.1992 17.8081V22.2005Z" fill="currentColor"/>
</svg>
