<svg width="105" height="31" viewBox="0 0 105 31" fill="none" xmlns="http://www.w3.org/2000/svg">
<path d="M105 27.4928C105 27.888 104.922 28.2793 104.77 28.6443C104.618 29.0094 104.395 29.341 104.114 29.6203C103.833 29.8996 103.5 30.121 103.133 30.272C102.766 30.4229 102.373 30.5004 101.976 30.5H3.02756C2.22557 30.5008 1.45609 30.1845 0.888336 29.6206C0.320581 29.0566 0.00104518 28.2912 0 27.4928V3.51115C0.0010447 2.71232 0.320455 1.94655 0.888096 1.38198C1.45574 0.817419 2.22521 0.500207 3.02756 0.5H101.976C102.373 0.5 102.766 0.577891 103.133 0.729225C103.5 0.880559 103.833 1.10237 104.114 1.38199C104.395 1.66161 104.617 1.99357 104.769 2.35889C104.921 2.72422 104.999 3.11576 104.999 3.51115L105 27.4928Z" fill="white"/>
<path d="M105 27.4928C105 27.888 104.922 28.2793 104.77 28.6443C104.618 29.0094 104.395 29.341 104.114 29.6203C103.833 29.8996 103.5 30.121 103.133 30.272C102.766 30.4229 102.373 30.5004 101.976 30.5H3.02756C2.22557 30.5008 1.45609 30.1845 0.888336 29.6206C0.320581 29.0566 0.00104518 28.2912 0 27.4928V3.51115C0.0010447 2.71232 0.320455 1.94655 0.888096 1.38198C1.45574 0.817419 2.22521 0.500207 3.02756 0.5H101.976C102.373 0.5 102.766 0.577891 103.133 0.729225C103.5 0.880559 103.833 1.10237 104.114 1.38199C104.395 1.66161 104.617 1.99357 104.769 2.35889C104.921 2.72422 104.999 3.11576 104.999 3.51115L105 27.4928Z" fill="black"/>
<path d="M23.058 15.3351C23.0351 12.8045 25.1392 11.5733 25.2354 11.516C24.0438 9.78627 22.1968 9.54994 21.5478 9.53109C19.9965 9.36856 18.4918 10.4552 17.7016 10.4552C16.8956 10.4552 15.6788 9.5468 14.3673 9.57349C12.6796 9.5994 11.1008 10.5722 10.2349 12.0829C8.44782 15.1632 9.78061 19.6897 11.4927 22.1795C12.3492 23.3997 13.35 24.7604 14.6599 24.7125C15.9414 24.6606 16.4201 23.8998 17.9666 23.8998C19.4989 23.8998 19.9484 24.7125 21.2844 24.6818C22.6598 24.6606 23.5257 23.457 24.3522 22.2266C25.3419 20.8298 25.7394 19.4526 25.7551 19.3819C25.7236 19.3709 23.0848 18.3675 23.058 15.3351ZM20.5344 7.89322C21.2237 7.03502 21.6953 5.86746 21.5643 4.68263C20.5667 4.7266 19.3191 5.36966 18.6007 6.20901C17.965 6.94865 17.3972 8.16096 17.5439 9.30104C18.6645 9.38426 19.8152 8.73806 20.5344 7.89322Z" fill="white"/>
<path d="M41.62 24.5374H39.8291L38.848 21.4681H35.438L34.5034 24.5374H32.7598L36.139 14.0883H38.2258L41.62 24.5374ZM38.5523 20.1804L37.6651 17.4519C37.5712 17.1732 37.3945 16.5168 37.1359 15.4835H37.1043C37.0002 15.9279 36.8338 16.5843 36.6059 17.4519L35.7337 20.1804H38.5523ZM50.2934 20.6774C50.2934 21.9589 49.944 22.9717 49.2445 23.7153C48.6184 24.3772 47.84 24.7078 46.9118 24.7078C45.9094 24.7078 45.1886 24.3521 44.7509 23.6391V27.5925H43.0695V19.4793C43.0695 18.6745 43.0482 17.8492 43.0072 17.0028H44.4859L44.5798 18.1971H44.6113C45.172 17.2973 46.023 16.8474 47.1649 16.8474C48.0576 16.8474 48.8029 17.1983 49.3991 17.9011C49.9945 18.6054 50.2934 19.5303 50.2934 20.6774ZM48.5805 20.7387C48.5805 20.0053 48.4149 19.4008 48.0821 18.9242C47.7185 18.4287 47.2304 18.1806 46.6184 18.1806C46.2036 18.1806 45.8266 18.3188 45.4899 18.5912C45.1523 18.866 44.9315 19.2249 44.8282 19.6693C44.7821 19.8355 44.7559 20.0065 44.7501 20.1789V21.4359C44.7501 21.9832 44.9189 22.4457 45.2564 22.8241C45.594 23.201 46.0324 23.3902 46.5719 23.3902C47.2051 23.3902 47.698 23.146 48.0505 22.6616C48.4038 22.1756 48.5805 21.5349 48.5805 20.7387ZM58.9975 20.6774C58.9975 21.9589 58.6482 22.9717 57.9487 23.7153C57.3217 24.3772 56.5441 24.7078 55.6151 24.7078C54.6127 24.7078 53.8919 24.3521 53.4542 23.6391V27.5925H51.7729V19.4793C51.7729 18.6745 51.7516 17.8492 51.7106 17.0028H53.1893L53.2831 18.1971H53.3147C53.8746 17.2973 54.7255 16.8474 55.8683 16.8474C56.7602 16.8474 57.5054 17.1983 58.1032 17.9011C58.6979 18.6054 58.9975 19.5303 58.9975 20.6774ZM57.2838 20.7387C57.2838 20.0053 57.1174 19.4008 56.7846 18.9242C56.4211 18.4287 55.9345 18.1806 55.3225 18.1806C54.9077 18.1806 54.5307 18.3188 54.1924 18.5912C53.8549 18.866 53.6348 19.2249 53.5315 19.6693C53.4803 19.8766 53.4527 20.0454 53.4527 20.1789V21.4359C53.4527 21.9832 53.6222 22.4457 53.9582 22.8241C54.2957 23.2002 54.7342 23.3902 55.2752 23.3902C55.9093 23.3902 56.4022 23.146 56.7539 22.6616C57.1072 22.1756 57.2838 21.5349 57.2838 20.7387ZM68.7293 21.6063C68.7293 22.4959 68.417 23.2191 67.7963 23.7773C67.1133 24.3866 66.1599 24.6921 64.9375 24.6921C63.8082 24.6921 62.9028 24.4753 62.2199 24.0411L62.6087 22.6459C63.3461 23.0809 64.156 23.2976 65.0377 23.2976C65.6717 23.2976 66.1646 23.1547 66.5164 22.8712C66.8689 22.587 67.0471 22.207 67.0471 21.7327C67.0471 21.3079 66.8996 20.9523 66.6102 20.6625C66.3192 20.3736 65.8381 20.1043 65.1623 19.8569C63.3248 19.1746 62.4052 18.1767 62.4052 16.8639C62.4052 16.0064 62.7301 15.3045 63.3784 14.7557C64.0266 14.2076 64.8863 13.9336 65.9556 13.9336C66.9107 13.9336 67.7064 14.0992 68.3381 14.4298L67.9162 15.7944C67.3215 15.4741 66.6504 15.3139 65.8996 15.3139C65.3066 15.3139 64.8413 15.4592 64.5085 15.7481C64.2285 16.0064 64.0866 16.3213 64.0866 16.695C64.0866 17.1073 64.2482 17.4496 64.57 17.7181C64.8492 17.9655 65.3586 18.2348 66.0952 18.5237C66.999 18.8865 67.663 19.3089 68.0881 19.7941C68.5163 20.2794 68.7293 20.8847 68.7293 21.6063ZM74.3025 18.2591H72.4492V21.9172C72.4492 22.8477 72.7757 23.3117 73.4303 23.3117C73.7308 23.3117 73.98 23.2866 74.1771 23.234L74.2237 24.5052C73.8924 24.6285 73.4563 24.6905 72.9161 24.6905C72.2521 24.6905 71.7331 24.4887 71.3585 24.0851C70.9855 23.6815 70.7978 23.0055 70.7978 22.0539V18.256H69.6937V16.9997H70.7978V15.6201L72.4492 15.1239V16.9997H74.3025V18.2591ZM82.6478 20.7081C82.6478 21.8662 82.315 22.8171 81.651 23.5606C80.9562 24.3262 80.0319 24.7078 78.8797 24.7078C77.7678 24.7078 76.8837 24.3411 76.2244 23.6085C75.5651 22.8744 75.2355 21.9494 75.2355 20.8337C75.2355 19.6661 75.5762 18.7098 76.2552 17.9662C76.9358 17.2219 77.8521 16.8497 79.0043 16.8497C80.1147 16.8497 81.0067 17.2172 81.6817 17.9505C82.3268 18.6619 82.6478 19.5806 82.6478 20.7081ZM80.9049 20.7465C80.9049 20.0564 80.7551 19.4644 80.4546 18.9689C80.1021 18.3706 79.5974 18.0714 78.9436 18.0714C78.2701 18.0714 77.7536 18.3706 77.4018 18.9689C77.1006 19.4644 76.9507 20.0666 76.9507 20.778C76.9507 21.4689 77.1006 22.0625 77.4018 22.5564C77.7654 23.1547 78.2725 23.4538 78.9294 23.4538C79.5722 23.4538 80.0761 23.1484 80.4404 22.5415C80.7496 22.0342 80.9049 21.4383 80.9049 20.7465ZM88.1154 18.475C87.9405 18.4436 87.7631 18.4281 87.5854 18.4287C86.994 18.4287 86.5366 18.6501 86.2148 19.0961C85.9356 19.4887 85.7952 19.9849 85.7952 20.584V24.5374H84.1139V19.3756C84.1154 18.5847 84.0991 17.7938 84.065 17.0036H85.5295L85.591 18.4452H85.6375C85.8157 17.9497 86.0949 17.5501 86.4782 17.2509C86.829 16.9895 87.2553 16.848 87.6935 16.8474C87.8488 16.8474 87.9892 16.8584 88.1138 16.878L88.1154 18.475ZM95.635 20.4136C95.6393 20.6681 95.6187 20.9224 95.5735 21.1729H90.5294C90.5483 21.9172 90.7928 22.4873 91.2613 22.8799C91.6863 23.2301 92.236 23.4059 92.9111 23.4059C93.6579 23.4059 94.3393 23.2882 94.9521 23.0503L95.2155 24.2115C94.4994 24.5225 93.654 24.6771 92.6784 24.6771C91.5049 24.6771 90.5838 24.3332 89.9135 23.647C89.2447 22.96 88.9096 22.0366 88.9096 20.88C88.9096 19.7447 89.2211 18.7985 89.8449 18.044C90.4979 17.2384 91.3803 16.8356 92.4907 16.8356C93.5814 16.8356 94.4071 17.2384 94.9678 18.044C95.4118 18.6823 95.635 19.4738 95.635 20.4136ZM94.0317 19.9794C94.0435 19.4824 93.9331 19.0545 93.7052 18.6925C93.4142 18.2261 92.9663 17.9937 92.3661 17.9937C91.8165 17.9937 91.3685 18.2206 91.0278 18.676C90.7479 19.038 90.5815 19.473 90.5302 19.9779L94.0317 19.9794Z" fill="white"/>
<path d="M34.9529 10.394C34.4853 10.394 34.0807 10.3712 33.744 10.3328V5.28094C34.215 5.2085 34.6909 5.1728 35.1675 5.17415C37.0957 5.17415 37.9837 6.11872 37.9837 7.65845C37.9837 9.43452 36.9348 10.394 34.9529 10.394ZM35.2353 5.82192C34.975 5.82192 34.7534 5.83763 34.5697 5.87531V9.71561C34.669 9.73131 34.8599 9.73838 35.128 9.73838C36.3914 9.73838 37.1106 9.0223 37.1106 7.68122C37.1106 6.4854 36.46 5.82192 35.2353 5.82192ZM40.751 10.4325C39.6642 10.4325 38.96 9.62453 38.96 8.52764C38.96 7.38442 39.6792 6.56941 40.8125 6.56941C41.8834 6.56941 42.6035 7.33888 42.6035 8.46718C42.6035 9.62453 41.8614 10.4325 40.751 10.4325ZM40.7825 7.17085C40.1855 7.17085 39.803 7.72676 39.803 8.50408C39.803 9.26649 40.1934 9.82239 40.7746 9.82239C41.3558 9.82239 41.7462 9.22802 41.7462 8.48838C41.7462 7.73461 41.3637 7.17085 40.7825 7.17085ZM48.8005 6.64557L47.6373 10.3485H46.8794L46.3976 8.74042C46.2778 8.34708 46.178 7.94797 46.0987 7.5446H46.0829C46.0222 7.94818 45.907 8.35254 45.7848 8.74042L45.2722 10.3485H44.5064L43.4118 6.64557H44.2612L44.6823 8.40594C44.7817 8.82522 44.8653 9.22095 44.9347 9.59469H44.9504C45.0112 9.28298 45.1105 8.89353 45.2564 8.41379L45.7848 6.64636H46.4583L46.9638 8.3761C47.086 8.79538 47.1854 9.20682 47.2627 9.59548H47.2848C47.3384 9.21467 47.4228 8.8103 47.5371 8.3761L47.989 6.64636L48.8005 6.64557ZM53.0828 10.3485H52.2563V8.2222C52.2563 7.56737 52.0039 7.23916 51.5063 7.23916C51.0166 7.23916 50.6798 7.65845 50.6798 8.14604V10.3485H49.8534V7.70399C49.8534 7.37657 49.8455 7.0256 49.8226 6.64479H50.5497L50.5884 7.21639H50.6112C50.8336 6.82067 51.2847 6.56941 51.7902 6.56941C52.571 6.56941 53.0836 7.16379 53.0836 8.13112L53.0828 10.3485ZM55.3619 10.3485H54.5347V4.94645H55.3619V10.3485ZM58.3753 10.4325C57.2894 10.4325 56.5843 9.62453 56.5843 8.52764C56.5843 7.38442 57.3036 6.56941 58.436 6.56941C59.5078 6.56941 60.227 7.33888 60.227 8.46718C60.2278 9.62453 59.4849 10.4325 58.3753 10.4325ZM58.4061 7.17085C57.8091 7.17085 57.4266 7.72676 57.4266 8.50408C57.4266 9.26649 57.8177 9.82239 58.3974 9.82239C58.9794 9.82239 59.369 9.22802 59.369 8.48838C59.3698 7.73461 58.9881 7.17085 58.4061 7.17085ZM63.4856 10.3485L63.4257 9.92211H63.4036C63.1513 10.2652 62.783 10.4325 62.3161 10.4325C61.6497 10.4325 61.1765 9.96765 61.1765 9.34265C61.1765 8.42871 61.9723 7.95603 63.35 7.95603V7.88772C63.35 7.40013 63.0905 7.15594 62.5779 7.15594C62.2112 7.15594 61.8895 7.2478 61.6063 7.43075L61.4384 6.88976C61.7822 6.67619 62.2112 6.56941 62.7151 6.56941C63.6867 6.56941 64.1773 7.07977 64.1773 8.10129V9.46514C64.1773 9.83888 64.1938 10.1286 64.2309 10.3492L63.4856 10.3485ZM63.3721 8.50408C62.4541 8.50408 61.9936 8.7255 61.9936 9.25078C61.9936 9.63945 62.2309 9.82946 62.5606 9.82946C62.9809 9.82946 63.3721 9.50989 63.3721 9.07569V8.50408ZM68.1906 10.3485L68.152 9.75408H68.1291C67.8917 10.2032 67.4927 10.4325 66.9351 10.4325C66.0384 10.4325 65.3744 9.6473 65.3744 8.54256C65.3744 7.38442 66.0629 6.56862 67.0029 6.56862C67.5006 6.56862 67.8531 6.73587 68.0518 7.07192H68.0684V4.94645H68.8957V9.3505C68.8957 9.70854 68.9043 10.0438 68.9264 10.3485H68.1906ZM68.0684 8.1696C68.0684 7.65138 67.7237 7.20933 67.1977 7.20933C66.585 7.20933 66.2104 7.75031 66.2104 8.51193C66.2104 9.25864 66.5992 9.76979 67.1812 9.76979C67.7009 9.76979 68.0684 9.31988 68.0684 8.78675V8.1696ZM74.1408 10.4325C73.0549 10.4325 72.3507 9.62453 72.3507 8.52764C72.3507 7.38442 73.0699 6.56941 74.2024 6.56941C75.2741 6.56941 75.9933 7.33888 75.9933 8.46718C75.9941 9.62453 75.252 10.4325 74.1408 10.4325ZM74.1716 7.17085C73.5754 7.17085 73.1929 7.72676 73.1929 8.50408C73.1929 9.26649 73.5833 9.82239 74.1637 9.82239C74.7457 9.82239 75.1353 9.22802 75.1353 8.48838C75.1369 7.73461 74.7544 7.17085 74.1716 7.17085ZM80.4381 10.3485H79.6108V8.2222C79.6108 7.56737 79.3584 7.23916 78.8608 7.23916C78.3711 7.23916 78.0351 7.65845 78.0351 8.14604V10.3485H77.2078V7.70399C77.2078 7.37657 77.1999 7.0256 77.1771 6.64479H77.9042L77.9428 7.21639H77.9657C78.1873 6.82067 78.6392 6.56862 79.1439 6.56862C79.9247 6.56862 80.4381 7.163 80.4381 8.13034V10.3485ZM85.9987 7.26272H85.0894V9.06077C85.0894 9.51853 85.2487 9.74702 85.5705 9.74702C85.7164 9.74702 85.8386 9.73131 85.9372 9.70854L85.9601 10.3335C85.8 10.3948 85.5855 10.4254 85.3189 10.4254C84.6675 10.4254 84.2779 10.0674 84.2779 9.12987V7.26272H83.7353V6.64557H84.2779V5.96718L85.0894 5.72299V6.64479H85.9987V7.26272ZM90.374 10.3485H89.5483V8.23791C89.5483 7.57522 89.2968 7.23995 88.7984 7.23995C88.3701 7.23995 87.9711 7.52968 87.9711 8.11621V10.3485H87.1454V4.94645H87.9711V7.17085H87.9876C88.2479 6.76727 88.6248 6.56862 89.1059 6.56862C89.893 6.56862 90.374 7.17792 90.374 8.14604V10.3485ZM94.8566 8.69488H92.3764C92.3921 9.39604 92.8582 9.79177 93.5483 9.79177C93.915 9.79177 94.2525 9.73053 94.5506 9.61668L94.6792 10.1883C94.3274 10.3406 93.9134 10.4168 93.4316 10.4168C92.2683 10.4168 91.5799 9.68499 91.5799 8.55041C91.5799 7.41504 92.2849 6.56156 93.3385 6.56156C94.2888 6.56156 94.885 7.26272 94.885 8.32192C94.8904 8.44692 94.8808 8.57211 94.8566 8.69488ZM94.0987 8.10835C94.0987 7.53675 93.8093 7.13317 93.2809 7.13317C92.8062 7.13317 92.4308 7.5446 92.3772 8.10835H94.0987Z" fill="white"/>
</svg>
