<svg width="105" height="31" viewBox="0 0 105 31" fill="none" xmlns="http://www.w3.org/2000/svg">
<path d="M101.111 30.5H3.88894C1.75001 30.5 0 28.8125 0 26.75V4.25C0 2.18749 1.75001 0.5 3.88894 0.5H101.111C103.25 0.5 105 2.18749 105 4.25V26.75C105 28.8125 103.25 30.5 101.111 30.5Z" fill="#100F0D"/>
<path d="M16.1114 15.068L7.83126 23.5428L7.83249 23.5478C8.08643 24.4681 8.95813 25.1457 9.99265 25.1457C10.4062 25.1457 10.7945 25.0379 11.1275 24.8486L11.1539 24.8337L20.4748 19.6473L16.1114 15.068Z" fill="#EB3131"/>
<path d="M24.489 13.6251L24.4811 13.6199L20.457 11.3704L15.9233 15.2605L20.4727 19.6469L24.4756 17.4197C25.1773 17.0544 25.6538 16.341 25.6538 15.5183C25.6538 14.7016 25.1838 13.9917 24.489 13.6251Z" fill="#F6B60B"/>
<path d="M7.8301 7.45774C7.78032 7.63474 7.75415 7.82014 7.75415 8.01266V22.9885C7.75415 23.1806 7.78086 23.3665 7.83126 23.5428L16.3964 15.2848L7.8301 7.45774Z" fill="#5778C5"/>
<path d="M16.1727 15.5006L20.4588 11.3688L11.1484 6.16367C10.81 5.96822 10.415 5.85542 9.99236 5.85542C8.95784 5.85542 8.08496 6.53426 7.83097 7.4556L7.8301 7.45774L16.1727 15.5006Z" fill="#3BAD49"/>
<path d="M83.1729 23H84.6242V13.6235H83.1729V23ZM96.2453 17.0013L94.5816 21.0663H94.5318L92.8052 17.0013H91.2418L93.8319 22.6827L92.3549 25.8432H93.8685L97.8593 17.0016L96.2453 17.0013ZM88.0141 21.9349C87.5397 21.9349 86.8762 21.7055 86.8762 21.1386C86.8762 20.415 87.7023 20.1375 88.4147 20.1375C89.0525 20.1375 89.3535 20.27 89.7409 20.451C89.6281 21.3197 88.8526 21.9349 88.0141 21.9349ZM88.1899 16.7963C87.1391 16.7963 86.051 17.2427 85.6006 18.2318L86.8887 18.7504C87.164 18.2318 87.6765 18.0631 88.2148 18.0631C88.9654 18.0631 89.7284 18.497 89.7408 19.2693V19.3656C89.4779 19.2209 88.9148 19.0038 88.2272 19.0038C86.8381 19.0038 85.4249 19.7394 85.4249 21.1146C85.4249 22.3691 86.5636 23.1774 87.8391 23.1774C88.8145 23.1774 89.3535 22.7552 89.6902 22.2605H89.7408V22.9846H91.1424V19.3896C91.1424 17.725 89.8528 16.7963 88.1899 16.7963ZM79.2202 18.1427H77.156V14.9289H79.2202C80.3053 14.9289 80.9212 15.795 80.9212 16.5358C80.9212 17.2624 80.3052 18.1427 79.2202 18.1427ZM79.1829 13.6237H75.7053V23.0002H77.156V19.448H79.1829C80.7914 19.448 82.3727 18.3253 82.3727 16.5362C82.3727 14.7473 80.7914 13.6237 79.1829 13.6237ZM60.2197 21.9365C59.2171 21.9365 58.3779 21.1267 58.3779 20.0155C58.3779 18.8914 59.2171 18.0702 60.2197 18.0702C61.2096 18.0702 61.9865 18.8915 61.9865 20.0155C61.9865 21.1267 61.2096 21.9365 60.2197 21.9365ZM61.8862 17.5262H61.836C61.5104 17.1518 60.8835 16.8134 60.0945 16.8134C58.4402 16.8134 56.9241 18.2153 56.9241 20.0155C56.9241 21.8035 58.4402 23.1931 60.0945 23.1931C60.8835 23.1931 61.5104 22.8546 61.836 22.4683H61.8862V22.927C61.8862 24.1479 61.2096 24.8 60.1195 24.8C59.2301 24.8 58.6787 24.1839 58.453 23.6644L57.1876 24.1718C57.5507 25.0173 58.5153 26.0568 60.1195 26.0568C61.824 26.0568 63.265 25.0899 63.265 22.7336V17.0067H61.8863L61.8862 17.5262ZM64.2676 22.9997H65.7205V13.6232H64.2676V22.9997ZM67.8634 19.9066C67.826 18.674 68.8538 18.0459 69.5928 18.0459C70.1694 18.0459 70.6576 18.3239 70.8211 18.7224L67.8634 19.9066ZM72.3743 18.8431C72.0987 18.1306 71.2592 16.8134 69.5426 16.8134C67.8381 16.8134 66.4223 18.1062 66.4223 20.0033C66.4223 21.7916 67.826 23.1931 69.7052 23.1931C71.2213 23.1931 72.0987 22.2993 72.4623 21.7795L71.3345 21.0544C70.9585 21.5862 70.445 21.9366 69.7052 21.9366C68.9663 21.9366 68.4398 21.6102 68.1019 20.9698L72.5246 19.2058L72.3743 18.8431ZM37.1343 17.7922V19.1454H40.4924C40.3921 19.9066 40.129 20.4623 39.728 20.8491C39.2391 21.3201 38.4747 21.8399 37.1342 21.8399C35.0666 21.8399 33.4503 20.2329 33.4503 18.2393C33.4503 16.2456 35.0666 14.6385 37.1342 14.6385C38.2495 14.6385 39.0638 15.0615 39.6653 15.6052L40.6555 14.6504C39.8157 13.8773 38.7007 13.2852 37.1342 13.2852C34.3019 13.2852 31.9212 15.5085 31.9212 18.2393C31.9212 20.9698 34.3019 23.1931 37.1342 23.1931C38.6627 23.1931 39.8157 22.7097 40.7178 21.8036C41.6451 20.9094 41.9334 19.6529 41.9334 18.6378C41.9334 18.324 41.9081 18.034 41.858 17.7922H37.1343ZM45.7516 21.9365C44.749 21.9365 43.8843 21.139 43.8843 20.0033C43.8843 18.8554 44.749 18.0702 45.7516 18.0702C46.7539 18.0702 47.6185 18.8554 47.6185 20.0033C47.6185 21.139 46.7539 21.9365 45.7516 21.9365ZM45.7516 16.8134C43.9216 16.8134 42.4308 18.1546 42.4308 20.0033C42.4308 21.8399 43.9216 23.1931 45.7516 23.1931C47.5809 23.1931 49.0721 21.8399 49.0721 20.0033C49.0721 18.1546 47.5809 16.8134 45.7516 16.8134ZM52.9952 21.9365C51.9932 21.9365 51.1282 21.139 51.1282 20.0033C51.1282 18.8554 51.9933 18.0702 52.9952 18.0702C53.9978 18.0702 54.8622 18.8554 54.8622 20.0033C54.8622 21.139 53.9978 21.9365 52.9952 21.9365ZM52.9952 16.8134C51.1659 16.8134 49.675 18.1546 49.675 20.0033C49.675 21.8399 51.1659 23.1931 52.9952 23.1931C54.8252 23.1931 56.316 21.8399 56.316 20.0033C56.316 18.1546 54.8252 16.8134 52.9952 16.8134Z" fill="white"/>
<path d="M36.862 7.83575H34.593V8.37717H36.2933C36.2471 8.819 36.0647 9.16587 35.7573 9.41782C35.4498 9.66982 35.0573 9.79635 34.593 9.79635C34.0838 9.79635 33.6524 9.62527 33.2988 9.28545C32.9524 8.93858 32.7762 8.50963 32.7762 7.99285C32.7762 7.4761 32.9524 7.04715 33.2988 6.70031C33.6524 6.36048 34.0838 6.19053 34.593 6.19053C34.8544 6.19053 35.1035 6.23389 35.3319 6.32883C35.5604 6.42371 35.7439 6.55616 35.8873 6.72611L36.3188 6.31008C36.1231 6.09559 35.8752 5.93156 35.5676 5.81201C35.2602 5.69246 34.9394 5.63508 34.593 5.63508C33.9136 5.63508 33.3376 5.86241 32.8673 6.31595C32.3969 6.7706 32.1612 7.33078 32.1612 7.99286C32.1612 8.65494 32.3969 9.21633 32.8673 9.66988C33.3376 10.1233 33.9136 10.3508 34.593 10.3508C35.3063 10.3508 35.8751 10.1304 36.3126 9.68271C36.6979 9.31011 36.8947 8.8062 36.8947 8.17573C36.8947 8.06908 36.8814 7.9553 36.862 7.83575ZM37.741 5.73577V10.2499H40.4741V9.69556H38.3425V8.26357H40.2652V7.72215H38.3425V6.29128H40.4741V5.73575L37.741 5.73577ZM44.3066 6.2913V5.73577H41.0897V6.2913H42.3974V10.2499H42.999V6.2913H44.3066ZM47.219 5.73577H46.6175V10.2499H47.219V5.73577ZM51.1897 6.2913V5.73577H47.9729V6.2913H49.2805V10.2499H49.882V6.2913H51.1897ZM57.2601 6.32294C56.7959 5.86237 56.2271 5.63504 55.5477 5.63504C54.8672 5.63504 54.2985 5.86237 53.8342 6.31591C53.3699 6.76359 53.1415 7.32489 53.1415 7.99282C53.1415 8.66075 53.3699 9.22214 53.8342 9.66985C54.2985 10.1233 54.8672 10.3507 55.5477 10.3507C56.221 10.3507 56.7958 10.1233 57.2601 9.66985C57.7244 9.22217 57.9528 8.66081 57.9528 7.99282C57.9528 7.33074 57.7244 6.77054 57.2601 6.32294ZM54.2656 6.70027C54.612 6.36044 55.0374 6.19049 55.5477 6.19049C56.057 6.19049 56.4823 6.36045 56.8226 6.70027C57.169 7.03424 57.3391 7.47012 57.3391 7.99281C57.3391 8.51669 57.169 8.95139 56.8226 9.28541C56.4823 9.62524 56.057 9.79631 55.5477 9.79631C55.0374 9.79631 54.612 9.62523 54.2656 9.28541C53.9265 8.94439 53.7564 8.51668 53.7564 7.99281C53.7564 7.47013 53.9265 7.04126 54.2656 6.70027ZM59.382 7.43857L59.3565 6.56779H59.382L61.7616 10.2498H62.3899V5.73572H61.7883V8.37712L61.8138 9.24789H61.7883L59.5133 5.73572H58.7805V10.2498H59.382V7.43857Z" fill="white"/>
</svg>
